<?xml version="1.0" standalone="no"?>
<!DOCTYPE svg PUBLIC "-//W3C//DTD SVG 1.1//EN" "http://www.w3.org/Graphics/SVG/1.1/DTD/svg11.dtd" >
<svg>
<metadata>
Created by FontForge 20090914 at Wed Aug 10 12:48:40 2022
 By www-data
&#194;&#169; Copyright SoftMaker Software GmbH and its licensors
</metadata>
<defs>
<font id="W730RomanCd" horiz-adv-x="323" >
  <font-face 
    font-family="W730-Roman-Cd"
    font-weight="400"
    font-stretch="normal"
    units-per-em="1000"
    panose-1="0 0 4 0 0 0 0 0 0 0"
    ascent="800"
    descent="-200"
    x-height="466.001"
    cap-height="707.001"
    bbox="-158 -216.002 885 920"
    underline-thickness="40"
    underline-position="-93"
    unicode-range="U+0020-U+2215"
  />
<missing-glyph horiz-adv-x="500" 
d="M31 0v920h438v-920h-438zM438 31v858h-376v-858h376z" />
    <glyph glyph-name=".notdef" horiz-adv-x="500" 
d="M31 0v920h438v-920h-438zM438 31v858h-376v-858h376z" />
    <glyph glyph-name="space" unicode=" " horiz-adv-x="317" 
 />
    <glyph glyph-name="exclam" unicode="!" horiz-adv-x="194" 
d="M113 178c-12 4 -19 16.333 -21 37l-37 407c0 59.333 21 89 63 89c40 0 60 -27 60 -81l-1 -25l-43 -403c-2 -16 -9 -24 -21 -24zM117 142c36.667 0 55 -22.333 55 -67c0 -51.333 -20 -77 -60 -77c-16 0 -28.5 8 -37.5 24s-13.5 33.333 -13.5 52c0 16 5 31.333 15 46
s23.667 22 41 22z" />
    <glyph glyph-name="quotedbl" unicode="&#x22;" horiz-adv-x="302" 
d="M23 643c0 46.667 17.667 70.001 53 70.001c20 0 35.667 -9.66699 47 -29c8.66699 -17.333 13 -36.333 13 -57c0 -26.667 -7.66699 -55.334 -23 -86.001c-17.333 -35.333 -38 -53 -62 -53l-11 3l-2 2c1.33301 5.33301 5.33301 12.333 12 21l16 21c10 16 17 32 21 48
c-20 0.666992 -35.667 6 -47 16s-17 24.667 -17 44zM178 647.001c0 14.667 4.33301 29.333 13 44s20.334 22 35.001 22c21.333 0 37.666 -8.5 48.999 -25.5s17 -36.833 17 -59.5c0 -28 -7.66699 -57 -23 -87c-18 -36 -39.333 -54 -64 -54c-4 0 -8 2 -12 6l31 42
c12 16 18 31.667 18 47c-20.667 0 -36.5 6.16699 -47.5 18.5s-16.5 27.833 -16.5 46.5z" />
    <glyph glyph-name="numbersign" unicode="#" horiz-adv-x="532" 
d="M120 206h-97v67h107l26 193h-107v68h117l29 206h69l-29 -206h124l29 206h69l-29 -206h83v-67h-93l-27 -194h92v-67h-101l-29 -206h-69l29 206h-124l-29 -206h-69zM226 467l-27 -194h123l27 194h-123z" />
    <glyph glyph-name="dollar" unicode="$" 
d="M149 780l9.99805 -0.00195312c8 0 14.667 -1.66699 20 -5c4.66699 -9.33301 7 -20 7 -32l-1 -19v-20l27 4c8 2 14.333 3.66699 19 5s7.33398 2.33301 8.00098 3c9.33301 0 19.333 -20.667 30 -62c2.66699 -11.333 5.5 -25.5 8.5 -42.5s4.5 -28.833 4.5 -35.5v-8
c0 -19.333 -6.33301 -29 -19 -29c-9.33301 0 -22.666 12.667 -39.999 38l-37 52v-163c46.667 -39.333 78.667 -74.666 96 -105.999c20.667 -37.333 31 -83.666 31 -138.999c0 -59.333 -7.66699 -104.333 -23 -135c-18.667 -38.667 -52.667 -67.667 -102 -87l1 -15v-15
c0 -26 -8.66699 -39 -26 -39c-19.333 0 -29 13 -29 39l1 18l1 18c-10.667 4.66699 -19 7 -25 7c-3.33301 0 -9 -2 -17 -6l-16 -5c-4 0 -9.33301 2.16699 -16 6.5s-14 30.166 -22 77.499l-6.5 45.5c-2.33301 17 -3.5 31.167 -3.5 42.5c0 24.667 6.66699 37 20 37
c10.667 0 22 -10.333 34 -31l21 -47c9.33301 -17.333 19.333 -30.666 30 -39.999v256c-30 24.667 -55.667 56.667 -77 96c-10 20 -17.333 39 -22 57s-7 37.333 -7 58c0 82 35.333 132 106 150v54c0 7.33301 4.66699 13 14 17zM137.998 646.998
c-24.667 -13.333 -37 -34 -37 -62s12.333 -55.333 37 -82v144zM224.998 168.998c0 30.667 -2.16797 55.667 -6.50098 75s-16.166 37 -35.499 53v-215c28 11.333 42 40.333 42 87z" />
    <glyph glyph-name="percent" unicode="%" horiz-adv-x="625" 
d="M121 716c71.333 0 107 -75.334 107 -226.001c0 -71.333 -3 -119.666 -9 -144.999c-14 -57.333 -46 -86 -96 -86c-45.333 0 -75 30.667 -89 92c-5.33301 25.333 -8 75 -8 149c0 144 31.667 216 95 216zM127 302.999c16 0 24 16 24 48v205l-1 22l-1 22v27
c0 32 -7.66699 48 -23 48s-23 -15.667 -23 -47l-3 -236c0 -59.333 9 -89 27 -89zM430 707.999c14 0 21 -4.66699 21 -14c0 -6 -13 -51 -39 -135l-40 -128c-28.667 -91.333 -43.667 -139 -45 -143l-52 -158l-25 -77l-12 -31c-6 -13.333 -17 -20 -33 -20
s-24.333 4.33301 -25 13c0 8.66699 13 55 39 139l136 421l26 80l11 33c4 10 9 16 15 18zM505 451.999c44 0 73.333 -33.667 88 -101c3.33301 -19.333 6 -40.833 8 -64.5s3 -53.5 3 -89.5c0 -58.667 -3.66699 -101 -11 -127c-14 -50.667 -42.667 -76 -86 -76
s-73.333 20.667 -90 62c-10 26 -15 65 -15 117v68c0 60 4.66699 104.333 14 133c15.333 52 45 78 89 78zM502 37.999c18 0 27 25 27 75v17l-1 16v167l1 17v17c0 42 -9.66699 63 -29 63c-14.667 0 -22 -18.333 -22 -55v-71v-134l-1 -19l-1 -20c0 -48.667 8.66699 -73 26 -73z
" />
    <glyph glyph-name="ampersand" unicode="&#x26;" horiz-adv-x="452" 
d="M132 585c0 34.667 11 64.832 33 90.499s51 38.5 87 38.5c34 0 61.5 -11.667 82.5 -35s31.5 -52 31.5 -86s-9.33301 -62.333 -28 -85c-14.667 -16.667 -39.334 -34.667 -74.001 -54l51 -164l42 151c3.33301 14 10 26 20 36c11.333 13.333 23 20 35 20
c17.333 0 26 -11.667 26 -35l-1 -17l-1 -17c0 -8 -3 -13.667 -9 -17c-12 -4 -19.667 -7.66699 -23 -11s-7 -11.666 -11 -24.999l-50 -184c8.66699 -35.333 23.334 -80 44.001 -134c2 -5.33301 7.16699 -10.5 15.5 -15.5s14.5 -12.167 18.5 -21.5
c-4 -12.667 -11.667 -19 -23 -19h-83c-11.333 0 -21 8.33301 -29 25l-13 40c-38 -46 -75 -69 -111 -69c-45.333 0 -81 21.333 -107 64c-20.667 36 -31 78.333 -31 127c0 97.333 44.333 181.333 133 252c-7.33301 29.333 -13.333 57.333 -18 84s-7 47 -7 61zM172 384.998
c-18 -26.667 -30.333 -48.167 -37 -64.5s-10 -38.5 -10 -66.5c0 -108 23 -162 69 -162c16 0 33.333 15.333 52 46c-16 62.667 -40.667 145 -74 247zM253 498.998c27.333 12.667 41 39.668 41 81.001c0 17.333 -3 34.666 -9 51.999c-8 20.667 -20.333 31 -37 31
c-15.333 0 -23 -12.333 -23 -37c0 -18 3.33301 -39.333 10 -64z" />
    <glyph glyph-name="quotesingle" unicode="'" horiz-adv-x="173" 
d="M126 600c11.333 -11.333 17.002 -26 17.002 -44s-3.66699 -33.333 -11 -46c-9.33301 -16 -22 -24 -38 -24c-43.333 0 -65 32.333 -65 97c0 21.333 8.5 48.333 25.5 81s35.833 49 56.5 49c5.33301 0 9.66602 -2 12.999 -6l-3 -8l-28 -38
c-2.66699 -4 -8.33398 -19 -17.001 -45l4 1c20 0 35.333 -5.66699 46 -17z" />
    <glyph glyph-name="parenleft" unicode="(" horiz-adv-x="258" 
d="M250 706c12 0 18 -6.66797 18 -20.001c0 -4 -12.333 -26.667 -37 -68c-56.667 -96 -85 -211 -85 -345c0 -72 9 -136.667 27 -194c15.333 -50.667 44.333 -109.334 87 -176.001c6 -9.33301 9 -16.666 9 -21.999c0 -13.333 -5.66699 -20 -17 -20
c-14 0 -41.333 26.667 -82 80c-82 109.333 -123 226.333 -123 351c0 66 14.667 133.667 44 203c27.333 66.667 64.333 125.334 111 176.001c20.667 22 36.667 33.667 48 35z" />
    <glyph glyph-name="parenright" unicode=")" horiz-adv-x="257" 
d="M127 296c0 72.667 -8.49902 136 -25.499 190s-46.833 114.333 -89.5 181c-4 6.66699 -6.66699 13.667 -8 21c0 11.333 6 17 18 17c20 0 53.333 -34.667 100 -104c70.667 -106 106 -213.667 106 -323c0 -33.333 -3.66699 -66.833 -11 -100.5s-19 -69.5 -35 -107.5
c-30.667 -73.333 -70.334 -133.333 -119.001 -180c-18 -18 -30.667 -27 -38 -27c-12.667 0 -20 6 -22 18l45 83c52.667 94 79 204.667 79 332z" />
    <glyph glyph-name="asterisk" unicode="*" horiz-adv-x="237" 
d="M100 593l-50.001 12.999c-20 8 -30 19.667 -30 35c0 16 9.33301 24 28 24c4.66699 0 26.667 -16.667 66 -50l-9 34c-4 14 -6 25.333 -6 34c0 6.66699 2.5 12.834 7.5 18.501s10.833 8.83398 17.5 9.50098c18 0 27 -8.66699 27 -26l-4 -23
c-1.33301 -8 -4.66602 -23.333 -9.99902 -46l30 30c13.333 12 24 18.667 32 20c20 0 30 -9.33301 30 -28c0 -11.333 -10.667 -21 -32 -29l-48 -12l51 -15c21.333 -8 32 -19 32 -33c0 -16 -9.33301 -24 -28 -24c-10.667 0 -22 5.66699 -34 17l-28 29l11 -69
c0 -6 -2.83301 -11.5 -8.5 -16.5s-12.167 -8.16699 -19.5 -9.5c-6 0 -12 3 -18 9c-3.33301 5.33301 -5.66602 11.666 -6.99902 18.999l15 68l-33 -31c-15.333 -14 -27 -21.333 -35 -22c-18.667 0 -28 10 -28 30c0 10 11 20 33 30l23 6c7.33301 2 15.666 4.66699 24.999 8z
" />
    <glyph glyph-name="plus" unicode="+" horiz-adv-x="496" 
d="M33 334h179v181h81v-181h180v-81h-180v-181h-81v181h-179v81z" />
    <glyph glyph-name="comma" unicode="," horiz-adv-x="150" 
d="M29 72c0 18.667 4.5 34.999 13.5 48.999s21.833 21 38.5 21c39.333 0 59 -30 59 -90c0 -27.333 -7.33301 -57.166 -22 -89.499s-34 -53.833 -58 -64.5l-14 -4l-4 3l-3 7l36 51c6 12 10.667 27.333 14 46c-40 4 -60 27.667 -60 71z" />
    <glyph glyph-name="hyphen" unicode="-" horiz-adv-x="237" 
d="M23 262c0 16 8.66699 24 26 24h156l5 -2h8c8 -4 12 -10.333 12 -19v-56c0 -16.667 -9 -25 -27 -25h-156c-16 0 -24 8.33301 -24 25v53z" />
    <glyph glyph-name="period" unicode="." horiz-adv-x="150" 
d="M86 139c16 0 29 -7.33301 39 -22c8 -12 12 -26.667 12 -44c0 -18.667 -4.33301 -36.5 -13 -53.5s-21.667 -25.5 -39 -25.5c-18 0 -32 7 -42 21s-15 30.667 -15 50c0 49.333 19.333 74 58 74z" />
    <glyph glyph-name="slash" unicode="/" horiz-adv-x="279" 
d="M233 699c4 6 11.333 9.33398 22 10.001h8l7 -1c6.66699 -2 10 -6.33301 10 -13c0 -4.66699 -13.333 -49.334 -40 -134.001l-139 -431l-25 -78l-12 -32c-5.33301 -13.333 -15 -20 -29 -20c-14.667 0 -22 5.66699 -22 17l33 108l122 378l40 122l21 65z" />
    <glyph glyph-name="zero" unicode="0" 
d="M167 715c95.333 0 143 -116.332 143 -348.999v-77c0 -80.667 -5.66699 -141.334 -17 -182.001c-20 -75.333 -58.667 -113 -116 -113c-64 0 -108 38 -132 114c-13.333 42 -20 106.667 -20 194c0 60.667 1 110.667 3 150s5.66699 71.333 11 96
c20 111.333 62.667 167 128 167zM170 48.001c26 0 39 35.333 39 106v138l-1 138l-2 62l-1 61c0 77.333 -12.333 116 -37 116c-22 0 -33 -14.333 -33 -43l-4 -91l-2 -60v-239l4 -111c0 -51.333 12.333 -77 37 -77z" />
    <glyph glyph-name="one" unicode="1" horiz-adv-x="301" 
d="M108 563c0 12.667 -2.66699 21.6641 -8 26.9971l-24 16c-4 6 -6 11.333 -6 16c0 7.33301 17.833 23.333 53.5 48s57.5 37.334 65.5 38.001c12.667 0 19 -9.33301 19 -28v-609c0 -9.33301 5.66699 -17.666 17 -24.999c12 -6 18 -13.333 18 -22
c0 -15.333 -7.33301 -23 -22 -23h-126l-18 4c-6 6.66699 -9.66699 13.334 -11 20.001c0 6 7 13.667 21 23c14 8 21 19 21 33v482z" />
    <glyph glyph-name="two" unicode="2" horiz-adv-x="302" 
d="M168 89c19.333 0 35.335 8.66797 48.002 26.001l24 50c8 16.667 16.667 25.334 26 26.001c12.667 0 19 -6 19 -18s-1 -26.333 -3 -43s-5.33301 -37.667 -10 -63c-0.666992 -10 -1.33398 -16.5 -2.00098 -19.5s-2.83398 -11.333 -6.50098 -25s-12.167 -20.5 -25.5 -20.5
h-193c-18 0 -27 9 -27 27c0 44 15 98.667 45 164l82 170c30 69.333 45 133 45 191c0 70.667 -16 106 -48 106c-28 0 -42 -31.333 -42 -94c0 -42 11.667 -63 35 -63l2 -15c0 -16.667 -3.66699 -31.334 -11 -44.001c-8 -16 -19.667 -24 -35 -24
c-24.667 0 -43.667 12.667 -57 38c-12 20 -18 43.667 -18 71c0 50.667 9.33301 92.334 28 125.001c23.333 38.667 59 58 107 58c46 0 81.333 -16.333 106 -49c22.667 -30 34 -68.333 34 -115c0 -52 -12 -106.667 -36 -164c-14.667 -34.667 -41.167 -83.334 -79.5 -146.001
s-66.5 -112.334 -84.5 -149.001h77z" />
    <glyph glyph-name="three" unicode="3" horiz-adv-x="302" 
d="M183 630l-37.998 -0.000976562c-26 0 -46.167 -11.167 -60.5 -33.5s-26.833 -33.833 -37.5 -34.5c-10.667 0 -16 7.33301 -16 22c0 10 0.666992 20.167 2 30.5s4 24.5 8 42.5c8 38 18 57 30 57l25 -4l25 -4l47 1l46 2h22c6 0 15.667 -1.33301 29 -4
c12 -6 18.667 -13 20 -21c0 -14.667 -15.667 -51 -47 -109l-62 -116c77.333 -16 116 -92.333 116 -229c0 -63.333 -9.33301 -115 -28 -155c-26 -53.333 -66.667 -80 -122 -80c-43.333 0 -77 15.333 -101 46c-21.333 27.333 -32 63.333 -32 108
c0 32.667 4.66699 60.334 14 83.001c12 31.333 32 47 60 47c12 0 22.833 -4.16699 32.5 -12.5s14.5 -18.5 14.5 -30.5c0 -6 -0.666992 -10 -2 -12c-14.667 -12.667 -23.834 -23.167 -27.501 -31.5s-5.5 -22.5 -5.5 -42.5c0 -60.667 15.333 -91 46 -91c28 0 42 56.333 42 169
c0 103.333 -19.333 155 -58 155c-8.66699 0 -22.334 -3.66699 -41.001 -11c-14 0 -21 8 -21 24c0 10 40 88 120 234z" />
    <glyph glyph-name="four" unicode="4" horiz-adv-x="302" 
d="M17 273l70 189.002c32.667 98 55 161.333 67 190c8 22.667 13.333 35.667 16 39c8 11.333 20 17 36 17h29c18.667 0 28 -11 28 -33v-452l14 1c11.333 0 18.833 -2.16699 22.5 -6.5s5.5 -13.833 5.5 -28.5c0 -11.333 -4.33301 -19 -13 -23l-29 -2v-86
c0 -10.667 5.5 -20.834 16.5 -30.501s17.833 -17.834 20.5 -24.501c0 -6 -3 -11 -9 -15s-12.667 -6.66699 -20 -8h-110c-16.667 0 -25 7 -25 21c0 7.33301 6 15 18 23s18 17.333 18 28v92h-131c-11.333 0 -18.333 2.5 -21 7.5s-4 12.833 -4 23.5l1 39v39zM175 224.002v308
l-107 -308h107z" />
    <glyph glyph-name="five" unicode="5" horiz-adv-x="302" 
d="M248 719c10.667 0 15.998 -8.66504 15.998 -25.998c0 -28.667 -2.66699 -48.334 -8 -59.001c-7.33301 -16 -23 -24 -47 -24l-40 1l-41 2l-14 -144c22 8.66699 39.333 13 52 13c50 0 86.667 -32 110 -96c15.333 -44 23 -97.667 23 -161
c0 -61.333 -8.66699 -111.333 -26 -150c-24 -54 -62.667 -81 -116 -81c-46 0 -81 15 -105 45s-36 68 -36 114c0 81.333 24.667 122 74 122c10.667 0 21.334 -4.33301 32.001 -13s16 -18.334 16 -29.001l-2 -12c-15.333 -10 -24.333 -20.333 -27 -31l-3 -42v-12
c0 -54.667 14.667 -82 44 -82c20 0 33 27.667 39 83c2 19.333 3 56 3 110c0 100.667 -22.667 151 -68 151c-9.33301 0 -21.166 -4.16699 -35.499 -12.5s-23.833 -12.5 -28.5 -12.5c-13.333 0 -20 9.66699 -20 29l1 7c0 40 5 100 15 180c0 15.333 2.66699 43.333 8 84
c2 22 13.667 33 35 33h113c4.66699 0 11.667 2 21 6z" />
    <glyph glyph-name="six" unicode="6" horiz-adv-x="302" 
d="M202 610c0 12.667 -3.16797 24.833 -9.50098 36.5s-15.166 17.5 -26.499 17.5c-26.667 0 -40 -35 -40 -105l1 -75v-75c14 19.333 34 29 60 29c42 0 73.333 -27.333 94 -82c14.667 -40 22 -85.667 22 -137c0 -150.667 -47.667 -226 -143 -226s-143 101 -143 303l1 43v43
c0 93.333 6.33301 162.333 19 207c22 83.333 67 125 135 125c34.667 0 62.167 -11.167 82.5 -33.5s30.5 -51.833 30.5 -88.5c0 -18 -5.66699 -35.667 -17 -53c-13.333 -18 -29 -27 -47 -27c-14.667 0 -26.667 5 -36 15s-14 22 -14 36v5c20.667 7.33301 31 21.333 31 42z
M161.999 50.999c26 0 39 20.667 39 62v151c0 77.333 -12.333 116 -37 116c-10 0 -18.5 -6.66699 -25.5 -20s-10.5 -26.333 -10.5 -39v-121v-32c0 -78 11.333 -117 34 -117z" />
    <glyph glyph-name="seven" unicode="7" horiz-adv-x="301" 
d="M76 715c8.66699 -2 24.833 -3.66602 48.5 -4.99902s55.834 -2 96.501 -2c48.667 0 73 -7 73 -21c0 -22.667 -8.33301 -62.334 -25 -119.001l-37 -122c-5.33301 -19.333 -10.333 -40.833 -15 -64.5s-9.33398 -52.5 -14.001 -86.5l-19 -172v-41c0 -54 -11.333 -81 -34 -81
h-56c-21.333 0 -32 11.333 -32 34c0 26.667 6 69 18 127c33.333 161.333 84 314.333 152 459h-97c-20 0 -39.333 -12.333 -58 -37c-16.667 -24 -29 -36.333 -37 -37l-8 4l-5 5l-3 15c0 7.33301 1.33301 17.833 4 31.5s7 29.167 13 46.5c12 39.333 23.667 61.333 35 66z" />
    <glyph glyph-name="eight" unicode="8" horiz-adv-x="302" 
d="M20 537c0 43.333 9 82 27 116c21.333 40.667 52.333 61 93 61c42 0 75.333 -13.833 100 -41.5s37 -63.5 37 -107.5c0 -50.667 -23 -101 -69 -151l71 -103c14 -28 21 -69.667 21 -125c0 -52 -10.333 -95.333 -31 -130c-24 -41.333 -60.667 -62 -110 -62
c-47.333 0 -84 19.333 -110 58c-22 33.333 -33 75.333 -33 126c0 42 5.83301 76.833 17.5 104.5s32.167 56.167 61.5 85.5c-50 46 -75 102.333 -75 169zM96 181c0 -92 19.333 -138 58 -138c18 0 31.333 14.333 40 43c6.66699 21.333 10 43.666 10 66.999
c0 38.667 -5.16699 70.334 -15.5 95.001s-29.5 53 -57.5 85c-23.333 -35.333 -35 -86 -35 -152zM198 564c0 23.333 -3 44.667 -9 64c-8 27.333 -21 41 -39 41c-25.333 0 -38 -26 -38 -78c0 -63.333 19.667 -110.333 59 -141c18 38 27 76 27 114z" />
    <glyph glyph-name="nine" unicode="9" horiz-adv-x="302" 
d="M127 272c-43.333 0 -74.667 28 -94 84c-13.333 38.667 -20 85.334 -20 140.001c0 146.667 46 220 138 220c61.333 0 104 -40 128 -120c6 -23.333 10.667 -51.166 14 -83.499s5 -70.166 5 -113.499c0 -78.667 -3.16699 -147.834 -9.5 -207.501
s-17.166 -103.834 -32.499 -132.501c-22.667 -42.667 -58.334 -64 -107.001 -64c-33.333 0 -61.333 10 -84 30s-34 47 -34 81c0 23.333 4.66699 43.333 14 60c12.667 20.667 29 31 49 31c12 0 23.5 -4.33301 34.5 -13s16.5 -19.334 16.5 -32.001
c0 -4 -5.16699 -10 -15.5 -18s-15.5 -19.667 -15.5 -35c0 -34.667 12.667 -52 38 -52c17.333 0 28.333 13.667 33 41l3 62l2 151c-18 -19.333 -39 -29 -63 -29zM148.999 329c25.333 0 38 19.667 38 59v126l1 18v18c0 73.333 -13 110 -39 110c-10 0 -18.333 -4.33301 -25 -13
s-10 -18.667 -10 -30v-124c0 -109.333 11.667 -164 35 -164z" />
    <glyph glyph-name="colon" unicode=":" horiz-adv-x="173" 
d="M106 142c36.667 0 55 -22 55 -66c0 -19.333 -4.33301 -37.5 -13 -54.5s-22.667 -25.5 -42 -25.5c-16 0 -29.167 7.33301 -39.5 22s-15.5 31 -15.5 49c0 20 4.33301 36.667 13 50c9.33301 16.667 23.333 25 42 25zM107 471c16.667 0 29.667 -6.83398 39 -20.501
s14 -29.5 14 -47.5c0 -50.667 -17.333 -76 -52 -76c-17.333 0 -32 8 -44 24c-8 14 -12 31 -12 51c0 18.667 4.83301 34.834 14.5 48.501s23.167 20.5 40.5 20.5z" />
    <glyph glyph-name="semicolon" unicode=";" horiz-adv-x="172" 
d="M49 409c0 15.333 5.66699 29.666 17 42.999s24.333 20 39 20c15.333 0 27.833 -7.16699 37.5 -21.5s14.5 -30.166 14.5 -47.499c0 -16 -4.33301 -32.333 -13 -49s-21 -25 -37 -25s-29.667 5.66699 -41 17s-17 25 -17 41v22zM51 69c0 17.333 4 33 12 47
c10.667 16.667 24.334 25 41.001 25c38 0 57 -29 57 -87c0 -25.333 -6.16699 -54 -18.5 -86s-28.5 -54.333 -48.5 -67c-6.66699 -4 -14 -6.66699 -22 -8c-6.66699 0 -10.334 3.33301 -11.001 10l17 24l19 26c7.33301 12.667 13 27.334 17 44.001
c-22 2 -38.333 8.66699 -49 20c-9.33301 11.333 -14 28.666 -14 51.999z" />
    <glyph glyph-name="less" unicode="&#x3c;" horiz-adv-x="582" 
d="M542 446l-425 -193l425 -193v-68l-508 230v62l508 230v-68z" />
    <glyph glyph-name="equal" unicode="=" horiz-adv-x="495" 
d="M1 241h504v-80h-504v80zM1 423h504v-80h-504v80z" />
    <glyph glyph-name="greater" unicode="&#x3e;" horiz-adv-x="582" 
d="M40 60l425 193l-425 193v68l508 -230v-62l-508 -230v68z" />
    <glyph glyph-name="question" unicode="?" 
d="M169 712c44.667 0 80.3301 -13.335 106.997 -40.002s40 -62.334 40 -107.001c0 -40.667 -18.333 -87.667 -55 -141c-21.333 -31.333 -36.666 -57.666 -45.999 -78.999c-11.333 -26 -17 -50 -17 -72v-18v-18c-1.33301 -8 -2 -14 -2 -18c0 -27.333 -7 -41 -21 -41
c-23.333 0 -35 34.667 -35 104c0 40.667 8.33301 84.667 25 132l27 75c10 28 15 53.667 15 77c0 38 -12 57 -36 57c-8.66699 0 -15.667 -6.33301 -21 -19s-8 -23.667 -8 -33c0 -12.667 3.33301 -26.667 10 -42l11 -25c0 -9.33301 -5 -17.666 -15 -24.999
c-9.33301 -5.33301 -19.666 -8.66602 -30.999 -9.99902c-23.333 0 -41.5 11 -54.5 33s-19.5 45.667 -19.5 71c0 39.333 11.333 72.333 34 99s53.334 40 92.001 40zM116.996 76.998c0 18 5.66699 33.667 17 47c12.667 12.667 27.667 19 45 19c18 0 32 -9 42 -27
c7.33301 -14.667 11 -32 11 -52c0 -18 -5.16699 -33.667 -15.5 -47s-24.833 -20 -43.5 -20c-18 0 -32.667 9 -44 27c-8 14 -12 31.667 -12 53z" />
    <glyph glyph-name="at" unicode="@" horiz-adv-x="1015" 
d="M529 500c-41.333 0 -78 -22.333 -110 -67c-27.333 -40.667 -41 -83.334 -41 -128.001c0 -27.333 7.5 -50.333 22.5 -69s35.5 -28 61.5 -28c40 0 76 24 108 72c27.333 42.667 41 85.334 41 128.001c0 22.667 -7.83301 43.667 -23.5 63s-35.167 29 -58.5 29zM662 556
l69.001 0.000976562l-73 -246c-12 -44 -18 -70.667 -18 -80c0 -19.333 7 -29 21 -29c39.333 0 74 27 104 81c25.333 46.667 38 91.667 38 135c0 77.333 -27.333 140.333 -82 189c-52 46 -117.667 69 -197 69c-87.333 0 -159.833 -31.333 -217.5 -94s-86.5 -138 -86.5 -226
s30 -162 90 -222s134 -90 222 -90c45.333 0 89.833 10 133.5 30s79.834 48 108.501 84h67c-32 -54 -76.333 -96.833 -133 -128.5s-116.334 -47.5 -179.001 -47.5c-53.333 0 -102.333 9 -147 27s-86 45.667 -124 83c-74 73.333 -111 163.333 -111 270
c0 102.667 37 191 111 265s162.667 111 266 111c92 0 171.667 -28.333 239 -85c70 -60 105 -135.667 105 -227c0 -67.333 -22.667 -131 -68 -191c-49.333 -65.333 -106.333 -98 -171 -98c-18.667 0 -34 5.66699 -46 17c-12 13.333 -18 28.666 -18 45.999
c-39.333 -42 -80 -63 -122 -63s-77 15.833 -105 47.5s-42 69.167 -42 112.5c0 35.333 5 68.333 15 99s25.667 60 47 88c44 59.333 100.333 89 169 89c51.333 0 89.666 -26 114.999 -78z" />
    <glyph glyph-name="A" unicode="A" horiz-adv-x="388" 
d="M168 714l44.999 -0.000976562c14.667 0 24.334 -9.66699 29.001 -29l126 -618c2 -9.33301 10 -20 24 -32l4 -15c0 -13.333 -11.333 -20 -34 -20h-113c-6 0 -11.667 2.33301 -17 7c-4 4.66699 -6.33301 10.334 -7 17.001c0.666992 0.666992 1 1.33398 1 2.00098
c2.66699 4.66699 5.66699 9 9 13c6 6 9.66699 14 11 24c0 41.333 -13.333 62 -40 62h-49c-20.667 0 -31 -19 -31 -57c0 -6.66699 3.33301 -15.334 10 -26.001l16 -23c-2 -12.667 -9 -19 -21 -19h-94c-18.667 -0 -28 6.33301 -28 19c0 4.66699 4.66699 12.667 14 24
c8 11.333 13.667 23 17 35l100 610c2 17.333 11.333 26 28 26zM208.999 196.999l6.99902 2.99902c4.66699 4.66699 7.33398 9.33398 8.00098 14.001l-3 20l-10 75.5c-4.66699 35 -10 71.5 -16 109.5l-15 86c-10.667 -70 -19 -131.167 -25 -183.5s-9 -90.5 -9 -114.5
c1.33301 -3.33301 7.33301 -7 18 -11z" />
    <glyph glyph-name="B" unicode="B" horiz-adv-x="408" 
d="M403 203c0 -32 -4.00098 -60.5 -12.001 -85.5s-20.667 -46.833 -38 -65.5c-35.333 -38.667 -84.666 -58 -147.999 -58c-123.333 0 -185 10 -185 30c0 3.33301 4 9.33301 12 18s12 16.667 12 24v561c0 14 -4.33301 26.333 -13 37l-12 17l2 12l3 2
c6.66699 8.66699 34 13 82 13c166.667 0 250 -60 250 -180c0 -30.667 -8 -55.667 -24 -75c-11.333 -13.333 -33 -28 -65 -44c38 -12.667 70.167 -39.5 96.5 -80.5s39.5 -82.833 39.5 -125.5zM159.999 476c0 -8.66699 3.66699 -16.668 11 -24.001
c6.66699 -5.33301 15 -8.66602 25 -9.99902c14.667 0 26.667 7.5 36 22.5s14 30.5 14 46.5c0 94.667 -21 142 -63 142c-15.333 0 -23 -6 -23 -18v-159zM160.999 113.999c0 -39.333 15.332 -59.001 45.999 -59.001c24 0 42 18 54 54c8 24 12 52 12 84
c0 40.667 -5.33301 77.334 -16 110.001c-15.333 46.667 -38.666 70 -69.999 70c-17.333 0 -26 -19 -26 -57v-202z" />
    <glyph glyph-name="C" unicode="C" horiz-adv-x="366" 
d="M352 533c0 -8.66699 -2.33301 -16.665 -7 -23.998c-4 -8.66699 -10.333 -13.334 -19 -14.001c-15.333 0 -32.333 26.167 -51 78.5s-37.667 78.5 -57 78.5c-36 0 -54 -114 -54 -342c0 -156.667 24.333 -235 73 -235c36.667 0 55 57 55 171c0 34 8.66699 51 26 51
c32.667 0 49 -39.667 49 -119c0 -28.667 -2.33301 -53.167 -7 -73.5s-13 -39.5 -25 -57.5c-26 -39.333 -65 -59 -117 -59c-70 0 -121.667 37 -155 111c-23.333 54 -35 122 -35 204c0 44 3 86.167 9 126.5s15.667 81.166 29 122.499c34 110.667 84.333 166 151 166l25 -4
l25 -3l17 4l18 5c7.33301 0 14 -8 20 -24l9 -42c14 -62 21 -102.333 21 -121z" />
    <glyph glyph-name="D" unicode="D" horiz-adv-x="408" 
d="M43 634c0 10 -3 18.0029 -9 24.0029l-18 20v6c0 18 24.667 27 74 27c100 0 178.333 -40.333 235 -121c49.333 -70.667 74 -158.334 74 -263.001c0 -220 -79 -330 -237 -330h-21c-48 0 -85 4 -111 12l-8 7l-3 8c0 5.33301 4 11.666 12 18.999s12 14.666 12 21.999v569z
M166 95.0029c0 -7.33301 3 -14.333 9 -21s13 -10 21 -10c49.333 0 74 76.667 74 230c0 32.667 -1 64 -3 94s-5.66699 62 -11 96c-15.333 98.667 -38 148 -68 148c-14.667 0 -22 -7 -22 -21v-516z" />
    <glyph glyph-name="E" unicode="E" horiz-adv-x="366" 
d="M298 722c9.33301 0 17 -8 23 -24c26 -76 39 -127.333 39 -154c0 -20.667 -7.66699 -31 -23 -31c-9.33301 0 -29.5 22 -60.5 66s-58.167 66 -81.5 66c-20.667 0 -31 -9.66699 -31 -29v-146c0 -17.333 10.667 -26 32 -26c6 0 12.833 6.83301 20.5 20.5
s16.834 22.5 27.501 26.5c11.333 -2 20.666 -9 27.999 -21c38 -80 57 -131.667 57 -155c0 -4 -2 -9.33301 -6 -16s-8.33301 -10 -13 -10c-11.333 0 -28 14 -50 42s-44.667 43 -68 45c-18 -8 -27 -19.333 -27 -34l1 -225c0 -30 13.667 -45 41 -45c22 0 43.667 11 65 33l43 61
c15.333 22 29 33 41 33c14 0 21 -8.33301 21 -25c0 -24 -10.667 -68.333 -32 -133l-12 -36c-4 -9.33301 -11 -15.666 -21 -18.999c-29.333 9.33301 -68.333 14 -117 14l-54 -1l-54 -1c-45.333 0 -68 7.33301 -68 22c0 6 4 14 12 24s12.667 19.333 14 28v565
c0 8 -4.66699 16.667 -14 26c-8 9.33301 -12.333 17 -13 23c0 14 13 21 39 21h196c6.66699 0 14.167 2.16699 22.5 6.5s15.833 7.16602 22.5 8.49902z" />
    <glyph glyph-name="F" unicode="F" horiz-adv-x="345" 
d="M46 639c0 6 -3.99805 13.332 -11.998 21.999s-12.667 16.334 -14 23.001c0 14 11.667 21 35 21h197c5.33301 0 12.666 2 21.999 6l22 9c11.333 -2 19.666 -11 24.999 -27l23 -77c8 -31.333 12 -58 12 -80c0 -4.66699 -2.66699 -10 -8 -16s-10.333 -9 -15 -9
c-9.33301 0 -29.333 22 -60 66s-57 66 -79 66c-16.667 0 -25 -11 -25 -33v-158c0 -4 2.16699 -8.33301 6.5 -13s9.16602 -7 14.499 -7c10 0 18.667 7 26 21c6 14 14.333 21.333 25 22c11.333 0 21 -9 29 -27l28 -72c12 -32 18 -56 18 -72c0 -5.33301 -2 -11.333 -6 -18
s-9 -10 -15 -10c-9.33301 0 -24.666 14.667 -45.999 44s-42.333 44 -63 44c-11.333 0 -17 -9 -17 -27v-273c0 -6.66699 3.66699 -13.667 11 -21l13 -16l1 -4v-5c0 -11.333 -10.333 -17 -31 -17h-124c-3.33301 0 -8 2 -14 6c-4 4 -6 8.66699 -6 14c0 6 4.33301 13.667 13 23
c9.33301 8 14 18 14 30v565z" />
    <glyph glyph-name="G" unicode="G" horiz-adv-x="408" 
d="M378 512c0 -8.66699 -2.49805 -15.998 -7.49805 -21.998s-11.833 -9.33301 -20.5 -10c-13.333 0 -32.5 27.167 -57.5 81.5s-46.5 81.5 -64.5 81.5c-41.333 0 -62 -111.333 -62 -334c0 -158 20.667 -237 62 -237c24 0 36 19.667 36 59v159
c0 13.333 -3.33301 23.333 -10 30c-10 8 -16 14.667 -18 20v5c0 14 13 21 39 21h97c20 0 30 -9 30 -27c0 -4 -4.33301 -10 -13 -18s-13.667 -17.333 -15 -28v-217c0 -6 4 -14.667 12 -26c7.33301 -8.66699 11.666 -16.667 12.999 -24c0 -12 -17.333 -22 -52 -30
c-12 -2 -23.667 -3.66699 -35 -5s-22.333 -2 -33 -2c-168.667 0 -253 102.333 -253 307c0 73.333 7.33301 139.666 22 198.999c18 77.333 47 135.666 87 174.999c33.333 32 64.666 48 93.999 48l25 -4l21 -4l21 3l22 4c12 0 21 -10.667 27 -32c22 -86 33 -143.667 33 -173z
" />
    <glyph glyph-name="H" unicode="H" horiz-adv-x="408" 
d="M168 708c16.667 0 25.0029 -6.99902 25.0029 -20.999c0 -5.33301 -4.33301 -12.333 -13 -21s-13 -19.667 -13 -33v-211h82v214c0 12 -4.16699 22 -12.5 30s-12.5 15 -12.5 21c0 4 2.66699 8.33301 8 13c5.33301 3.33301 10.666 5.66602 15.999 6.99902h124
c15.333 0 24.666 -6 27.999 -18l-1 -9l-16 -20c-6 -8 -9 -16 -9 -24v-572c0 -6 3 -13 9 -21l14 -18v-4c0 -14 -10.667 -21 -32 -21h-118c-10.667 -0 -19 6.33301 -25 19c0 6 4.33301 13.167 13 21.5s13.667 17.833 15 28.5v280h-82v-281c0 -9.33301 4 -19 12 -29
c8 -8 12 -14.667 12 -20c0 -3.33301 -3 -7.66602 -9 -12.999c-6 -4 -11.333 -6 -16 -6h-119c-20 0 -30 7.66699 -30 23c0 6 4.33301 13.333 13 22s13 18.667 13 30v555c0 14.667 -4.33301 26.167 -13 34.5s-13.334 15.166 -14.001 20.499c0 15.333 12.667 23 38 23h113z" />
    <glyph glyph-name="I" unicode="I" horiz-adv-x="194" 
d="M45 636l-1 15.001l-16 18c-6 7.33301 -9.66699 14 -11 20c0 12 10.333 18 31 18h115c19.333 0 29 -6.66699 29 -20c0 -6 -4.16699 -13.333 -12.5 -22s-12.5 -17.334 -12.5 -26.001v-567c0 -10 4.66699 -19.667 14 -29c8.66699 -7.33301 14 -15.333 16 -24
c-2 -12 -8.33301 -18 -19 -18h-132c-20 0 -30 8.33301 -30 25l21 26c5.33301 6.66699 8 18.667 8 36v548z" />
    <glyph glyph-name="J" unicode="J" 
d="M147 685c0 15.333 12.667 23.0029 38 23.0029h105c25.333 0 38 -8 38 -24c0 -6 -4.66699 -13.667 -14 -23c-9.33301 -8 -14 -18.333 -14 -31v-491c0 -46 -12.833 -82.833 -38.5 -110.5s-61.167 -41.5 -106.5 -41.5c-44.667 0 -80.167 16.167 -106.5 48.5
s-39.5 71.5 -39.5 117.5c0 34.667 6.66699 64.334 20 89.001c16.667 30.667 40.667 46 72 46c17.333 0 31 -6.83301 41 -20.5s15 -30.167 15 -49.5c0 -6.66699 -3.66699 -12.334 -11 -17.001l-20 -9c-8.66699 -4.66699 -13 -23.334 -13 -56.001
c0 -14.667 2.5 -30.334 7.5 -47.001s13.167 -25 24.5 -25c22 0 33 23.333 33 70l-1 498c0 11.333 -5 21.666 -15 30.999c-10 8 -15 15.333 -15 22z" />
    <glyph glyph-name="K" unicode="K" horiz-adv-x="408" 
d="M45 631c0 12 -4.49707 22.501 -13.4971 31.501s-14.5 17.5 -16.5 25.5l10 13l16 4h121c16 0 24 -6 24 -18c0 -6.66699 -4.5 -13.5 -13.5 -20.5s-13.5 -16.833 -13.5 -29.5v-140l56 80c28 42 42 67.667 42 77c0 4 -3 9 -9 15s-10 13 -12 21
c1.33301 5.33301 3.33301 9.33301 6 12l21 4h94c11.333 0 19 -5.66699 23 -17c0 -5.33301 -7.66699 -15 -23 -29s-24.333 -23.333 -27 -28l-55 -84l104 -475c1.33301 -6 9.66602 -20.333 24.999 -43l2 -12c-0.666992 -1.33301 -1.33398 -2.83301 -2.00098 -4.5
s-2.33398 -4.16699 -5.00098 -7.5s-5.66699 -5 -9 -5h-132c-11.333 0 -20 7.33301 -26 22c1.33301 5.33301 6 12.333 14 21c6 8 9 15 9 21l-3 24l-63 331l-32 -41l1 -293c0 -16 0.666992 -25.667 2 -29l19 -24l2 -14c0 -12 -6 -18 -18 -18h-121
c-17.333 0 -26 6.33301 -26 19v7l18 23c7.33301 7.33301 11 16.666 11 27.999v553z" />
    <glyph glyph-name="L" unicode="L" horiz-adv-x="345" 
d="M44 647c0 6 -3.66602 12.668 -10.999 20.001c-6 7.33301 -9.66699 14.666 -11 21.999c0 11.333 8.66699 17 26 17h125c16 0 24 -7.66699 24 -23c0 -5.33301 -4.66699 -11.666 -14 -18.999s-14 -17.333 -14 -30v-533c0 -19.333 8.33301 -29 25 -29
c22.667 0 48.167 24.5 76.5 73.5s49.833 73.5 64.5 73.5c13.333 0 20 -10.333 20 -31c0 -16.667 -3 -39.5 -9 -68.5s-15.667 -66.5 -29 -112.5c-4 -14 -10.667 -21.333 -20 -22h-12c-21.333 10.667 -53.333 16 -96 16l-54 -1l-55 -2c-42 0 -63 8.33301 -63 25
c1.33301 2.66699 2.66602 5.16699 3.99902 7.5s4.33301 6.5 9 12.5c8 9.33301 12.667 19.666 14 30.999v573z" />
    <glyph glyph-name="M" unicode="M" horiz-adv-x="473" 
d="M60 632c0 12 -4.16602 21.999 -12.499 29.999s-12.5 15.333 -12.5 22c0 4 2.83301 8.33301 8.5 13s11.5 7.33398 17.5 8.00098h104c17.333 0 26 -7.33301 26 -22c0 -4.66699 -2.33301 -10.334 -7 -17.001l-11 -15c0 -18 6.5 -57.333 19.5 -118s29.167 -124.667 48.5 -192
l41 198c4 27.333 10.333 58 19 92v12c0 5.33301 -3.5 12.333 -10.5 21s-11.167 16.667 -12.5 24c0 11.333 7.66699 17 23 17h109c16 0 24 -8.33301 24 -25l-3 -8c-12 -13.333 -18 -24 -18 -32v-6l41 -548c0 -6.66699 1.16699 -13 3.5 -19s6.16602 -12.333 11.499 -19
c8 -9.33301 12.333 -18 13 -26c0 -6 -4.16699 -11.167 -12.5 -15.5s-15.833 -6.5 -22.5 -6.5h-109c-6.66699 0 -12.5 2.83301 -17.5 8.5s-7.5 11.5 -7.5 17.5c0 4 3.66699 9.66699 11 17c3.33301 4 6 9 8 15s3 13.667 3 23c0 30.667 -1.33301 70 -4 118
c-6 108.667 -9 180.334 -9 215.001l-81 -340c-2 -8.66699 -7.33301 -15 -16 -19c-5.33301 2 -10 6.33301 -14 13c0 6.66699 -2 19.167 -6 37.5s-10.667 45.166 -20 80.499l-59 233l-8 -169l-5 -170c0 -14.667 3.83301 -26.667 11.5 -36s12.167 -17.666 13.5 -24.999
c0 -12 -8 -18 -24 -18l-89 -1c-14 5.33301 -21 13 -21 23c0 4 4 11.333 12 22s13 21.667 15 33l13 176c0 56.667 1.33301 108.667 4 156c8 141.333 12 212.333 12 213v9z" />
    <glyph glyph-name="N" unicode="N" horiz-adv-x="388" 
d="M43 638c0 12 -4.16797 21.8369 -12.501 29.5039s-13.5 15.167 -15.5 22.5c2 10.667 10.667 16 26 16h76c17.333 0 42 -35.667 74 -107l53 -137c4.66699 -8 9.83398 -18.833 15.501 -32.5l19.5 -45.5v248c0 14.667 -4.33301 25.667 -13 33s-13.667 14.666 -15 21.999
c0 12.667 10.667 19 32 19h80c14.667 0 22 -5.66699 22 -17c0 -7.33301 -4.5 -15.333 -13.5 -24s-13.5 -20.334 -13.5 -35.001v-616c0 -15.333 -13.333 -23 -40 -23h-11h-8c-3.33301 1.33301 -5.66602 2 -6.99902 2l-13 11l-2 18c0 29.333 -7.33301 66.666 -22 111.999
c-12 37.333 -31.667 87.666 -59 150.999l-65 151v-360c0 -12.667 4.33301 -23.167 13 -31.5s13.667 -15.833 15 -22.5c0 -14 -7.33301 -21 -22 -21h-94c-18 0 -27 9.66699 -27 29c0 4 4.16699 10 12.5 18s13.166 17.333 14.499 28v562z" />
    <glyph glyph-name="O" unicode="O" horiz-adv-x="431" 
d="M221 720c74.667 0 128.333 -57.668 161 -173.001c20 -73.333 30 -162 30 -266c0 -76 -11.667 -139.667 -35 -191c-31.333 -69.333 -80 -104 -146 -104c-135.333 0 -203 106.667 -203 320c0 90.667 12.333 174.334 37 251.001c34 108.667 86 163 156 163zM215.999 655.999
c-33.333 0 -50 -92.667 -50 -278l1 -67v-68c0 -118.667 18 -178 54 -178c38 0 57 44.667 57 134v71l-1 70c0 210.667 -20.333 316 -61 316z" />
    <glyph glyph-name="P" unicode="P" horiz-adv-x="366" 
d="M45 636c0 10.667 -3.83301 19.665 -11.5 26.998s-12.5 14.333 -14.5 21c2 16 20.333 24 55 24l15 1c47.333 0 88 -5.66699 122 -17s63.667 -30.666 89 -57.999c51.333 -55.333 77 -129.333 77 -222c0 -68 -14.833 -120.167 -44.5 -156.5s-73.834 -54.5 -132.501 -54.5
c-11.333 0 -19.666 -1.66699 -24.999 -5s-8 -11 -8 -23v-103c0 -8.66699 3 -16.667 9 -24l17 -21v-5c0 -4.66699 -2.16699 -8.66699 -6.5 -12s-10.166 -5.66602 -17.499 -6.99902h-126c-6.66699 0 -12.334 2 -17.001 6s-7.66699 9.66699 -9 17
c0 4.66699 4.66699 11.167 14 19.5s14 18.833 14 31.5v561zM166 295.998c0 -7.33301 2.99902 -15 8.99902 -23c6 -6 13.667 -9.33301 23 -10c36 0 54 48.333 54 145c0 44 -4 88 -12 132c-11.333 64 -28.666 96 -51.999 96c-14.667 0 -22 -6.66699 -22 -20v-320z" />
    <glyph glyph-name="Q" unicode="Q" horiz-adv-x="431" 
d="M388 -78c0 -11.333 -12.666 -21.333 -37.999 -30c-22 -6.66699 -39.667 -10 -53 -10c-33.333 0 -50 37.333 -50 112l-15 -1c-136.667 0 -205 102.333 -205 307c0 96.667 11 181.667 33 255c33.333 109.333 86.666 164 159.999 164c71.333 0 125 -49.667 161 -149
c24.667 -72 37 -152.667 37 -242c0 -74 -6 -133 -18 -177c-17.333 -62.667 -49 -111.667 -95 -147c4 -23.333 18.833 -42 44.5 -56s38.5 -22.667 38.5 -26zM235.001 64l3.99902 0.999023h4v20c0 44.667 -15 67 -45 67c4 21.333 14.333 32 31 32c20 0 36.333 -11.667 49 -35
c4 41.333 6 72.333 6 93v148c0 18.667 -0.333008 33.334 -1 44.001c-3.33301 52.667 -5 81.667 -5 87c0 30 -2.5 55.667 -7.5 77s-10.5 36 -16.5 44c-10 14 -20.667 21 -32 21c-27.333 0 -45.666 -36 -54.999 -108c-3.33301 -28.667 -5 -76 -5 -142v-205
c0 -96 24.333 -144 73 -144z" />
    <glyph glyph-name="R" unicode="R" horiz-adv-x="366" 
d="M139 708c65.333 0 120.998 -28.002 166.998 -84.002c43.333 -52.667 65 -112.667 65 -180c0 -64 -23.667 -115.667 -71 -155l46 -212c0.666992 -6 5.33398 -15.333 14.001 -28s14.334 -22.667 17.001 -30c-4 -12.667 -13.333 -19 -28 -19h-108
c-16.667 0 -25 6.66699 -25 20c0 7.33301 6.33301 17.333 19 30l2 9c0 24 -5.66699 57.333 -17 100l-26 101l-30 -4v-194c0 -5.33301 4 -12.333 12 -21s12 -16 12 -22c0 -4.66699 -2.66699 -8.66699 -8 -12c-4 -4 -8.66699 -6 -14 -6h-117c-6 0 -12 2.16699 -18 6.5
s-9.66699 9.5 -11 15.5c0 5.33301 4.33301 12.333 13 21s13 19.334 13 32.001v554c0 14.667 -4.16699 25.834 -12.5 33.501s-12.5 15.5 -12.5 23.5c0 14 17.667 21 53 21h65zM161.998 352.998c0 -8 2.5 -15.333 7.5 -22s11.833 -10.334 20.5 -11.001
c37.333 0 56 40.667 56 122c0 36.667 -4.33301 76.334 -13 119.001c-12 59.333 -29.667 89 -53 89c-12 0 -18 -9.33301 -18 -28v-269z" />
    <glyph glyph-name="S" unicode="S" horiz-adv-x="345" 
d="M29 543c0 41.333 11.0049 79.667 33.0049 115c25.333 39.333 58 59 98 59c7.33301 0 15.666 -1.66699 24.999 -5l24 -4l20 2l19 2c13.333 0 25 -25 35 -75c3.33301 -16.667 6 -33.5 8 -50.5s3 -31.833 3 -44.5c0 -6 -2.5 -11.333 -7.5 -16
s-10.833 -7.33398 -17.5 -8.00098c-10.667 0 -25.834 22.5 -45.501 67.5s-38.834 67.5 -57.501 67.5c-12.667 0 -23.334 -8.33301 -32.001 -25c-6 -13.333 -9 -27.666 -9 -42.999c0 -34.667 18.667 -66.667 56 -96c60.667 -49.333 95.667 -80 105 -92
c37.333 -46.667 56 -107 56 -181c0 -56 -12 -105.667 -36 -149c-28.667 -50.667 -69.334 -76 -122.001 -76c-16.667 0 -41 5 -73 15l-20 -5l-23 -4c-12 0 -20.667 12 -26 36l-25 149v5l-1 5c0 24 7.33301 36 22 36c12 0 24 -13.667 36 -41l33 -78c16 -27.333 34 -41 54 -41
c36.667 0 55 35 55 105c0 62 -16.333 112.667 -49 152l-90 84c-32 34 -48 78.667 -48 134z" />
    <glyph glyph-name="T" unicode="T" horiz-adv-x="388" 
d="M55 716c19.333 -8 34.332 -11.999 44.999 -11.999l206 1c7.33301 0 15.333 1.33301 24 4l24 5c9.33301 0 16 -10 20 -30l15 -77c2.66699 -14.667 4.66699 -28.167 6 -40.5s2 -24.833 2 -37.5c0 -22.667 -7.33301 -34 -22 -34c-11.333 0 -26.333 23.167 -45 69.5
s-35.667 69.5 -51 69.5c-12.667 0 -19 -8.33301 -19 -25v-539c0 -8.66699 3.33301 -17.5 10 -26.5s10.667 -17.167 12 -24.5c0 -4.66699 -3.33301 -9.33398 -10 -14.001l-17 -5h-120c-5.33301 0 -10.666 1.66699 -15.999 5s-8.33301 8 -9 14l4 15
c14.667 14.667 22 27.667 22 39v535c0 14 -5.33301 23.333 -16 28c-17.333 -6 -34.5 -30.333 -51.5 -73s-32.5 -64 -46.5 -64c-14.667 0 -22 10 -22 30c-0 28 8.33301 82.667 25 164c3.33301 15.333 13.333 23 30 23z" />
    <glyph glyph-name="U" unicode="U" horiz-adv-x="388" 
d="M172 707c16.667 0 25.002 -8.66406 25.002 -25.9971c0 -4 -4.33301 -9.33301 -13 -16s-13.334 -14.667 -14.001 -24l-1 -513c0 -12.667 4.33301 -24.334 13 -35.001c9.33301 -9.33301 20.666 -14 33.999 -14c33.333 0 50 22.333 50 67v494
c0 7.33301 -5 15.666 -15 24.999c-8 8.66699 -12.667 16.334 -14 23.001c0 13.333 9.33301 20 28 20h91c4.66699 0 9.5 -2 14.5 -6s7.83301 -9 8.5 -15c0 -6.66699 -4.5 -14 -13.5 -22s-13.5 -20 -13.5 -36l3 -258l3 -258c0 -39.333 -16 -71 -48 -95
c-28.667 -21.333 -63.667 -32 -105 -32c-46 0 -84.667 11 -116 33c-34 25.333 -51 60.666 -51 105.999l5 508c0 12.667 -4 22.667 -12 30s-12.667 15.666 -14 24.999c0 12.667 8.66699 19 26 19h129z" />
    <glyph glyph-name="V" unicode="V" horiz-adv-x="388" 
d="M148 705c16 0 24.001 -6.66602 24.001 -19.999c0 -3.33301 -4 -9 -12 -17c-6.66699 -5.33301 -10.334 -12 -11.001 -20c0 -18 7 -67 21 -147c12 -72.667 29 -161 51 -265l54 384l1 18c0 9.33301 -4.5 18.166 -13.5 26.499s-14.167 16.833 -15.5 25.5
c0 10 6.33301 15 19 15h112c8 0 14 -5.33301 18 -16l-3 -12l-20 -19c-6 -6 -10 -14.667 -12 -26l-108 -610c-3.33301 -20 -14 -30 -32 -30h-40c-15.333 0 -25 9.33301 -29 28l-118 621c-2 10.667 -8 19 -18 25s-15.333 13.667 -16 23c4 10.667 11.667 16 23 16h125z" />
    <glyph glyph-name="W" unicode="W" horiz-adv-x="473" 
d="M153 706c3.33301 0 7.33398 -1.66797 12.001 -5.00098s7.33398 -7.33301 8.00098 -12c0 -6.66699 -4.66699 -13.667 -14 -21s-14 -18.333 -14 -33l1 -3v-4l32 -342c15.333 98 33.333 199 54 303c5.33301 6 13.666 9 24.999 9c12 0 21.667 -1.33301 29 -4
c6.66699 -7.33301 25 -106.666 55 -297.999l27 343c0 11.333 -4.83301 20.5 -14.5 27.5s-14.5 13.833 -14.5 20.5c0 12.667 10 19 30 19h89c5.33301 0 10.166 -2 14.499 -6s6.83301 -8.66699 7.5 -14c0 -4 -4.5 -10 -13.5 -18s-15.167 -18.667 -18.5 -32v-12l-66 -607
c-1.33301 -10 -4 -15.833 -8 -17.5s-7.66699 -2.83398 -11 -3.50098s-9 -1 -17 -1h-19c-6.66699 0 -13 1 -19 3s-10.333 11.333 -13 28l-46 306l-24 -177c-14 -97.333 -23 -148.666 -27 -153.999c-7.33301 -4.66699 -17.333 -7 -30 -7c-29.333 0 -46 7.66699 -50 23l-21 157
l-61 455c-2 16 -8.66699 28.333 -20 37c-10 9.33301 -15 16.333 -15 21c0 12.667 12 19 36 19h116z" />
    <glyph glyph-name="X" unicode="X" horiz-adv-x="408" 
d="M143 371l-102.001 278.997l-15 18c-5.33301 6.66699 -8.66602 12.667 -9.99902 18c0 12.667 7.33301 19 22 19h124c19.333 0 29 -6 29 -18c0 -7.33301 -6.33301 -17 -19 -29l-1 -6c0 -18 6.66699 -45 20 -81l31 -82l28 80c14 42 21 66.667 21 74l-3 15
c-14 14 -21.667 25 -23 33c0 10 8.33301 15 25 15h89c13.333 0 22.333 -5.66699 27 -17c0 -7.33301 -5.33301 -15 -16 -23c-8.66699 -5.33301 -15.334 -15 -20.001 -29l-79 -255l112 -305l12 -23c15.333 -10 23 -20.667 23 -32c0 -4 -3 -9 -9 -15
c-4.66699 -3.33301 -10 -5.66602 -16 -6.99902h-142c-4 0 -9 2 -15 6c-3.33301 4 -5.66602 8.33301 -6.99902 13c0 8.66699 3.83301 16.834 11.5 24.501s11.5 14.5 11.5 20.5s-21.333 69.667 -64 191l-34 -99c-8 -22.667 -14.167 -41.834 -18.5 -57.501
s-6.83301 -26.834 -7.5 -33.501c0 -7.33301 3.5 -14.166 10.5 -20.499s12.167 -12.166 15.5 -17.499v-5c0 -14 -8.33301 -21 -25 -21h-107c-4 0 -8.66699 2.33301 -14 7c-4 4.66699 -6.33301 9.33398 -7 14.001c1.33301 2.66699 3 5.16699 5 7.5s7 7.5 15 15.5
c12 12 20.333 22 25 30c14.667 34.667 32 83.667 52 147z" />
    <glyph glyph-name="Y" unicode="Y" horiz-adv-x="366" 
d="M143 706c5.33301 0 10.667 -1.66504 16 -4.99805c6 -2 9 -6 9 -12s-2.33301 -12.333 -7 -19l-12 -17c0 -15.333 6 -42.333 18 -81s27 -93.334 45 -164.001c4 12 13.167 51 27.5 117s21.5 105.667 21.5 119c0 6.66699 -3.5 14 -10.5 22s-11.5 15.667 -13.5 23
c2 12 15.667 18 41 18h64c6.66699 0 13.334 -2 20.001 -6s10.667 -9.33301 12 -16c0 -8 -4.5 -15.333 -13.5 -22s-15.5 -16.667 -19.5 -30l-20 -85l-39 -161l-27 -115v-196c0 -10.667 5 -20.834 15 -30.501s15 -18.5 15 -26.5c0 -12.667 -8.66699 -19 -26 -19h-126
c-6 -0 -11.5 1.83301 -16.5 5.5s-8.16699 9.16699 -9.5 16.5c0 6 4.16699 13.167 12.5 21.5s13.166 17.833 14.499 28.5v202l-50 177l-55 194c-0.666992 4 -5.66699 11 -15 21c-8 10 -12 17.333 -12 22c0 12 10 18 30 18h111z" />
    <glyph glyph-name="Z" unicode="Z" horiz-adv-x="366" 
d="M229 645l-19.002 -2.00098c-30 -4 -55.333 -17.333 -76 -40l-39 -60c-13.333 -20.667 -26.666 -31 -39.999 -31s-20 9.66699 -20 29c0 33.333 13.667 84.333 41 153c6 17.333 16 26 30 26c6 0 13 -2.66699 21 -8l20 -7h178c26 0 39 -7.66699 39 -23
c0 -8 -14 -51 -42 -129l-115 -320l-61 -169l19 -1c18 0 33.5 2.5 46.5 7.5s25.833 13.833 38.5 26.5c7.33301 7.33301 23 30 47 68c15.333 25.333 30 38 44 38c16.667 0 25 -11.333 25 -34c0 -21.333 -13.667 -68.666 -41 -141.999l-9 -25c-4.66699 -12 -12 -18.333 -22 -19
l-12 1c-15.333 13.333 -45.333 20 -90 20l-60 -2l-60 -2c-22 0 -39.333 1.66699 -52 5c-5.33301 4.66699 -8.66602 11.667 -9.99902 21c0 7.33301 13.333 49 40 125z" />
    <glyph glyph-name="bracketleft" unicode="[" horiz-adv-x="237" 
d="M58 687c0 7.33301 3.66699 13.333 11 18l15 2h134c15.333 0 23 -7.66699 23 -23c0 -18.667 -12.667 -28 -38 -28l-22 1l-23 2v-748l26 2l25 1c22.667 0 34 -11 34 -33c0 -14.667 -6.66699 -22 -20 -22h-143c-14.667 0 -22 9 -22 27v801z" />
    <glyph glyph-name="backslash" unicode="\" horiz-adv-x="278" 
d="M-17 737h66l246 -756h-67z" />
    <glyph glyph-name="bracketright" unicode="]" horiz-adv-x="237" 
d="M178 707l5 -1l5 -2c4 -8 6 -14.667 6 -20v-802c0 -14.667 -8.33301 -22 -25 -22h-138c-12.667 0 -19 8 -19 24c0 19.333 12.333 29 37 29l23 -1l22 -2v748l-24 -2l-24 -1c-24 0 -36 10 -36 30c0 14.667 8.33301 22 25 22h143z" />
    <glyph glyph-name="asciicircum" unicode="^" horiz-adv-x="0" 
d="M-23 901l32.001 -0.000976562c10.667 0 18.667 -4 24 -12l8 -13l9 -12c12.667 -19.333 29.667 -48.666 51 -87.999v-4l-2 -9c-10 -16 -26.667 -24 -50 -24c-8.66699 0 -20.667 14 -36 42l-27 57l-21 -56c-12 -27.333 -23 -41 -33 -41c-7.33301 0 -14.333 1.66699 -21 5
c-8.66699 2.66699 -13.334 7.33398 -14.001 14.001c0 15.333 17.333 56.666 52 123.999c6 11.333 15.333 17 28 17z" />
    <glyph glyph-name="underscore" unicode="_" horiz-adv-x="556" 
d="M0 -125v50h556v-50h-556z" />
    <glyph glyph-name="grave" unicode="`" horiz-adv-x="0" 
d="M-36 681c16 0 29.668 -9.83301 41.001 -29.5s30.333 -56.5 57 -110.5c0 -8 -5 -12 -15 -12c-20.667 0 -45.334 14.333 -74.001 43l-47 46c-22 24 -33.333 40.667 -34 50c0 8.66699 8.33301 13 25 13h47z" />
    <glyph glyph-name="a" unicode="a" horiz-adv-x="301" 
d="M175 357c0 42 -12.0039 63 -36.0039 63c-8 0 -17.667 -5 -29 -15c15.333 -12 23 -24 23 -36s-5.16699 -23.167 -15.5 -33.5s-22.166 -15.5 -35.499 -15.5s-24.666 6 -33.999 18c-2.66699 4 -5 8.33301 -7 13c-4 9.33301 -6 18.666 -6 27.999c0 30.667 12 54.167 36 70.5
s51.667 24.5 83 24.5c81.333 0 122 -44 122 -132v-258c0 -8 5.33301 -14.167 16 -18.5s16.334 -11.166 17.001 -20.499c0 -35.333 -18 -53 -54 -53c-24 0 -47 15.333 -69 46c-26 -30 -51 -45 -75 -45c-27.333 0 -51 13.333 -71 40c-16 24 -24 51.333 -24 82
c0 51.333 13.833 94 41.5 128s66.834 55.333 117.501 64v50zM177.996 258c-28 -12 -47 -27.002 -57 -45.002c-6.66699 -15.333 -10 -39.666 -10 -72.999c0 -48 10.667 -72 32 -72c10 0 18.333 5.83301 25 17.5s10 22.834 10 33.501v139z" />
    <glyph glyph-name="b" unicode="b" 
d="M114 706c13.333 0 20.001 -8.66602 20.001 -25.999v-259c15.333 36.667 37 55 65 55c37.333 0 67 -38.333 89 -115c15.333 -56 23 -110.333 23 -163c0 -138 -38.333 -207 -115 -207c-20.667 0 -39.167 8.33301 -55.5 25s-28.833 25.667 -37.5 27
c-4 -2 -10.5 -10.167 -19.5 -24.5s-18.167 -21.833 -27.5 -22.5c-12.667 0 -19 9.66699 -19 29l1 565c0 8 -4.16699 17.167 -12.5 27.5s-12.833 17.166 -13.5 20.499c0 10 14.167 23.833 42.5 41.5s48.166 26.5 59.499 26.5zM176.001 91.001c30 0 45 46.333 45 139v39
c0 95.333 -14.333 143 -43 143c-29.333 0 -44 -68 -44 -204c0 -78 14 -117 42 -117z" />
    <glyph glyph-name="c" unicode="c" horiz-adv-x="258" 
d="M181 301c-3.33301 3.33301 -6.99902 26.0029 -10.999 68.0029c0 32.667 -9 49 -27 49c-28.667 0 -43 -36 -43 -108c0 -39.333 5.33301 -79.333 16 -120c14 -57.333 34.333 -86 61 -86c17.333 0 28.166 11.333 32.499 34s13.5 34 27.5 34c9.33301 0 17 -6.66699 23 -20
c4 -10 6 -21 6 -33c0 -33.333 -9.83301 -62.833 -29.5 -88.5s-45.167 -38.5 -76.5 -38.5c-48 0 -84.333 25.667 -109 77c-18.667 41.333 -28 88.666 -28 141.999c0 56.667 10.667 110.667 32 162c27.333 68 64.333 102 111 102c25.333 0 47 -10.833 65 -32.5
s27 -45.834 27 -72.501c0 -10.667 -10.167 -24.834 -30.5 -42.501s-35.833 -26.5 -46.5 -26.5z" />
    <glyph glyph-name="d" unicode="d" 
d="M197 596c0 9.33301 -5.16797 19 -15.501 29s-15.5 16.667 -15.5 20c0 4 1.66699 8.66699 5 14l54 30c26.667 13.333 44.667 20 54 20c4 0 7.66699 -1.66699 11 -5l4 -21v-548c0 -22.667 2.66699 -37.667 8 -45l16 -30c-0.666992 -10 -15.5 -23.833 -44.5 -41.5
s-49.167 -26.5 -60.5 -26.5c-7.33301 0 -12.666 9 -15.999 27l-1 36c-17.333 -42 -41.666 -63 -72.999 -63c-66 0 -99 62.333 -99 187c0 66 6.66699 124.667 20 176c20 80 52.333 120 97 120c17.333 0 35.666 -13 54.999 -39zM148.999 90l11 -2.00098
c24.667 0 37 34.667 37 104c0 148 -16 222 -48 222c-22 0 -33 -25.333 -33 -76l-2 -100c0 -79.333 11.667 -128.666 35 -147.999z" />
    <glyph glyph-name="e" unicode="e" horiz-adv-x="258" 
d="M176 100c15.333 0 27 9 35 27s16.333 27 25 27c16 0 24 -12.333 24 -37c0 -33.333 -8.5 -62.166 -25.5 -86.499s-41.833 -36.5 -74.5 -36.5c-45.333 0 -81 23 -107 69c-20 37.333 -30 81.666 -30 132.999c0 57.333 9 113.666 27 168.999c24 74 59.333 111 106 111
c36 0 64 -19 84 -57c16.667 -31.333 25 -66.333 25 -105v-12c0 -5.33301 -0.666992 -10.666 -2 -15.999c0 -11.333 -11 -22.333 -33 -33l-46 -18l-68 -37c14 -65.333 34 -98 60 -98zM108 241c42 22 63 50.332 63 84.999c0 12.667 -0.333008 22.334 -1 29.001
s-2.66699 16.667 -6 30c-6 26.667 -16 40 -30 40c-21.333 0 -32 -27.333 -32 -82z" />
    <glyph glyph-name="f" unicode="f" horiz-adv-x="194" 
d="M51 466c-11.333 32.667 -17.002 68.0029 -17.002 106.003c0 36 10.333 68.667 31 98s49 44 85 44c20.667 0 37.667 -7.66699 51 -23c6.66699 -6.66699 12 -14.334 16 -23.001s6 -18.334 6 -29.001c0 -36.667 -15.667 -55 -47 -55c-19.333 0 -35.666 18 -48.999 54
c-3.33301 2 -8 3.66699 -14 5c-7.33301 0 -11 -11.667 -11 -35c0 -8.66699 1.33301 -19.334 4 -32.001s7 -26.667 13 -42c9.33301 -25.333 20.333 -48 33 -68l17 1l16 1c25.333 0 38 -8.66699 38 -26c0 -19.333 -12.333 -29 -37 -29l-15 1h-15v-347
c0 -10.667 4 -19.667 12 -27c8 -6 12 -13 12 -21c0 -3.33301 -3 -7.66602 -9 -12.999c-3.33301 -2 -8.33301 -3.66699 -15 -5h-105c-3.33301 0 -9 2 -17 6c-6 4 -9 8.33301 -9 13c0 9.33301 7.66699 18.666 23 27.999l5 30v338h-8c-13.333 0 -22.666 1.5 -27.999 4.5
s-9.33301 10.5 -12 22.5c4 12 9.66699 19.333 17 22z" />
    <glyph glyph-name="g" unicode="g" horiz-adv-x="302" 
d="M25 102c0 26 22.666 51.668 67.999 77.001c-39.333 26 -59 68.333 -59 127c0 49.333 11.667 89 35 119c26 34.667 62.667 52 110 52c9.33301 66 35.333 99 78 99c30.667 0 46 -16.333 46 -49c0 -15.333 -9 -26 -27 -32c-7.33301 -2 -23 -3 -47 -3
c-8 0 -14.333 -7.66699 -19 -23c59.333 -30 89 -87.333 89 -172c0 -41.333 -12.667 -74.333 -38 -99s-59.666 -40 -102.999 -46l-27 -4c-10.667 -2 -16.334 -7.66699 -17.001 -17c0 -8.66699 18 -18.667 54 -30c46 -12 79 -25 99 -39c36 -24 54 -58.667 54 -104
c0 -37.333 -14.333 -67.333 -43 -90s-62 -34 -100 -34c-39.333 0 -73.666 8 -102.999 24c-34 20 -51 49 -51 87c0 30.667 19 58 57 82c-12.667 6 -25.167 16.667 -37.5 32s-18.5 29.666 -18.5 42.999zM118.999 16.001c-10 -30 -15 -48.001 -15 -54.001
c0 -22.667 6 -41.167 18 -55.5s28.333 -21.5 49 -21.5c13.333 0 26.833 3.83301 40.5 11.5s20.5 18.5 20.5 32.5c0 26.667 -12.667 47.334 -38 62.001c-4.66699 2.66699 -13.167 6 -25.5 10s-28.833 9 -49.5 15zM166.999 202c22.667 0 34 33.667 34 101
c0 86.667 -11 130 -33 130c-26 0 -39 -29 -39 -87v-47c0 -14.667 0.666992 -26.667 2 -36c4 -40.667 16 -61 36 -61z" />
    <glyph glyph-name="h" unicode="h" 
d="M129 704c4.66699 0 9 -4.00293 13 -12.0029c3.33301 -31.333 5 -65.666 5 -102.999l-2 -84l-1 -84c11.333 36 29.333 54 54 54c44.667 0 77 -56.333 97 -169c6 -34.667 10.833 -69.5 14.5 -104.5s5.5 -75.833 5.5 -122.5c0 -21.333 6.66699 -41.333 20 -60
c-3.33301 -12 -10 -18.333 -20 -19h-101c-14 0 -21 6.66699 -21 20l2 6c14 13.333 21 27.333 21 42l-12 178c0 42 -4 74.167 -12 96.5s-18 33.5 -30 33.5l-6 -3c-8 -4 -12 -15.667 -12 -35v-277c0 -9.33301 3.33301 -17.333 10 -24c6.66699 -5.33301 11 -11.333 13 -18
c-4 -12 -12.667 -18 -26 -18h-103c-12.667 0 -19 5.66699 -19 17c0 4.66699 3.83301 11.334 11.5 20.001s11.5 18 11.5 28l-1 524c0 11.333 -4 22 -12 32l-11 19c0 8.66699 15.5 21.334 46.5 38.001s52.5 25 64.5 25z" />
    <glyph glyph-name="i" unicode="i" horiz-adv-x="173" 
d="M129 474c4 0 9.66699 -2.66699 17 -8c4 -14 6 -42 6 -84c0 -10 -0.833008 -30.333 -2.5 -61s-2.5 -53.667 -2.5 -69l-4 -130c0 -40.667 2.33301 -64.667 7 -72c6 -4.66699 13 -14.667 21 -30c-3.33301 -12.667 -11.666 -19 -24.999 -19h-105
c-8.66699 0 -15.334 5.33301 -20.001 16l1 8l14 18c4 5.33301 6.66699 12.333 8 21v299c0 6 -3.33301 13.333 -10 22l-16 19c0 10 16 24.167 48 42.5s53 27.5 63 27.5zM32 627c0 17.333 9.16699 34.667 27.5 52s36.5 26 54.5 26c12 0 22.5 -4.16699 31.5 -12.5
s13.5 -18.5 13.5 -30.5c0 -20.667 -8.66699 -39.667 -26 -57c-16 -17.333 -34.333 -26 -55 -26c-30.667 0 -46 16 -46 48z" />
    <glyph glyph-name="j" unicode="j" horiz-adv-x="173" 
d="M28 -68c13.333 0 20 9.66699 20 29v392c0 8 -3.66699 15.333 -11 22l-20 15v5l-1 4c0 4 17.5 17 52.5 39s56.5 33.667 64.5 35c12 0 18 -8.33301 18 -25v-521c0 -23.333 -7 -43.333 -21 -60s-33 -25 -57 -25c-45.333 0 -68 21 -68 63c0 8 3 18.667 9 32
c3.33301 -2 8 -3.66699 14 -5zM120 702c11.333 0 21.667 -4 31 -12s14 -18 14 -30c0 -21.333 -8.5 -41.5 -25.5 -60.5s-35.833 -28.5 -56.5 -28.5c-30 0 -45 15 -45 45c0 20.667 8.66699 40.167 26 58.5s36 27.5 56 27.5z" />
    <glyph glyph-name="k" unicode="k" 
d="M142 304c44 64 66 101.333 66 112l-3 6c-2.66699 4 -7 9 -13 15l-3 11c4 11.333 12.333 17 25 17h74c14 0 23.333 -6.66699 28 -20l-1 -7l-35 -39l-44 -68l64 -256l15 -32l14 -26c0 -11.333 -9.66699 -17 -29 -17h-71c-9.33301 0 -16 7.66699 -20 23
c-10.667 55.333 -26 120.666 -46 195.999l-19 -31v-129c0 -6 5 -16.667 15 -32l2 -9c0 -4 -3 -8 -9 -12s-11 -6 -15 -6h-93c-4 0 -8.5 1.83301 -13.5 5.5s-8.16699 7.83398 -9.5 12.501c0 5.33301 3 11.5 9 18.5s9.66699 14.167 11 21.5v543c0 8 -6.66699 18.667 -20 32
l-4 9c0.666992 6.66699 17 19.167 49 37.5s53 27.833 63 28.5c8.66699 0 13 -10 13 -30v-374z" />
    <glyph glyph-name="l" unicode="l" horiz-adv-x="172" 
d="M42 601c0 7.33301 -2.33301 13.334 -7 18.001l-13 16v4l-1 3l1 4c0.666992 6 16.667 17.5 48 34.5s51.333 26.167 60 27.5c11.333 0 17 -6.33301 17 -19l-1 -213l-1 -213c0 -16.667 0.333008 -41 1 -73s1 -55.667 1 -71v-68c0.666992 -2 1.66699 -4.16699 3 -6.5
s3.33301 -5.5 6 -9.5c5.33301 -6.66699 8.66602 -13 9.99902 -19c0 -10.667 -9 -16 -27 -16h-98c-11.333 0 -18.666 6 -21.999 18c0 6 4 13 12 21c6 7.33301 9.66699 15.666 11 24.999v537z" />
    <glyph glyph-name="m" unicode="m" horiz-adv-x="473" 
d="M130 473l11 -6.00391c2.66699 -2.66699 4 -32.667 4 -90c4 22 13 43 27 63c16.667 22.667 35 34 55 34c33.333 0 56.333 -24.667 69 -74c12 48.667 31.667 73 59 73c30 0 54 -29.333 72 -88c6 -20 11.167 -44 15.5 -72s8.83301 -63 13.5 -105l9 -136
c0 -13.333 2.66699 -23.666 8 -30.999l11 -25c-4 -10.667 -14 -16 -30 -16h-83c-4.66699 0 -9.33398 1.5 -14.001 4.5s-7.66699 6.5 -9 10.5c0 6 3.33301 12.333 10 19s10 17.667 10 33c0 55.333 -3 115 -9 179c-9.33301 90 -22 135 -38 135c-14 0 -21 -10.667 -21 -32v-289
c0 -5.33301 3 -13 9 -23l11 -18c-2 -12.667 -11.667 -19 -29 -19h-77c-19.333 0 -29 6.33301 -29 19c0 5.33301 2.83301 12 8.5 20s8.5 15 8.5 21v289c0 23.333 -7.66699 35 -23 35c-21.333 0 -32 -36 -32 -108v-217c0 -8.66699 6.66699 -19.667 20 -33l2 -9
c-2.66699 -9.33301 -8.66699 -14.666 -18 -15.999h-100c-9.33301 0 -16.666 5 -21.999 15c0 3.33301 3 9.33301 9 18s9 20 9 34v295c0 8 -3.33301 16.333 -10 25l-12 19l3 11c4.66699 4.66699 21 14.834 49 30.501s45.667 23.834 53 24.501z" />
    <glyph glyph-name="n" unicode="n" 
d="M126 472c9.33301 0 16 -8 20 -24l3 -37c14 42.667 33.333 64 58 64c27.333 0 50 -30.333 68 -91c12.667 -42 23 -103 31 -183l11 -137c0 -6.66699 3.16699 -14.5 9.5 -23.5s9.83301 -16.833 10.5 -23.5c-6.66699 -10.667 -16.667 -16 -30 -16h-88
c-15.333 0 -23 6.33301 -23 19c0 4 5 11.667 15 23c2 5.33301 3 13 3 23c0 29.333 -4.66699 85.833 -14 169.5s-17.333 128.834 -24 135.501l-5 3l-5 3c-13.333 -2 -20 -15.333 -20 -40l-2 -180c0 -54.667 1 -90 3 -106l19 -29v-4c0 -11.333 -9.33301 -17 -28 -17h-89
c-17.333 0 -26 6.33301 -26 19c0 4 3.83301 10.667 11.5 20s11.5 18 11.5 26v296c0 7.33301 -3.5 15.166 -10.5 23.499s-11.167 14.5 -12.5 18.5c0 9.33301 14.5 23 43.5 41s48.833 27 59.5 27z" />
    <glyph glyph-name="o" unicode="o" horiz-adv-x="302" 
d="M161 479c43.333 0 77.332 -31.333 101.999 -94c18 -47.333 27 -97.333 27 -150c0 -58 -7.66699 -108 -23 -150c-22 -61.333 -56 -92 -102 -92c-45.333 0 -81.666 29 -108.999 87c-20 44 -30 93.333 -30 148c0 56 9 108 27 156c24 63.333 60 95 108 95zM198.999 97
c7.33301 0 13.1689 3.16797 17.502 9.50098s7.16602 14.166 8.49902 23.499c0 16.667 -2.66699 36.334 -8 59.001s-14.333 52.334 -27 89.001c-26 76 -50.667 114 -74 114c-8.66699 0 -15.334 -3.33301 -20.001 -10s-7.66699 -14.667 -9 -24
c0 -12.667 2.66699 -29.834 8 -51.501s14.333 -51.167 27 -88.5c24 -72.667 44.333 -112.334 61 -119.001z" />
    <glyph glyph-name="p" unicode="p" 
d="M124 473c8.66699 0 14.668 -6.99902 18.001 -20.999l2 -31c13.333 35.333 31.333 53 54 53c38 0 68 -38.333 90 -115c15.333 -56 23 -110.333 23 -163c0 -49.333 -6 -91.666 -18 -126.999c-17.333 -51.333 -46 -77 -86 -77c-17.333 0 -31.333 6.66699 -42 20l-24 42v-142
c0 -12.667 4 -25 12 -37l13 -21c-0.666992 -1.33301 -1.66699 -3 -3 -5s-3.33301 -3.66699 -6 -5l-14 -5h-97c-19.333 0 -29 8 -29 24l14 21c4 6 6.66699 14.667 8 26v448c0 10 -4 19 -12 27c-6 7.33301 -9.66699 13.666 -11 18.999l3 10c4 7.33301 20.333 18.333 49 33
l25 13c11.333 5.33301 21.666 9.66602 30.999 12.999zM174.001 89.001c29.333 0 44 59.667 44 179c0 99.333 -13 149 -39 149c-26.667 0 -40 -52 -40 -156c0 -114.667 11.667 -172 35 -172z" />
    <glyph glyph-name="q" unicode="q" 
d="M319 -132l2.99902 -8c0 -13.333 -10 -21 -30 -23l-53 -3c-43.333 0 -65 7.33301 -65 22c0 6 4.5 12.833 13.5 20.5s13.5 18.167 13.5 31.5v155l-24 -49c-11.333 -14.667 -27.333 -22 -48 -22c-37.333 0 -65.666 22 -84.999 66c-12.667 34 -19 72.667 -19 116
c0 62.667 10 123.667 30 183c27.333 79.333 66 119 116 119c12 0 26 -4 42 -12s25.667 -12 29 -12l7 3c10 12 19 18 27 18c16 0 24 -14.333 24 -43v-526c0 -12 6.33301 -24 19 -36zM158.999 93c28.667 0 43 45 43 135c0 128.667 -13 193 -39 193
c-31.333 0 -47 -58.333 -47 -175c0 -102 14.333 -153 43 -153z" />
    <glyph glyph-name="r" unicode="r" horiz-adv-x="257" 
d="M45 361c0 8 -3.49902 16.666 -10.499 25.999s-11.167 16.333 -12.5 21c0 8 14.667 20.5 44 37.5s49.666 26.167 60.999 27.5c14.667 0 22 -17.667 22 -53l-2 -25l-2 -26c26 70 60.333 105 103 105c21.333 0 32 -11.333 32 -34l-3 -46l-5 -47
c-0.666992 -10.667 -6.33398 -18 -17.001 -22c-8 0 -14.667 7.33301 -20 22s-12.666 22.667 -21.999 24c-20 0 -37 -21.667 -51 -65c-10.667 -36 -16 -67 -16 -93v-133c0 -18 3.66699 -31 11 -39c8 -7.33301 12.333 -14.666 13 -21.999c-4 -12 -12 -18 -24 -18h-106
c-12.667 0 -19 5.66699 -19 17c0 4 4 10.333 12 19s12 18 12 28v296z" />
    <glyph glyph-name="s" unicode="s" horiz-adv-x="279" 
d="M33 370c0 29.333 11.167 54.501 33.5 75.501s48.5 31.5 78.5 31.5l34 -4l35 -4l15 1l5 -2c6 -8 12.167 -24.333 18.5 -49s9.5 -44 9.5 -58c0 -15.333 -6.33301 -23 -19 -23c-10 0 -22.833 13.167 -38.5 39.5s-33.167 39.5 -52.5 39.5c-22 0 -33 -14.667 -33 -44
c0 -16 14.333 -33.333 43 -52c38 -24.667 64.667 -44.667 80 -60c28.667 -32 43 -70.667 43 -116c0 -47.333 -11.833 -84.833 -35.5 -112.5s-58.5 -41.5 -104.5 -41.5c-6 0 -15.667 2.33301 -29 7l-28 7l-15 -2l-14 -2c-11.333 0 -20.333 17.667 -27 53
c-2 13.333 -3.66699 25.166 -5 35.499s-2 20.833 -2 31.5c0 20 6.66699 30 20 30c10.667 0 23 -16 37 -48s32.333 -48 55 -48c30 0 45 20.667 45 62c0 32.667 -13 61 -39 85l-71 60c-26 28 -39 64 -39 108z" />
    <glyph glyph-name="t" unicode="t" horiz-adv-x="194" 
d="M119 621c16 0 24.001 -9.00195 24.001 -27.002v-130l17 1l16 1c26.667 0 40 -9 40 -27c0 -19.333 -12 -29 -36 -29l-18 1l-17 1v-287c0 -36 10 -54 30 -54c6.66699 2 11.667 3.66699 15 5c7.33301 4 13.333 6 18 6c10 0 15 -8.66699 15 -26s-10 -32 -30 -44
c-16 -10 -34 -15 -54 -15c-28.667 0 -52 7.83301 -70 23.5s-27 37.5 -27 65.5v327l-14 -1c-8.66699 0 -15.334 6.33301 -20.001 19c0 8.66699 3.66699 16.667 11 24c32.667 38.667 57.667 84.334 75 137.001c6 18.667 14.333 28.334 25 29.001z" />
    <glyph glyph-name="u" unicode="u" 
d="M125 473l5 -2c6.66699 -4.66699 10 -42 10 -112l-2 -102l-1 -101c0 -47.333 6.66699 -71 20 -71c11.333 0 21.666 9 30.999 27c6.66699 16.667 10 31.334 10 44.001v200v6l-2 5l-14 22l-12 20c0 9.33301 16 22.666 48 39.999s53.667 26 65 26
c9.33301 0 14 -6.33301 14 -19v-328c0 -12.667 0.333008 -21.834 1 -27.501s3 -13.167 7 -22.5c0.666992 -6 6 -16.667 16 -32c0 -5.33301 -1.66699 -10.333 -5 -15s-18.166 -12 -44.499 -22s-43.5 -15.667 -51.5 -17c-16.667 0 -25 15.667 -25 47
c0 9.33301 0.666992 15.333 2 18c-18 -42.667 -45.667 -64 -83 -64c-24.667 0 -44 13.667 -58 41c-11.333 21.333 -17 46 -17 74v251c0 11.333 -3.33301 21.5 -10 30.5s-10.667 17.167 -12 24.5l2 6c2 4.66699 18.167 14.334 48.5 29.001s49.5 22.667 57.5 24z" />
    <glyph glyph-name="v" unicode="v" horiz-adv-x="279" 
d="M138 444l-9 -15.001c-4 -6.66699 -6.66699 -13.667 -8 -21c0 -26 5.33301 -62.667 16 -110l25 -111l24 112c9.33301 46.667 14 83.667 14 111c0 4 -3 10.667 -9 20l-9 18c2 12.667 20.667 19 56 19c38 0 57 -6.33301 57 -19c0 -6.66699 -2.66699 -13.667 -8 -21l-12 -20
l-25 -102l-34 -186l-11 -70c-6.66699 -31.333 -17.667 -48.666 -33 -51.999l-16 -1c-24.667 0 -40 8 -46 24l-17 60c-7.33301 30 -17.666 79 -30.999 147l-19 103c-10.667 51.333 -19.834 81.833 -27.501 91.5s-12.167 17.167 -13.5 22.5c0 16 24 24 72 24
c42.667 0 64 -8 64 -24z" />
    <glyph glyph-name="w" unicode="w" horiz-adv-x="473" 
d="M123 466c13.333 0 19.9971 -7 19.9971 -21l-15 -24l-2 -8c0 -22.667 6 -59.667 18 -111l27 -114l23 110c8.66699 48 13 85 13 111c0 8 -3.66699 15.333 -11 22c-6 6.66699 -9.66699 12.334 -11 17.001c0 12 7.33301 18 22 18h101c8.66699 0 14.667 -6 18 -18l-3 -10
l-13 -15l-2 -21c0 -8.66699 4.66699 -36.5 14 -83.5s19 -90.5 29 -130.5l24 114c10 48 15 85.667 15 113c-0.666992 2.66699 -1.66699 5 -3 7s-3.33301 4.66699 -6 8l-11 15v4c0 11.333 6 17 18 17h73c11.333 0 18 -5.33301 20 -16c0 -4.66699 -4 -12.334 -12 -23.001
s-13 -19 -15 -25l-72 -379c-3.33301 -18 -18.666 -27 -45.999 -27c-24 0 -38 10.333 -42 31l-47 254l-42 -254c-3.33301 -20.667 -17.666 -31 -42.999 -31s-40.666 7 -45.999 21l-21 88l-48 201l-20 100c-0.666992 5.33301 -4.66699 12 -12 20l-13 18v4
c0 12 8.33301 18 25 18h96z" />
    <glyph glyph-name="x" unicode="x" horiz-adv-x="279" 
d="M92 254l-62.998 149l-14 22c-6 8.66699 -9.66699 15.334 -11 20.001c0 16 27.667 24 83 24c34.667 0 52 -8 52 -24l-9 -25c0 -12 3.33301 -25.667 10 -41l19 -41c16 44 24 70.667 24 80c0 3.33301 -3 8.33301 -9 15s-9 12 -9 16c0 12 24.333 18 73 18
c16 0 28.667 -2.33301 38 -7l7 -11l-2 -7l-25 -30c-4 -8.66699 -9 -20.667 -15 -36c-8.66699 -22 -14.334 -37 -17.001 -45l-27 -83l79 -189l13 -20c6 -8 9 -14.667 9 -20c0 -12 -7.33301 -18 -22 -18h-97c-12.667 0 -19 7 -19 21c2.66699 7.33301 7.66699 14.666 15 21.999
v4l-43 107l-19 -51c-7.33301 -20.667 -11 -37.667 -11 -51c0 -4.66699 2.66699 -10.667 8 -18c6 -6 9 -12 9 -18c0 -3.33301 -1.83301 -6.5 -5.5 -9.5s-8.16699 -5.16699 -13.5 -6.5h-80c-7.33301 0 -13.333 4.66699 -18 14c1.33301 6 5.66602 14.333 12.999 25l13 23z" />
    <glyph glyph-name="y" unicode="y" horiz-adv-x="279" 
d="M123 467c11.333 0 16.999 -6.33496 16.999 -19.002c0 -0.666992 -0.333008 -2.16699 -1 -4.5s-3 -6.16602 -7 -11.499s-6.66699 -11.666 -8 -18.999c0 -25.333 5 -60.666 15 -105.999l23 -106l23 104c9.33301 45.333 14 79.666 14 102.999c0 8 -6.33301 18.667 -19 32
l-3 11c0 10.667 8 16 24 16h72c9.33301 0 16 -5.33301 20 -16c0 -6 -4 -13.167 -12 -21.5s-13 -16.833 -15 -25.5l-24 -135l-30 -159c-9.33301 -50.667 -20.666 -107.667 -33.999 -171c-6.66699 -35.333 -20 -60 -40 -74c-16.667 -11.333 -44 -17 -82 -17
c-18 0 -29 10.667 -33 32l-14 81c0 3.33301 3 10 9 20l7 3c8 0 17 -7.16699 27 -21.5s20 -21.5 30 -21.5c22 0 33 19.667 33 59c0 12 -0.666992 20 -2 24l-88 385c-2 9.33301 -8.33301 19 -19 29l-4 10c0 12.667 9 19 27 19h94z" />
    <glyph glyph-name="z" unicode="z" horiz-adv-x="258" 
d="M161 417l-27 -0.00195312c-24 0 -43.167 -13.167 -57.5 -39.5s-26.5 -40.166 -36.5 -41.499c-10.667 0 -16 8.33301 -16 25c0 4.66699 1 11.334 3 20.001s5.33301 20.667 10 36c9.33301 27.333 17 44.333 23 51l9 2l103 -4c53.333 0 82.666 -2.66699 87.999 -8
c6 -4 9 -9.33301 9 -16c0 -12 -22.667 -73.333 -68 -184l-83 -207h21c20.667 0 39 8.33301 55 25l30 45c10 16 20.333 24.333 31 25c12.667 0 19 -7.66699 19 -23c0 -13.333 -10 -51 -30 -113c-3.33301 -11.333 -9.66602 -18.333 -18.999 -21
c-16.667 7.33301 -42.667 11 -78 11l-33 -1h-34c-48.667 0 -73 9.66699 -73 29c0 6.66699 23.333 67.667 70 183z" />
    <glyph glyph-name="braceleft" unicode="{" horiz-adv-x="334" 
d="M42 294c36 0 59.998 22.3359 71.998 67.0029c2.66699 10 4.66699 24.667 6 44s2 42 2 68l-1 43c0 31.333 0.666992 57.166 2 77.499s4.33301 38.166 9 53.499c15.333 50 46.333 75 93 75h67v-65h-44c-30.667 0 -46 -27.333 -46 -82v-113l-1 -57
c0 -28 -8.16699 -56.333 -24.5 -85s-37.166 -47 -62.499 -55c58.667 -19.333 88 -86.333 88 -201l-1 -87c0 -72 15.667 -108 47 -108h44v-65h-67c-31.333 0 -56.166 13.167 -74.499 39.5s-27.5 56.166 -27.5 89.499v171c0 29.333 -6 57 -18 83c-14 31.333 -35 47 -63 47v60z
" />
    <glyph glyph-name="bar" unicode="|" horiz-adv-x="260" 
d="M94 737h73v-756h-73v756z" />
    <glyph glyph-name="braceright" unicode="}" horiz-adv-x="334" 
d="M292 234c-27.333 0 -48.333 -15.665 -63 -46.998c-12 -24 -18 -51.667 -18 -83v-171c0 -33.333 -8.33301 -62.333 -25 -87c-19.333 -28 -45 -42 -77 -42h-67v65h44c30.667 0 46 36 46 108l-1 86c0 50.667 4.33301 90 13 118c12.667 42.667 38 70 76 82
c-25.333 8 -46.666 27.333 -63.999 58c-8.66699 15.333 -14.834 29.166 -18.501 41.499s-5.5 26.166 -5.5 41.499v171c0 54.667 -15.333 82 -46 82h-44v65h67c50.667 0 83 -31.333 97 -94c4 -21.333 6 -73 6 -155c0 -54 2.66699 -91.333 8 -112
c11.333 -44.667 35.333 -67 72 -67v-60z" />
    <glyph glyph-name="asciitilde" unicode="~" horiz-adv-x="0" 
d="M-157 809c18.667 25.333 32.3311 41.666 40.998 48.999c15.333 12 35.333 18 60 18c16.667 0 40.834 -5.33301 72.501 -16s54.834 -16 69.501 -16c14 0 25.5 4.33301 34.5 13s15.833 13.334 20.5 14.001c8.66699 0 13 -6 13 -18c0 -20 -11 -38.667 -33 -56
c-21.333 -15.333 -43.333 -23 -66 -23c-16 0 -40 6 -72 18s-56.333 18 -73 18c-12.667 0 -23.667 -4.16699 -33 -12.5s-17 -12.833 -23 -13.5c-4 2 -6.66699 3.66699 -8 5l-4 8z" />
    <glyph glyph-name="nonbreakingspace" unicode="&#xa0;" horiz-adv-x="500" 
 />
    <glyph glyph-name="exclamdown" unicode="&#xa1;" horiz-adv-x="194" 
d="M96 531c4.66699 0 8.66699 -1.66699 12 -5c7.33301 -12.667 17 -79.334 29 -200.001c0 -29.333 2.33301 -67.666 7 -114.999s8 -83.333 10 -108l2 -36c0 -17.333 -6 -33.333 -18 -48s-26.667 -22 -44 -22c-19.333 0 -34.5 7.66699 -45.5 23s-16.5 34 -16.5 56l2 24
l43 408c0 11.333 6.33301 19 19 23zM39 635c0 19.333 4.33398 35.667 13.001 49c9.33301 16.667 23.333 25 42 25c17.333 0 30.666 -6.66699 39.999 -20c10 -12 15 -27.333 15 -46c0 -18 -4.33301 -35 -13 -51s-22 -24 -40 -24s-32 6.5 -42 19.5s-15 28.833 -15 47.5z" />
    <glyph glyph-name="cent" unicode="&#xa2;" horiz-adv-x="258" 
d="M163 -70c-19.333 0 -29 12.6699 -29 38.0029l1 13v14c-38 8 -67.667 37 -89 87c-15.333 38.667 -23 81.667 -23 129c0 24.667 2 48.667 6 72s10.667 48 20 74c20.667 59.333 49.334 97 86.001 113v53c0 7.33301 4.66699 13 14 17h10c8 0 14.667 -1.66699 20 -5
c4.66699 -9.33301 7 -20 7 -32l-2 -29c21.333 -4.66699 39 -17.334 53 -38.001s21 -42.667 21 -66c0 -10.667 -10.167 -24.834 -30.5 -42.501s-36.166 -26.5 -47.499 -26.5c-2.66699 3.33301 -6 25.666 -10 66.999c0 33.333 -9 50 -27 50c-28.667 0 -43 -36 -43 -108
c0 -39.333 5.33301 -79.333 16 -120c14 -57.333 34.333 -86 61 -86c17.333 0 28.166 11.333 32.499 34s13.5 34 27.5 34c9.33301 0 17 -6.66699 23 -20c4 -10 6 -21 6 -33c0 -28 -6.83301 -53.5 -20.5 -76.5s-32.834 -38.5 -57.501 -46.5l1 -14v-13
c0 -26 -8.66699 -39 -26 -39z" />
    <glyph glyph-name="sterling" unicode="&#xa3;" horiz-adv-x="345" 
d="M87 318l-31.002 0.00683594c-20 0 -30 11.333 -30 34c0 10.667 5 18 15 22l30 2l-14 72c-2 14.667 -3.66699 27.667 -5 39s-2 22.666 -2 33.999c0 45.333 10.333 86.666 31 123.999c24.667 44.667 58 67 100 67l29 -3l28 -3l20 4l17 5c9.33301 0 17.333 -8.66699 24 -26
c0 -11.333 0.333008 -19.666 1 -24.999s3.5 -17.5 8.5 -36.5s7.5 -34.5 7.5 -46.5c0 -14 -3.33301 -26.667 -10 -38l-11 -4c-7.33301 0 -16.666 10 -27.999 30c-16.667 31.333 -27 49.333 -31 54c-14 20 -30.667 30 -50 30c-16.667 0 -29.5 -7.66699 -38.5 -23
s-13.5 -32.333 -13.5 -51c0 -30.667 5.33301 -65.334 16 -104.001l30 -101l22 1l24 2c22.667 0 34 -10.333 34 -31c0 -19.333 -11.333 -29 -34 -29l-30 2l5 -71c0 -28.667 -7.5 -57.834 -22.5 -87.501s-34.167 -54.834 -57.5 -75.501c34 15.333 55.667 23.666 65 24.999
c8.66699 0 19.5 -3 32.5 -9s23.167 -9.66699 30.5 -11c11.333 0 21 6.33301 29 19c3.33301 5.33301 6 11.166 8 17.499s3 13.166 3 20.499c0 36.667 -17 55 -51 55v9c0 15.333 4 30 12 44s20 21 36 21c21.333 0 37.333 -13.667 48 -41c8 -20 12 -42.667 12 -68
c0 -42 -10 -79.667 -30 -113c-22 -38 -53.667 -57 -95 -57c-15.333 0 -34.333 7 -57 21s-38 21 -46 21c-7.33301 0 -18.666 -6 -33.999 -18c-12.667 -10 -24 -16.667 -34 -20c-18.667 4 -28 12.667 -28 26c0 11.333 16.167 33.833 48.5 67.5s48.5 62.834 48.5 87.501
c0 27.333 -10.667 72.666 -32 135.999z" />
    <glyph glyph-name="currency" unicode="&#xa4;" horiz-adv-x="424" 
d="M290 295h-81.999c0 -146.667 24.333 -220 73 -220c36.667 0 55 57 55 171c0 34 8.66699 51 26 51c32.667 0 49 -39.667 49 -119c0 -53.333 -11 -97 -33 -131c-26 -39.333 -64.667 -59 -116 -59c-70 0 -121.333 35.667 -154 107c-12 27.333 -21 56.833 -27 88.5
s-9 68.834 -9 111.501h-47l9 37h38l3 37h-50l9 37h45c10 82 28 150.667 54 206c33.333 70.667 76 106 128 106l24 -4l26 -3l17 4l18 5c7.33301 0 14 -8 20 -24l9 -42c14 -62 21 -102.333 21 -121c0 -8.66699 -2.33301 -16.834 -7 -24.501s-11 -12.167 -19 -13.5
c-16 0 -33.333 26.167 -52 78.5s-37.334 78.5 -56.001 78.5c-35.333 0 -53 -82 -53 -246h106l-8 -37h-99v-37h90z" />
    <glyph glyph-name="section" unicode="&#xa7;" horiz-adv-x="345" 
d="M54 561c0 45.333 11.999 82.332 35.999 110.999s59 43 105 43c36 0 65.333 -13.667 88 -41c20 -25.333 30 -57 30 -95c0 -16.667 -5.83301 -32.834 -17.5 -48.501s-26.167 -23.5 -43.5 -23.5c-33.333 0 -50 20.333 -50 61c23.333 0 35 13 35 39
c0 12.667 -4.16699 24.667 -12.5 36s-18.833 17 -31.5 17c-36.667 0 -55 -24.333 -55 -73c0 -38 17.333 -78.333 52 -121l95 -105c34.667 -40.667 52 -79 52 -115c0 -20 -6.66699 -44.333 -20 -73c-12 -28 -25.667 -48.333 -41 -61c36 -58 54 -105.667 54 -143
c0 -42 -14 -76.5 -42 -103.5s-63.333 -40.5 -106 -40.5c-37.333 0 -69.333 12.333 -96 37s-40 55.334 -40 92.001c0 22.667 5.5 43.5 16.5 62.5s27.5 28.5 49.5 28.5c14.667 0 27.334 -5.33301 38.001 -16s16 -23.667 16 -39c0 -5.33301 -2 -14 -6 -26
c-20.667 -3.33301 -31 -15 -31 -35c0 -14 5 -26.333 15 -37s22.667 -16 38 -16c17.333 0 31.833 7.33301 43.5 22s17.5 31.334 17.5 50.001c0 36 -19 77 -57 123l-106 116c-38 46 -57 87.333 -57 124c0 36 21.667 80.667 65 134c-22.667 39.333 -34 78 -34 116z
M247.999 143.999c14.667 23.333 22 42.332 22 56.999c0 20.667 -22.667 56.667 -68 108l-93 104c-13.333 -25.333 -20 -45.666 -20 -60.999c0 -22.667 13.667 -50 41 -82l67 -69z" />
    <glyph glyph-name="dieresis" unicode="&#xa8;" horiz-adv-x="0" 
d="M-57 666c28.667 0 43.001 -15.667 43.001 -47c0 -16 -7.16699 -32.667 -21.5 -50s-29.833 -26 -46.5 -26c-31.333 0 -47 15.667 -47 47c0 18 7.16699 35.167 21.5 51.5s31.166 24.5 50.499 24.5zM84.001 666c11.333 0 21.5 -4.16699 30.5 -12.5s13.5 -18.5 13.5 -30.5
c0 -19.333 -7.5 -37.5 -22.5 -54.5s-31.833 -25.5 -50.5 -25.5c-12 0 -22.333 4.33301 -31 13c-7.33301 9.33301 -11 20.333 -11 33c0 20.667 6.83301 38.667 20.5 54s30.5 23 50.5 23z" />
    <glyph glyph-name="copyright" unicode="&#xa9;" horiz-adv-x="789" 
d="M384 655c92.667 0 171.667 -32.667 237 -98s98 -144.333 98 -237s-32.667 -171.667 -98 -237s-144.333 -98 -237 -98s-171.667 32.667 -237 98s-98 144.333 -98 237s32.667 171.667 98 237s144.333 98 237 98zM384 24c80 0 149.333 29 208 87s88 127.667 88 209
c0 80 -29 149.333 -87 208s-127.667 88 -209 88c-80 0 -149.333 -29 -208 -87s-88 -127.667 -88 -209c0 -80 29 -149.333 87 -208s127.667 -88 209 -88zM528 502l3.99805 -124h-20c-5.33301 29.333 -18.666 53.5 -39.999 72.5s-46.666 28.5 -75.999 28.5
c-39.333 0 -72 -18 -98 -54c-22 -32 -33 -69.333 -33 -112c0 -44 11.167 -80.167 33.5 -108.5s55.166 -42.5 98.499 -42.5c28.667 0 51.667 4.33301 69 13c4.66699 2 11.334 6 20.001 12l37 26l11 -16c-46 -48 -94.333 -72 -145 -72c-56 0 -101 17 -135 51
s-51 79.333 -51 136c0 51.333 17 96.333 51 135s77.333 58 130 58c12 0 29 -3 51 -9s39 -9 51 -9c11.333 0 19 5 23 15h19z" />
    <glyph glyph-name="guillemotleft" unicode="&#xab;" horiz-adv-x="301" 
d="M113 235c0 -18 5.49902 -43.335 16.499 -76.002s16.5 -57.667 16.5 -75v-6c-2.66699 -7.33301 -8.66699 -11.666 -18 -12.999c-8 0 -25.833 26.333 -53.5 79s-41.5 85.334 -41.5 98.001s15.667 41.5 47 86.5s53 68.833 65 71.5c8.66699 -2 13.334 -8.33301 14.001 -19
c0 -16.667 -7.66699 -41 -23 -73s-23 -56.333 -23 -73zM247.999 228.998c0 -16.667 6.33105 -41.002 18.998 -73.002s19 -56 19 -72c0 -10 -5.33301 -15.333 -16 -16c-11.333 0 -31.333 25.333 -60 76s-43 82.334 -43 95.001s15.5 42.834 46.5 90.501s51.833 71.5 62.5 71.5
c2 -0.666992 3.83301 -1.66699 5.5 -3s3.83398 -3.66602 6.50098 -6.99902v-8c0 -10.667 -1.33301 -21.334 -4 -32.001s-7.66699 -25 -15 -43s-12.666 -33.167 -15.999 -45.5s-5 -23.5 -5 -33.5z" />
    <glyph glyph-name="logicalnot" unicode="&#xac;" horiz-adv-x="713" 
d="M16 279h645v-279h-54v226h-591v53z" />
    <glyph glyph-name="registered" unicode="&#xae;" horiz-adv-x="789" 
d="M383 -19c-92.667 0 -171.667 32.667 -237 98s-98 144 -98 236c0 92.667 32.667 171.667 98 237s144.333 98 237 98c91.333 0 170 -32.833 236 -98.5s99 -144.5 99 -236.5c0 -91.333 -32.833 -169.833 -98.5 -235.5s-144.5 -98.5 -236.5 -98.5zM382 611
c-81.333 0 -150.834 -29.168 -208.501 -87.501s-86.5 -128.166 -86.5 -209.499c0 -82 29 -151.667 87 -209s127.667 -86 209 -86c80 0 149.333 29 208 87s88 127.667 88 209c0 80.667 -29.167 150.167 -87.5 208.5s-128.166 87.5 -209.499 87.5zM332.999 191.999
c0 -18.667 15.001 -28 45.001 -28v-18h-155v18c32 0 48 8.33301 48 25v280c0 15.333 -3.66699 24.333 -11 27l-32 2v17h166c88 0 132 -30 132 -90c0 -27.333 -9.66699 -50.5 -29 -69.5s-42.333 -28.5 -69 -28.5l117 -149c7.33301 -9.33301 18.666 -14 33.999 -14v-18h-92
l-129 172h-25v-126zM333 339.999c18 0 34.167 1.33398 48.5 4.00098s26.166 6 35.499 10c29.333 12 44 33.333 44 64c0 25.333 -6 43.666 -18 54.999c-5.33301 4.66699 -12.666 8.66699 -21.999 12s-21 6 -35 8l-33 2c-14 0 -21 -6.66699 -21 -20z" />
    <glyph glyph-name="degree" unicode="&#xb0;" horiz-adv-x="400" 
d="M194 373c-39.333 0 -73.5 14.167 -102.5 42.5s-43.5 62.5 -43.5 102.5s14.333 74.167 43 102.5s63 42.5 103 42.5s74.333 -14.333 103 -43s43 -62.667 43 -102c0 -40 -14.167 -74.167 -42.5 -102.5s-62.833 -42.5 -103.5 -42.5zM193 625
c-29.333 0 -54.334 -10.5 -75.001 -31.5s-31 -46.167 -31 -75.5c0 -28.667 10.333 -53.667 31 -75c22 -20.667 47.333 -31 76 -31c29.333 0 54.5 10.5 75.5 31.5s31.5 45.833 31.5 74.5s-10.667 53.667 -32 75s-46.666 32 -75.999 32z" />
    <glyph glyph-name="plusminus" unicode="&#xb1;" horiz-adv-x="548" 
d="M240 396v230h53v-230h230v-54h-230v-229h-53v229h-230v54h230zM10 0v53h513v-53h-513z" />
    <glyph glyph-name="acute" unicode="&#xb4;" horiz-adv-x="0" 
d="M28 680h52.999c15.333 0 23 -5 23 -15c0 -7.33301 -11.667 -23.666 -35 -48.999l-47 -47c-26 -27.333 -50 -41 -72 -41c-9.33301 0 -14.666 4 -15.999 12c0 9.33301 18.333 46.666 55 111.999c10.667 18.667 23.667 28 39 28z" />
    <glyph glyph-name="mu" unicode="&#xb5;" horiz-adv-x="575" 
d="M143 485l-0.000976562 -322.003c0 -74.667 30.333 -112 91 -112c20 0 41.167 7.5 63.5 22.5s37.5 32.167 45.5 51.5v360h84v-372c0 -17.333 4.33301 -35.333 13 -54s21.334 -28 38.001 -28c17.333 0 30 7.66699 38 23l15 45l19 -1c-18 -76 -57.333 -114 -118 -114
c-28 0 -49.333 9.33301 -64 28c-8.66699 12 -17 35 -25 69c-15.333 -26 -37 -48 -65 -66c-31.333 -20.667 -60 -31 -86 -31c-20 0 -37.667 5.33301 -53 16l-45 31v-22c0 -19.333 5.33301 -46.166 16 -80.499s16 -59.5 16 -75.5c0 -17.333 -3.66699 -32.333 -11 -45
c-8 -16 -20 -24 -36 -24c-15.333 0 -27 7.16699 -35 21.5s-12 29.833 -12 46.5c0 18.667 4.5 45.334 13.5 80.001s13.5 60.334 13.5 77.001v476h84z" />
    <glyph glyph-name="paragraph" unicode="&#xb6;" horiz-adv-x="667" 
d="M539 706l0.00195312 -54h-34v-819h-58v819h-144v-819h-58v486c-48.667 8 -87.334 28.667 -116.001 62c-27.333 34.667 -41 76.667 -41 126c0 63.333 21.333 113 64 149c39.333 33.333 91.666 50 156.999 50h230z" />
    <glyph glyph-name="periodcentered" unicode="&#xb7;" horiz-adv-x="173" 
d="M101 362c18 0 33.167 -7.33203 45.5 -21.999s18.5 -30.667 18.5 -48c0 -19.333 -6.83301 -35.333 -20.5 -48s-30.167 -19 -49.5 -19c-20 0 -36.167 6.66699 -48.5 20s-18.5 30.666 -18.5 51.999c0 18 7.33301 33.333 22 46s31.667 19 51 19z" />
    <glyph glyph-name="periodcentered" unicode="&#x2219;" horiz-adv-x="173" 
d="M101 362c18 0 33.167 -7.33203 45.5 -21.999s18.5 -30.667 18.5 -48c0 -19.333 -6.83301 -35.333 -20.5 -48s-30.167 -19 -49.5 -19c-20 0 -36.167 6.66699 -48.5 20s-18.5 30.666 -18.5 51.999c0 18 7.33301 33.333 22 46s31.667 19 51 19z" />
    <glyph glyph-name="cedilla" unicode="&#xb8;" horiz-adv-x="0" 
d="M-44 -60c0 12.667 4.16602 23.667 12.499 33s18.833 14 31.5 14c14.667 0 27.334 -6.33301 38.001 -19s16 -27 16 -43c0 -21.333 -5.66699 -43.333 -17 -66c-11.333 -26 -26.333 -41.667 -45 -47c-4 2 -6.66699 6 -8 12l16 29l17 31l-3 -1c-38.667 0 -58 19 -58 57z" />
    <glyph glyph-name="guillemotright" unicode="&#xbb;" horiz-adv-x="301" 
d="M68 244c0 16 -6.16699 39.3311 -18.5 69.998s-18.5 54.667 -18.5 72c0 10.667 4.66699 16.334 14 17.001c11.333 0 31.5 -25 60.5 -75s43.5 -82.333 43.5 -97c0 -9.33301 -15.167 -38.166 -45.5 -86.499s-50.166 -73.166 -59.499 -74.499c-10.667 0 -16 7.66699 -16 23
c0 10 1.33301 19.833 4 29.5s7.66699 23.667 15 42s12.666 33.666 15.999 45.999s5 23.5 5 33.5zM203 240.998c0 18.667 -5.5 44.333 -16.5 77s-16.5 57 -16.5 73c0 7.33301 5 11.666 15 12.999c12 -2.66699 31.167 -29.667 57.5 -81s39.5 -83 39.5 -95
c0 -9.33301 -15.833 -38.166 -47.5 -86.499s-53.167 -72.5 -64.5 -72.5c-9.33301 0 -14 6 -14 18c0 17.333 7.83301 42.833 23.5 76.5s23.5 59.5 23.5 77.5z" />
    <glyph glyph-name="questiondown" unicode="&#xbf;" 
d="M167 533c20.667 0 30.999 -31.6689 30.999 -95.002c0 -46 -9.33301 -95.667 -28 -149l-25 -68c-9.33301 -26.667 -14 -50 -14 -70c0 -41.333 10.333 -62 31 -62c22.667 0 34 19.667 34 59c0 9.33301 -2.66699 19 -8 29c-2 5.33301 -4 10.166 -6 14.499
s-4.66699 8.83301 -8 13.5c3.33301 24 17.333 36 42 36c23.333 0 43 -11.333 59 -34c12 -19.333 18 -42.333 18 -69c0 -40 -11.5 -73.833 -34.5 -101.5s-54.5 -41.5 -94.5 -41.5c-44 0 -78.667 14 -104 42s-38 64 -38 108c0 14.667 1.33301 28.667 4 42
s7.33398 27.333 14.001 42s21 37.334 43 68.001c26 36.667 42.333 64.334 49 83.001c2 8.66699 4.16699 21.834 6.5 39.501s3.5 36.167 3.5 55.5c0 21.333 0.666992 33.333 2 36c3.33301 14.667 11 22 23 22zM158.999 711.998c39.333 0 58.999 -23.999 58.999 -71.999
c0 -18.667 -4.83301 -35.334 -14.5 -50.001s-23.5 -22 -41.5 -22s-32 7.16699 -42 21.5s-15 31.166 -15 50.499c0 18.667 4.33301 35.334 13 50.001s22.334 22 41.001 22z" />
    <glyph glyph-name="Agrave" unicode="&#xc0;" horiz-adv-x="388" 
d="M152 899c16 0 28.333 -7.33398 37 -22.001c40 -68 60 -107 60 -117c0 -7.33301 -4 -11.666 -12 -12.999c-21.333 0 -48 15 -80 45l-65 72c-6 7.33301 -9.66699 14 -11 20c0 10 8.33301 15 25 15h46zM168 713.999l44.999 -0.000976562
c14.667 0 24.334 -9.66699 29.001 -29l126 -618c2 -9.33301 10 -20 24 -32l4 -15c0 -13.333 -11.333 -20 -34 -20h-113c-6 0 -11.667 2.33301 -17 7c-4 4.66699 -6.33301 10.334 -7 17.001c0.666992 0.666992 1 1.33398 1 2.00098c2.66699 4.66699 5.66699 9 9 13
c6 6 9.66699 14 11 24c0 41.333 -13.333 62 -40 62h-49c-20.667 0 -31 -19 -31 -57c0 -6.66699 3.33301 -15.334 10 -26.001l16 -23c-2 -12.667 -9 -19 -21 -19h-94c-18.667 0 -28 6.33301 -28 19c0 4.66699 4.66699 12.667 14 24c8 11.333 13.667 23 17 35l100 610
c2 17.333 11.333 26 28 26zM208.999 196.998l6.99902 2.99902c4.66699 4.66699 7.33398 9.33398 8.00098 14.001l-3 20l-10 75.5c-4.66699 35 -10 71.5 -16 109.5l-15 86c-10.667 -70 -19 -131.167 -25 -183.5s-9 -90.5 -9 -114.5c1.33301 -3.33301 7.33301 -7 18 -11z" />
    <glyph glyph-name="Aacute" unicode="&#xc1;" horiz-adv-x="388" 
d="M219 898h50c16 0 24.333 -4.33301 25 -13l-2 -8c-64 -87.333 -116 -131 -156 -131c-8 0 -12 5 -12 15l10.5 23c3 6.66699 8.5 17.667 16.5 33l34 61c8 13.333 19.333 20 34 20zM168 714l44.999 -0.000976562c14.667 0 24.334 -9.66699 29.001 -29l126 -618
c2 -9.33301 10 -20 24 -32l4 -15c0 -13.333 -11.333 -20 -34 -20h-113c-6 0 -11.667 2.33301 -17 7c-4 4.66699 -6.33301 10.334 -7 17.001c0.666992 0.666992 1 1.33398 1 2.00098c2.66699 4.66699 5.66699 9 9 13c6 6 9.66699 14 11 24c0 41.333 -13.333 62 -40 62h-49
c-20.667 0 -31 -19 -31 -57c0 -6.66699 3.33301 -15.334 10 -26.001l16 -23c-2 -12.667 -9 -19 -21 -19h-94c-18.667 -0 -28 6.33301 -28 19c0 4.66699 4.66699 12.667 14 24c8 11.333 13.667 23 17 35l100 610c2 17.333 11.333 26 28 26zM208.999 196.999l6.99902 2.99902
c4.66699 4.66699 7.33398 9.33398 8.00098 14.001l-3 20l-10 75.5c-4.66699 35 -10 71.5 -16 109.5l-15 86c-10.667 -70 -19 -131.167 -25 -183.5s-9 -90.5 -9 -114.5c1.33301 -3.33301 7.33301 -7 18 -11z" />
    <glyph glyph-name="Acircumflex" unicode="&#xc2;" horiz-adv-x="388" 
d="M164 901h32.998c10.667 0 18.667 -4 24 -12l58 -97l10 -20l-2 -9c-11.333 -16 -27.666 -24 -48.999 -24c-9.33301 0 -21.666 14 -36.999 42l-26 58l-21 -57c-12 -28 -23 -42 -33 -42c-8 0 -16.167 1.83301 -24.5 5.5s-12.5 8.5 -12.5 14.5c0 16 17.333 57.333 52 124
c6 11.333 15.333 17 28 17zM167.998 714l44.999 -0.000976562c14.667 0 24.334 -9.66699 29.001 -29l126 -618c2 -9.33301 10 -20 24 -32l4 -15c0 -13.333 -11.333 -20 -34 -20h-113c-6 0 -11.667 2.33301 -17 7c-4 4.66699 -6.33301 10.334 -7 17.001
c0.666992 0.666992 1 1.33398 1 2.00098c2.66699 4.66699 5.66699 9 9 13c6 6 9.66699 14 11 24c0 41.333 -13.333 62 -40 62h-49c-20.667 0 -31 -19 -31 -57c0 -6.66699 3.33301 -15.334 10 -26.001l16 -23c-2 -12.667 -9 -19 -21 -19h-94c-18.667 -0 -28 6.33301 -28 19
c0 4.66699 4.66699 12.667 14 24c8 11.333 13.667 23 17 35l100 610c2 17.333 11.333 26 28 26zM208.997 196.999l6.99902 2.99902c4.66699 4.66699 7.33398 9.33398 8.00098 14.001l-3 20l-10 75.5c-4.66699 35 -10 71.5 -16 109.5l-15 86
c-10.667 -70 -19 -131.167 -25 -183.5s-9 -90.5 -9 -114.5c1.33301 -3.33301 7.33301 -7 18 -11z" />
    <glyph glyph-name="Atilde" unicode="&#xc3;" horiz-adv-x="388" 
d="M132 876c16.667 0 40.8301 -5.33301 72.4971 -16s54.834 -16 69.501 -16c11.333 0 21 3 29 9l22 18h4c8.66699 0 13 -5.66699 13 -17c0 -22 -10.833 -40.833 -32.5 -56.5s-43.5 -23.5 -65.5 -23.5c-15.333 0 -39.166 6 -71.499 18s-57.166 18 -74.499 18
c-12 0 -23 -4 -33 -12s-17.667 -12.667 -23 -14c-4 0 -8.33301 4.66699 -13 14c0 20 11.833 38 35.5 54s46.167 24 67.5 24zM167.996 714l44.999 -0.000976562c14.667 0 24.334 -9.66699 29.001 -29l126 -618c2 -9.33301 10 -20 24 -32l4 -15c0 -13.333 -11.333 -20 -34 -20
h-113c-6 0 -11.667 2.33301 -17 7c-4 4.66699 -6.33301 10.334 -7 17.001c0.666992 0.666992 1 1.33398 1 2.00098c2.66699 4.66699 5.66699 9 9 13c6 6 9.66699 14 11 24c0 41.333 -13.333 62 -40 62h-49c-20.667 0 -31 -19 -31 -57c0 -6.66699 3.33301 -15.334 10 -26.001
l16 -23c-2 -12.667 -9 -19 -21 -19h-94c-18.667 -0 -28 6.33301 -28 19c0 4.66699 4.66699 12.667 14 24c8 11.333 13.667 23 17 35l100 610c2 17.333 11.333 26 28 26zM208.995 196.999l6.99902 2.99902c4.66699 4.66699 7.33398 9.33398 8.00098 14.001l-3 20l-10 75.5
c-4.66699 35 -10 71.5 -16 109.5l-15 86c-10.667 -70 -19 -131.167 -25 -183.5s-9 -90.5 -9 -114.5c1.33301 -3.33301 7.33301 -7 18 -11z" />
    <glyph glyph-name="Adieresis" unicode="&#xc4;" horiz-adv-x="388" 
d="M146 701c1.33301 8.66699 10.668 13 28.001 13h40c14 0 23.333 -9.66699 28 -29l127 -617c1.33301 -8.66699 6 -17 14 -25s12.333 -15.667 13 -23c0 -13.333 -11 -20 -33 -20h-112c-11.333 0 -20 6.66699 -26 20l12 22c6 8 9 15.333 9 22c0 21.333 -1.66699 35.333 -5 42
c-6.66699 12.667 -18.667 19 -36 19h-49h-6l-6 -1c-12 -10 -18 -29.333 -18 -58c0 -9.33301 4.33301 -18.5 13 -27.5s13 -15.833 13 -20.5c0 -4 -2 -8 -6 -12s-8 -6 -12 -6h-98c-17.333 0 -26 6.66699 -26 20c0 4.66699 4.16699 12 12.5 22s14.166 21 17.499 33l100 612
c0 3.33301 2 8 6 14zM204.002 196c13.333 0 20 7.66699 20 23c0 22 -4.33301 61 -13 117c-4.66699 30.667 -9.5 60.167 -14.5 88.5s-10.5 54.833 -16.5 79.5c0 -17.333 -6.66699 -65.333 -20 -144c-9.33301 -62 -14 -110.333 -14 -145c0 -12.667 7.66699 -19 23 -19h35z
M136.002 886c11.333 0 21.667 -4.16797 31 -12.501s14 -18.166 14 -29.499c0 -18 -7 -35.833 -21 -53.5s-30 -26.5 -48 -26.5c-30.667 0 -46 16 -46 48c0 16.667 7.16699 33.167 21.5 49.5s30.5 24.5 48.5 24.5zM208.003 808.999c0 19.333 6.99902 37 20.999 53s31 24 51 24
c28 0 42 -15 42 -45c0 -18 -7.66699 -35.5 -23 -52.5s-31.666 -25.5 -48.999 -25.5c-28 0 -42 15.333 -42 46z" />
    <glyph glyph-name="Aring" unicode="&#xc5;" horiz-adv-x="388" 
d="M396 20c0 -13.333 -11.667 -20 -35 -20h-102c-22.667 -0 -34 6.33301 -34 19c0 6 3.33301 12.833 10 20.5s10 17.167 10 28.5c0 38 -10.333 57 -31 57h-54c-16 0 -26 -7.33301 -30 -22c-1.33301 -4.66699 -2.33301 -9.66699 -3 -15s-1 -14 -1 -26
c0 -6 4 -13.167 12 -21.5s12.667 -15.833 14 -22.5c0 -12 -9 -18 -27 -18h-90c-5.33301 -0 -11 1.83301 -17 5.5s-9 8.16699 -9 13.5s4.83301 13.666 14.5 24.999s15.5 23.333 17.5 36c22 148 46 298.333 72 451l28 156c4 18.667 17 28 39 28h16l16 -1
c16 0 26 -9.33301 30 -28l123 -606c0.666992 -8 6 -18.667 16 -32s15 -22.666 15 -27.999zM201 196c15.333 0 23 7.99902 23 23.999l-2 14c-12 91.333 -26 182.333 -42 273l-22 -147c-8 -57.333 -12 -106.666 -12 -147.999l2 -8c6 -4 11.333 -6.66699 16 -8h37zM192 919.999
c25.333 0 46.833 -8.66699 64.5 -26s26.5 -38.333 26.5 -63c0 -26 -8.66699 -47.167 -26 -63.5s-39 -24.5 -65 -24.5c-24 0 -44.667 8.66699 -62 26c-16.667 18.667 -25 39.667 -25 63s8.5 43.833 25.5 61.5s37.5 26.5 61.5 26.5zM188 791.999l10.999 -0.00195312
c8.66699 0 16.834 3.83301 24.501 11.5s11.5 15.834 11.5 24.501c0 10 -3.66699 19.667 -11 29c-6 10 -14 15 -24 15c-12.667 0 -23.5 -3.66699 -32.5 -11s-13.5 -17 -13.5 -29c0 -8.66699 3.33301 -17.667 10 -27c6.66699 -7.33301 14.667 -11.666 24 -12.999z" />
    <glyph glyph-name="AE" unicode="&#xc6;" horiz-adv-x="602" 
d="M526 721c12.667 0 25.668 -21.9961 39.001 -65.9961l21 -87l4 -24c0 -5.33301 -2.16699 -11.5 -6.5 -18.5s-9.5 -11.167 -15.5 -12.5c-10 0 -30.333 21.833 -61 65.5s-57.667 65.5 -81 65.5c-18.667 0 -28 -10.333 -28 -31v-139c0 -20.667 8.33301 -31 25 -31
c10 0 19.167 7.83301 27.5 23.5s16.5 23.5 24.5 23.5c8.66699 0 16.667 -4.66699 24 -14c1.33301 -8 4.33301 -19 9 -33s11 -29.833 19 -47.5s14.167 -32.834 18.5 -45.501s7.83301 -25 10.5 -37c-3.33301 -16 -9.33301 -24 -18 -24s-25 14.5 -49 43.5s-45 43.5 -63 43.5
c-19.333 0 -29 -12.333 -29 -37v-213c0 -18.667 2.33301 -32.5 7 -41.5s16 -13.5 34 -13.5c21.333 0 42 11 62 33l43 62c14 22 27.667 33 41 33c12.667 0 19 -8 19 -24c0 -9.33301 -1.33301 -22.333 -4 -39s-7 -36.334 -13 -59.001c-12 -50 -23.667 -79.333 -35 -88l-12 -2
c-4.66699 0 -11.834 2.16699 -21.501 6.5s-17.167 6.5 -22.5 6.5h-209c-23.333 0 -35 7.66699 -35 23c0.666992 1.33301 1 2.33301 1 3c2.66699 5.33301 7 11.666 13 18.999c9.33301 12.667 14 29 14 49v15l-1 15h-137l-23 -64c0 -5.33301 3.16699 -11 9.5 -17
s10.833 -13.667 13.5 -23c-4 -12.667 -13.667 -19 -29 -19h-87c-11.333 0 -19 6.66699 -23 20c0 5.33301 7 14 21 26c8.66699 6.66699 45 100 109 280l64 169c32 87.333 48 139.666 48 156.999c0 4.66699 -4 10.667 -12 18c-8 6 -12 11.667 -12 17c0 11.333 9 17 27 17h236
c6 0 12.833 2.33301 20.5 7s15.167 7.66699 22.5 9zM263.001 196.004c4 0 7.33301 1.33301 10 4l5 11v344c-27.333 -92 -66 -211.667 -116 -359h101z" />
    <glyph glyph-name="Ccedilla" unicode="&#xc7;" horiz-adv-x="366" 
d="M189 -117c-36 0 -53.999 19.001 -53.999 57.001c0 10.667 4.16699 21.167 12.5 31.5s18.5 15.5 30.5 15.5c16 0 29.167 -6.83301 39.5 -20.5s15.5 -29.167 15.5 -46.5c0 -18 -6 -38.833 -18 -62.5s-26.667 -38.834 -44 -45.501c-4.66699 2 -7.33398 5.66699 -8.00098 11
l15 29l18 32l-3 -1h-4zM352.001 533.001c0 -8.66699 -2.33301 -16.665 -7 -23.998c-4 -8.66699 -10.333 -13.334 -19 -14.001c-15.333 0 -32.333 26.167 -51 78.5s-37.667 78.5 -57 78.5c-36 0 -54 -114 -54 -342c0 -156.667 24.333 -235 73 -235c36.667 0 55 57 55 171
c0 34 8.66699 51 26 51c32.667 0 49 -39.667 49 -119c0 -28.667 -2.33301 -53.167 -7 -73.5s-13 -39.5 -25 -57.5c-26 -39.333 -65 -59 -117 -59c-70 0 -121.667 37 -155 111c-23.333 54 -35 122 -35 204c0 44 3 86.167 9 126.5s15.667 81.166 29 122.499
c34 110.667 84.333 166 151 166l25 -4l25 -3l17 4l18 5c7.33301 0 14 -8 20 -24l9 -42c14 -62 21 -102.333 21 -121z" />
    <glyph glyph-name="Egrave" unicode="&#xc8;" horiz-adv-x="366" 
d="M144 899c14 0 25.667 -7.66895 35 -23.002c40 -70 60.667 -108.667 62 -116c0 -7.33301 -5 -11.666 -15 -12.999c-22 0 -50 17 -84 51c-23.333 22.667 -46 49.334 -68 80.001l-2 9c0 8 8.33301 12 25 12h47zM298 721.998c9.33301 0 17 -8 23 -24
c26 -76 39 -127.333 39 -154c0 -20.667 -7.66699 -31 -23 -31c-9.33301 0 -29.5 22 -60.5 66s-58.167 66 -81.5 66c-20.667 0 -31 -9.66699 -31 -29v-146c0 -17.333 10.667 -26 32 -26c6 0 12.833 6.83301 20.5 20.5s16.834 22.5 27.501 26.5
c11.333 -2 20.666 -9 27.999 -21c38 -80 57 -131.667 57 -155c0 -4 -2 -9.33301 -6 -16s-8.33301 -10 -13 -10c-11.333 0 -28 14 -50 42s-44.667 43 -68 45c-18 -8 -27 -19.333 -27 -34l1 -225c0 -30 13.667 -45 41 -45c22 0 43.667 11 65 33l43 61c15.333 22 29 33 41 33
c14 0 21 -8.33301 21 -25c0 -24 -10.667 -68.333 -32 -133l-12 -36c-4 -9.33301 -11 -15.666 -21 -18.999c-29.333 9.33301 -68.333 14 -117 14l-54 -1l-54 -1c-45.333 0 -68 7.33301 -68 22c0 6 4 14 12 24s12.667 19.333 14 28v565c0 8 -4.66699 16.667 -14 26
c-8 9.33301 -12.333 17 -13 23c0 14 13 21 39 21h196c6.66699 0 14.167 2.16699 22.5 6.5s15.833 7.16602 22.5 8.49902z" />
    <glyph glyph-name="Eacute" unicode="&#xc9;" horiz-adv-x="366" 
d="M210 898l49 0.000976562l17 -3l2 -2c4 -2 6 -5 6 -9c0 -6.66699 -2.66699 -13 -8 -19l-24 -28c-52.667 -60.667 -94.667 -91 -126 -91c-8 0 -12 4.66699 -12 14s21 48.666 63 117.999c8 13.333 19 20 33 20zM298 722.001c9.33301 0 17 -8 23 -24
c26 -76 39 -127.333 39 -154c0 -20.667 -7.66699 -31 -23 -31c-9.33301 0 -29.5 22 -60.5 66s-58.167 66 -81.5 66c-20.667 0 -31 -9.66699 -31 -29v-146c0 -17.333 10.667 -26 32 -26c6 0 12.833 6.83301 20.5 20.5s16.834 22.5 27.501 26.5
c11.333 -2 20.666 -9 27.999 -21c38 -80 57 -131.667 57 -155c0 -4 -2 -9.33301 -6 -16s-8.33301 -10 -13 -10c-11.333 0 -28 14 -50 42s-44.667 43 -68 45c-18 -8 -27 -19.333 -27 -34l1 -225c0 -30 13.667 -45 41 -45c22 0 43.667 11 65 33l43 61c15.333 22 29 33 41 33
c14 0 21 -8.33301 21 -25c0 -24 -10.667 -68.333 -32 -133l-12 -36c-4 -9.33301 -11 -15.666 -21 -18.999c-29.333 9.33301 -68.333 14 -117 14l-54 -1l-54 -1c-45.333 0 -68 7.33301 -68 22c0 6 4 14 12 24s12.667 19.333 14 28v565c0 8 -4.66699 16.667 -14 26
c-8 9.33301 -12.333 17 -13 23c0 14 13 21 39 21h196c6.66699 0 14.167 2.16699 22.5 6.5s15.833 7.16602 22.5 8.49902z" />
    <glyph glyph-name="Ecircumflex" unicode="&#xca;" horiz-adv-x="366" 
d="M155 901l32.001 -0.000976562c10 0 18.333 -4.33301 25 -13c23.333 -33.333 45.666 -70.666 66.999 -111.999v-4c0 -13.333 -12 -24 -36 -32l-15 -1c-8.66699 0 -20.667 14 -36 42l-28 57l-21 -55c-12 -28 -22.333 -42 -31 -42c-24 0 -36 6.33301 -36 19
c0 6 7.33301 26 22 60l30 65c6.66699 10.667 15.667 16 27 16zM298.001 721.999c9.33301 0 17 -8 23 -24c26 -76 39 -127.333 39 -154c0 -20.667 -7.66699 -31 -23 -31c-9.33301 0 -29.5 22 -60.5 66s-58.167 66 -81.5 66c-20.667 0 -31 -9.66699 -31 -29v-146
c0 -17.333 10.667 -26 32 -26c6 0 12.833 6.83301 20.5 20.5s16.834 22.5 27.501 26.5c11.333 -2 20.666 -9 27.999 -21c38 -80 57 -131.667 57 -155c0 -4 -2 -9.33301 -6 -16s-8.33301 -10 -13 -10c-11.333 0 -28 14 -50 42s-44.667 43 -68 45c-18 -8 -27 -19.333 -27 -34
l1 -225c0 -30 13.667 -45 41 -45c22 0 43.667 11 65 33l43 61c15.333 22 29 33 41 33c14 0 21 -8.33301 21 -25c0 -24 -10.667 -68.333 -32 -133l-12 -36c-4 -9.33301 -11 -15.666 -21 -18.999c-29.333 9.33301 -68.333 14 -117 14l-54 -1l-54 -1
c-45.333 0 -68 7.33301 -68 22c0 6 4 14 12 24s12.667 19.333 14 28v565c0 8 -4.66699 16.667 -14 26c-8 9.33301 -12.333 17 -13 23c0 14 13 21 39 21h196c6.66699 0 14.167 2.16699 22.5 6.5s15.833 7.16602 22.5 8.49902z" />
    <glyph glyph-name="Edieresis" unicode="&#xcb;" horiz-adv-x="366" 
d="M49 809c0 19.333 7.5 36.832 22.5 52.499s32.167 23.5 51.5 23.5c12 0 22.167 -4.16699 30.5 -12.5s12.5 -19.166 12.5 -32.499c0 -18 -7.5 -35.5 -22.5 -52.5s-32.167 -25.5 -51.5 -25.5c-28.667 0 -43 15.667 -43 47zM261 884.999c12.667 0 23.668 -4 33.001 -12
s14 -18.333 14 -31c0 -20 -7.16699 -38.333 -21.5 -55s-31.833 -25 -52.5 -25c-28 0 -42 14.333 -42 43c0 20 6.66699 38.333 20 55s29.666 25 48.999 25zM298.001 721.999c9.33301 0 17 -8 23 -24c26 -76 39 -127.333 39 -154c0 -20.667 -7.66699 -31 -23 -31
c-9.33301 0 -29.5 22 -60.5 66s-58.167 66 -81.5 66c-20.667 0 -31 -9.66699 -31 -29v-146c0 -17.333 10.667 -26 32 -26c6 0 12.833 6.83301 20.5 20.5s16.834 22.5 27.501 26.5c11.333 -2 20.666 -9 27.999 -21c38 -80 57 -131.667 57 -155c0 -4 -2 -9.33301 -6 -16
s-8.33301 -10 -13 -10c-11.333 0 -28 14 -50 42s-44.667 43 -68 45c-18 -8 -27 -19.333 -27 -34l1 -225c0 -30 13.667 -45 41 -45c22 0 43.667 11 65 33l43 61c15.333 22 29 33 41 33c14 0 21 -8.33301 21 -25c0 -24 -10.667 -68.333 -32 -133l-12 -36
c-4 -9.33301 -11 -15.666 -21 -18.999c-29.333 9.33301 -68.333 14 -117 14l-54 -1l-54 -1c-45.333 0 -68 7.33301 -68 22c0 6 4 14 12 24s12.667 19.333 14 28v565c0 8 -4.66699 16.667 -14 26c-8 9.33301 -12.333 17 -13 23c0 14 13 21 39 21h196
c6.66699 0 14.167 2.16699 22.5 6.5s15.833 7.16602 22.5 8.49902z" />
    <glyph glyph-name="Igrave" unicode="&#xcc;" horiz-adv-x="194" 
d="M58 899c16 0 28.332 -7.33301 36.999 -22c40 -66 60 -105 60 -117c0 -8 -4.66699 -12.333 -14 -13c-21.333 0 -47.666 15 -78.999 45l-64 72c-8 8 -12 14.667 -12 20c0 10 8.66699 15 26 15h46zM44.999 636l-1 15.001l-16 18c-6 7.33301 -9.66699 14 -11 20
c0 12 10.333 18 31 18h115c19.333 0 29 -6.66699 29 -20c0 -6 -4.16699 -13.333 -12.5 -22s-12.5 -17.334 -12.5 -26.001v-567c0 -10 4.66699 -19.667 14 -29c8.66699 -7.33301 14 -15.333 16 -24c-2 -12 -8.33301 -18 -19 -18h-132c-20 0 -30 8.33301 -30 25l21 26
c5.33301 6.66699 8 18.667 8 36v548z" />
    <glyph glyph-name="Iacute" unicode="&#xcd;" horiz-adv-x="194" 
d="M125 898h50c16 0 24.333 -4.33301 25 -13l-2 -8c-64 -87.333 -116 -131 -156 -131c-8 0 -12 5 -12 15l10.5 23c3 6.66699 8.5 17.667 16.5 33l34 61c8 13.333 19.333 20 34 20zM45 636l-1 15.001l-16 18c-6 7.33301 -9.66699 14 -11 20c0 12 10.333 18 31 18h115
c19.333 0 29 -6.66699 29 -20c0 -6 -4.16699 -13.333 -12.5 -22s-12.5 -17.334 -12.5 -26.001v-567c0 -10 4.66699 -19.667 14 -29c8.66699 -7.33301 14 -15.333 16 -24c-2 -12 -8.33301 -18 -19 -18h-132c-20 0 -30 8.33301 -30 25l21 26c5.33301 6.66699 8 18.667 8 36
v548z" />
    <glyph glyph-name="Icircumflex" unicode="&#xce;" horiz-adv-x="194" 
d="M71 901h31.999c10.667 0 18.667 -4 24 -12l58 -97l10 -20l-1 -9c-3.33301 -5.33301 -15 -13 -35 -23h-8l-8 -1c-9.33301 0 -21.666 14 -36.999 42l-25 57l-21 -56c-12 -26 -23 -39.667 -33 -41c-24.667 0 -37 6.33301 -37 19c0 18 17.333 59.333 52 124
c6 11.333 15.667 17 29 17zM44.999 636l-1 15.001l-16 18c-6 7.33301 -9.66699 14 -11 20c0 12 10.333 18 31 18h115c19.333 0 29 -6.66699 29 -20c0 -6 -4.16699 -13.333 -12.5 -22s-12.5 -17.334 -12.5 -26.001v-567c0 -10 4.66699 -19.667 14 -29
c8.66699 -7.33301 14 -15.333 16 -24c-2 -12 -8.33301 -18 -19 -18h-132c-20 0 -30 8.33301 -30 25l21 26c5.33301 6.66699 8 18.667 8 36v548z" />
    <glyph glyph-name="Idieresis" unicode="&#xcf;" horiz-adv-x="194" 
d="M-35 809c0 19.333 7.66699 36.667 23 52c14 16 31 24 51 24c10.667 0 20.334 -4.33301 29.001 -13s13 -18.667 13 -30c0 -19.333 -7.33301 -37.5 -22 -54.5s-31.334 -25.5 -50.001 -25.5c-29.333 0 -44 15.667 -44 47zM107 809.001c0 17.333 7 34.333 21 51
s30.333 25 49 25c30 0 45 -14.667 45 -44c0 -18.667 -7.16699 -36.5 -21.5 -53.5s-30.833 -25.5 -49.5 -25.5c-29.333 0 -44 15.667 -44 47zM45 636.001l-1 15.001l-16 18c-6 7.33301 -9.66699 14 -11 20c0 12 10.333 18 31 18h115c19.333 0 29 -6.66699 29 -20
c0 -6 -4.16699 -13.333 -12.5 -22s-12.5 -17.334 -12.5 -26.001v-567c0 -10 4.66699 -19.667 14 -29c8.66699 -7.33301 14 -15.333 16 -24c-2 -12 -8.33301 -18 -19 -18h-132c-20 0 -30 8.33301 -30 25l21 26c5.33301 6.66699 8 18.667 8 36v548z" />
    <glyph glyph-name="Ntilde" unicode="&#xd1;" horiz-adv-x="388" 
d="M132 876c16.667 0 40.8301 -5.33301 72.4971 -16s54.834 -16 69.501 -16c11.333 0 21 3 29 9l22 18h4c8.66699 0 13 -5.66699 13 -17c0 -22 -10.833 -40.833 -32.5 -56.5s-43.5 -23.5 -65.5 -23.5c-15.333 0 -39.166 6 -71.499 18s-57.166 18 -74.499 18
c-12 0 -23 -4 -33 -12s-17.667 -12.667 -23 -14c-4 0 -8.33301 4.66699 -13 14c0 20 11.833 38 35.5 54s46.167 24 67.5 24zM42.9961 638c0 12 -4.16797 21.8369 -12.501 29.5039s-13.5 15.167 -15.5 22.5c2 10.667 10.667 16 26 16h76c17.333 0 42 -35.667 74 -107l53 -137
c4.66699 -8 9.83398 -18.833 15.501 -32.5l19.5 -45.5v248c0 14.667 -4.33301 25.667 -13 33s-13.667 14.666 -15 21.999c0 12.667 10.667 19 32 19h80c14.667 0 22 -5.66699 22 -17c0 -7.33301 -4.5 -15.333 -13.5 -24s-13.5 -20.334 -13.5 -35.001v-616
c0 -15.333 -13.333 -23 -40 -23h-11h-8c-3.33301 1.33301 -5.66602 2 -6.99902 2l-13 11l-2 18c0 29.333 -7.33301 66.666 -22 111.999c-12 37.333 -31.667 87.666 -59 150.999l-65 151v-360c0 -12.667 4.33301 -23.167 13 -31.5s13.667 -15.833 15 -22.5
c0 -14 -7.33301 -21 -22 -21h-94c-18 0 -27 9.66699 -27 29c0 4 4.16699 10 12.5 18s13.166 17.333 14.499 28v562z" />
    <glyph glyph-name="Ograve" unicode="&#xd2;" horiz-adv-x="431" 
d="M175 899c15.333 0 27.334 -7.66797 36.001 -23.001c40 -69.333 60.333 -108 61 -116c0 -7.33301 -5 -11.666 -15 -12.999c-20.667 0 -41.334 10.333 -62.001 31c-60 62 -90.667 97.333 -92 106c0 10 8.33301 15 25 15h47zM221.001 719.999
c74.667 0 128.333 -57.668 161 -173.001c20 -73.333 30 -162 30 -266c0 -76 -11.667 -139.667 -35 -191c-31.333 -69.333 -80 -104 -146 -104c-135.333 0 -203 106.667 -203 320c0 90.667 12.333 174.334 37 251.001c34 108.667 86 163 156 163zM216 655.998
c-33.333 0 -50 -92.667 -50 -278l1 -67v-68c0 -118.667 18 -178 54 -178c38 0 57 44.667 57 134v71l-1 70c0 210.667 -20.333 316 -61 316z" />
    <glyph glyph-name="Oacute" unicode="&#xd3;" horiz-adv-x="431" 
d="M241 898l50.001 -0.000976562c16 0 24 -4.33301 24 -13c0 -13.333 -30.667 -49.666 -92 -108.999c-20 -20 -42 -30 -66 -30c-6.66699 0 -10.334 4.66699 -11.001 14c0 12 20.333 51.333 61 118c8 13.333 19.333 20 34 20zM221.001 719.999
c74.667 0 128.333 -57.668 161 -173.001c20 -73.333 30 -162 30 -266c0 -76 -11.667 -139.667 -35 -191c-31.333 -69.333 -80 -104 -146 -104c-135.333 0 -203 106.667 -203 320c0 90.667 12.333 174.334 37 251.001c34 108.667 86 163 156 163zM216 655.998
c-33.333 0 -50 -92.667 -50 -278l1 -67v-68c0 -118.667 18 -178 54 -178c38 0 57 44.667 57 134v71l-1 70c0 210.667 -20.333 316 -61 316z" />
    <glyph glyph-name="Ocircumflex" unicode="&#xd4;" horiz-adv-x="431" 
d="M186 901h32c9.33301 0 17.666 -4 24.999 -12l38 -60c20 -34 30 -52.667 30 -56c0 -7.33301 -4.33301 -14 -13 -20l-23 -13h-7l-8 -1c-9.33301 0 -21.666 14 -36.999 42l-26 58l-22 -56c-12 -28 -22.667 -42 -32 -42c-24 0 -36 7 -36 21l6.5 19
c2.33301 6.66699 7.83301 20 16.5 40c14.667 35.333 24.5 57.5 29.5 66.5s13.833 13.5 26.5 13.5zM221 720c74.667 0 128.333 -57.668 161 -173.001c20 -73.333 30 -162 30 -266c0 -76 -11.667 -139.667 -35 -191c-31.333 -69.333 -80 -104 -146 -104
c-135.333 0 -203 106.667 -203 320c0 90.667 12.333 174.334 37 251.001c34 108.667 86 163 156 163zM215.999 655.999c-33.333 0 -50 -92.667 -50 -278l1 -67v-68c0 -118.667 18 -178 54 -178c38 0 57 44.667 57 134v71l-1 70c0 210.667 -20.333 316 -61 316z" />
    <glyph glyph-name="Otilde" unicode="&#xd5;" horiz-adv-x="431" 
d="M153 876c16 0 39.667 -5.33301 71 -16c6 -2 16.833 -5.16699 32.5 -9.5s28.5 -6.5 38.5 -6.5c12 0 22 3 30 9l22 18h4c9.33301 0 14 -5.66699 14 -17c0 -20 -11 -38.667 -33 -56c-22 -16 -44 -24 -66 -24c-17.333 0 -42.333 6 -75 18s-58 18 -76 18
c-8 0 -17.333 -4.33301 -28 -13s-18.334 -13 -23.001 -13c-4 0 -8.33301 4.66699 -13 14c0 18.667 12.333 37 37 55c22.667 15.333 44.334 23 65.001 23zM221 720c74.667 0 128.333 -57.668 161 -173.001c20 -73.333 30 -162 30 -266c0 -76 -11.667 -139.667 -35 -191
c-31.333 -69.333 -80 -104 -146 -104c-135.333 0 -203 106.667 -203 320c0 90.667 12.333 174.334 37 251.001c34 108.667 86 163 156 163zM215.999 655.999c-33.333 0 -50 -92.667 -50 -278l1 -67v-68c0 -118.667 18 -178 54 -178c38 0 57 44.667 57 134v71l-1 70
c0 210.667 -20.333 316 -61 316z" />
    <glyph glyph-name="Odieresis" unicode="&#xd6;" horiz-adv-x="431" 
d="M220 720c76 0 130 -57.667 162 -173c20 -73.333 30 -162 30 -266c0 -76 -11.667 -139.667 -35 -191c-31.333 -69.333 -80 -104 -146 -104c-135.333 0 -203 106.667 -203 320c0 89.333 12 173 36 251c34 108.667 86 163 156 163zM216 656c-33.333 0 -50 -92.667 -50 -278
l1 -67v-68c0 -118.667 18 -178 54 -178c38 0 57 44.667 57 134v71l-1 70c0 210.667 -20.333 316 -61 316zM164 886c13.333 0 24.333 -4.33203 33 -12.999s13 -19.334 13 -32.001c0 -16.667 -7.16699 -33.5 -21.5 -50.5s-29.5 -25.5 -45.5 -25.5c-32.667 0 -49 14 -49 42
c0 20 7 38.167 21 54.5s30.333 24.5 49 24.5zM305 887.001c10 0 20.333 -4 31 -12s16 -17.667 16 -29c0 -20 -7.33301 -38.5 -22 -55.5s-32 -25.5 -52 -25.5c-27.333 0 -41 15.333 -41 46c0 18 7.16699 35.167 21.5 51.5s29.833 24.5 46.5 24.5z" />
    <glyph glyph-name="Oslash" unicode="&#xd8;" horiz-adv-x="431" 
d="M52 105c-16.667 65.333 -25 123.999 -25 175.999s2.66699 99.167 8 141.5s14 83.5 26 123.5c34 114 89 171 165 171c26 0 50.667 -7.83301 74 -23.5s40.666 -35.5 51.999 -59.5c8 16.667 22.333 39 43 67l9 4l18 -4l10 -11l3 -12l-58 -109c24 -96 36 -189.667 36 -281
c0 -87.333 -11 -155 -33 -203c-31.333 -66 -86.333 -99 -165 -99c-41.333 0 -86.333 21.333 -135 64l-16 -28c-7.33301 -11.333 -14.666 -19 -21.999 -23l-21 9c-6.66699 3.33301 -10 9 -10 17c0 6.66699 13.667 33.334 41 80.001zM277 490.999
c0 22 -0.5 38.668 -1.5 50.001s-3.5 25.666 -7.5 42.999c-8 43.333 -23.333 65 -46 65c-23.333 0 -39 -18 -47 -54c-0.666992 -4 -2 -14.333 -4 -31s-3 -33.667 -3 -51l-8 -220zM222 62c6 0 10.668 0.5 14.001 1.5s8 3.16699 14 6.5c22 12.667 33 71.667 33 177l-2 154
l-116 -203c0 -18 0.666992 -34.5 2 -49.5s2.66602 -26.167 3.99902 -33.5c8 -35.333 25 -53 51 -53z" />
    <glyph glyph-name="Ugrave" unicode="&#xd9;" horiz-adv-x="388" 
d="M152 899c16 0 28.333 -7.33398 37 -22.001c40 -68 60 -107 60 -117c0 -7.33301 -4 -11.666 -12 -12.999c-21.333 0 -48 15 -80 45l-65 72c-6 7.33301 -9.66699 14 -11 20c0 10 8.33301 15 25 15h46zM172 706.999c16.667 0 25.002 -8.66406 25.002 -25.9971
c0 -4 -4.33301 -9.33301 -13 -16s-13.334 -14.667 -14.001 -24l-1 -513c0 -12.667 4.33301 -24.334 13 -35.001c9.33301 -9.33301 20.666 -14 33.999 -14c33.333 0 50 22.333 50 67v494c0 7.33301 -5 15.666 -15 24.999c-8 8.66699 -12.667 16.334 -14 23.001
c0 13.333 9.33301 20 28 20h91c4.66699 0 9.5 -2 14.5 -6s7.83301 -9 8.5 -15c0 -6.66699 -4.5 -14 -13.5 -22s-13.5 -20 -13.5 -36l3 -258l3 -258c0 -39.333 -16 -71 -48 -95c-28.667 -21.333 -63.667 -32 -105 -32c-46 0 -84.667 11 -116 33
c-34 25.333 -51 60.666 -51 105.999l5 508c0 12.667 -4 22.667 -12 30s-12.667 15.666 -14 24.999c0 12.667 8.66699 19 26 19h129z" />
    <glyph glyph-name="Uacute" unicode="&#xda;" horiz-adv-x="388" 
d="M219 898h50c16 0 24.333 -4.33301 25 -13l-2 -8c-64 -87.333 -116 -131 -156 -131c-8 0 -12 5 -12 15l10.5 23c3 6.66699 8.5 17.667 16.5 33l34 61c8 13.333 19.333 20 34 20zM172 707c16.667 0 25.002 -8.66406 25.002 -25.9971c0 -4 -4.33301 -9.33301 -13 -16
s-13.334 -14.667 -14.001 -24l-1 -513c0 -12.667 4.33301 -24.334 13 -35.001c9.33301 -9.33301 20.666 -14 33.999 -14c33.333 0 50 22.333 50 67v494c0 7.33301 -5 15.666 -15 24.999c-8 8.66699 -12.667 16.334 -14 23.001c0 13.333 9.33301 20 28 20h91
c4.66699 0 9.5 -2 14.5 -6s7.83301 -9 8.5 -15c0 -6.66699 -4.5 -14 -13.5 -22s-13.5 -20 -13.5 -36l3 -258l3 -258c0 -39.333 -16 -71 -48 -95c-28.667 -21.333 -63.667 -32 -105 -32c-46 0 -84.667 11 -116 33c-34 25.333 -51 60.666 -51 105.999l5 508
c0 12.667 -4 22.667 -12 30s-12.667 15.666 -14 24.999c0 12.667 8.66699 19 26 19h129z" />
    <glyph glyph-name="Ucircumflex" unicode="&#xdb;" horiz-adv-x="388" 
d="M164 901h32.998c10.667 0 18.667 -4 24 -12l58 -97l10 -20l-2 -9c-11.333 -16 -27.666 -24 -48.999 -24c-9.33301 0 -21.666 14 -36.999 42l-26 58l-21 -57c-12 -28 -23 -42 -33 -42c-8 0 -16.167 1.83301 -24.5 5.5s-12.5 8.5 -12.5 14.5c0 16 17.333 57.333 52 124
c6 11.333 15.333 17 28 17zM171.998 707c16.667 0 25.002 -8.66406 25.002 -25.9971c0 -4 -4.33301 -9.33301 -13 -16s-13.334 -14.667 -14.001 -24l-1 -513c0 -12.667 4.33301 -24.334 13 -35.001c9.33301 -9.33301 20.666 -14 33.999 -14c33.333 0 50 22.333 50 67v494
c0 7.33301 -5 15.666 -15 24.999c-8 8.66699 -12.667 16.334 -14 23.001c0 13.333 9.33301 20 28 20h91c4.66699 0 9.5 -2 14.5 -6s7.83301 -9 8.5 -15c0 -6.66699 -4.5 -14 -13.5 -22s-13.5 -20 -13.5 -36l3 -258l3 -258c0 -39.333 -16 -71 -48 -95
c-28.667 -21.333 -63.667 -32 -105 -32c-46 0 -84.667 11 -116 33c-34 25.333 -51 60.666 -51 105.999l5 508c0 12.667 -4 22.667 -12 30s-12.667 15.666 -14 24.999c0 12.667 8.66699 19 26 19h129z" />
    <glyph glyph-name="Udieresis" unicode="&#xdc;" horiz-adv-x="388" 
d="M172 707c16.667 0 25.002 -8.66406 25.002 -25.9971c0 -4 -4.33301 -9.33301 -13 -16s-13.334 -14.667 -14.001 -24l-1 -513c0 -12.667 4.33301 -24.334 13 -35.001c9.33301 -9.33301 20.666 -14 33.999 -14c33.333 0 50 22.333 50 67v494
c0 7.33301 -5 15.666 -15 24.999c-8 8.66699 -12.667 16.334 -14 23.001c0 13.333 9.33301 20 28 20h91c4.66699 0 9.5 -2 14.5 -6s7.83301 -9 8.5 -15c0 -6.66699 -4.5 -14 -13.5 -22s-13.5 -20 -13.5 -36l3 -258l3 -258c0 -39.333 -16 -71 -48 -95
c-28.667 -21.333 -63.667 -32 -105 -32c-46 0 -84.667 11 -116 33c-34 25.333 -51 60.666 -51 105.999l5 508c0 12.667 -4 22.667 -12 30s-12.667 15.666 -14 24.999c0 12.667 8.66699 19 26 19h129zM74.002 812.003c0 18 7.66797 34.5 23.001 49.5s32 22.5 50 22.5
c10.667 0 20.167 -4 28.5 -12s12.833 -17.667 13.5 -29c0 -20 -7.33301 -38.5 -22 -55.5s-31.667 -25.5 -51 -25.5c-10 0 -19.333 3.5 -28 10.5s-13.334 15.833 -14.001 26.5v13zM215.003 807.003c0 18.667 7.50098 36.332 22.501 52.999s32.167 25 51.5 25
c10.667 0 20.167 -4.66699 28.5 -14s12.5 -19.666 12.5 -30.999c0 -18 -7.33301 -35.5 -22 -52.5s-31.334 -25.5 -50.001 -25.5c-28.667 0 -43 15 -43 45z" />
    <glyph glyph-name="germandbls" unicode="&#xdf;" horiz-adv-x="345" 
d="M159 719c37.333 0 71.332 -16.835 101.999 -50.502s46 -70.167 46 -109.5c0 -60.667 -22.667 -103.667 -68 -129c-12 -6 -18 -11 -18 -15c2 -3.33301 4 -6.16602 6 -8.49902s7.33301 -7.83301 16 -16.5c66 -66 99 -142.667 99 -230c0 -42.667 -8.33301 -79.667 -25 -111
c-20.667 -38.667 -50.334 -58 -89.001 -58c-18 0 -32.667 10.667 -44 32c-2 4.66699 -4.66699 12 -8 22s-5 21.333 -5 34l8 29c8 -8 18 -12.667 30 -14c20 0 30 24.333 30 73c0 35.333 -3 66 -9 92c-10 47.333 -29.333 90.333 -58 129
c-7.33301 10.667 -11.666 20 -12.999 28c0 10 5.33301 19 16 27c14.667 10.667 24.334 19.334 29.001 26.001c10.667 14.667 16 36 16 64c0 28.667 -4 56.667 -12 84c-10 37.333 -26 56 -48 56c-4 0 -9.66699 -3.66699 -17 -11l-4 -17v-577c0 -10 3.16699 -19.167 9.5 -27.5
s10.5 -15.5 12.5 -21.5c-4 -12 -10.333 -18 -19 -18h-100c-12.667 0 -19 6.66699 -19 20l9 15c6 8 9 18 9 30v529c0 36 10.833 65.667 32.5 89s50.167 35 85.5 35z" />
    <glyph glyph-name="agrave" unicode="&#xe0;" horiz-adv-x="301" 
d="M111 681c16 0 29.333 -9.33203 40 -27.999c37.333 -66.667 56.666 -104 57.999 -112c0 -8 -5.33301 -12 -16 -12c-19.333 0 -49.666 19.5 -90.999 58.5s-62 66.833 -62 83.5c5.33301 5.33301 13.333 8.66602 24 9.99902h47zM175 357.001c0 42 -12.0039 63 -36.0039 63
c-8 0 -17.667 -5 -29 -15c15.333 -12 23 -24 23 -36s-5.16699 -23.167 -15.5 -33.5s-22.166 -15.5 -35.499 -15.5s-24.666 6 -33.999 18c-2.66699 4 -5 8.33301 -7 13c-4 9.33301 -6 18.666 -6 27.999c0 30.667 12 54.167 36 70.5s51.667 24.5 83 24.5
c81.333 0 122 -44 122 -132v-258c0 -8 5.33301 -14.167 16 -18.5s16.334 -11.166 17.001 -20.499c0 -35.333 -18 -53 -54 -53c-24 0 -47 15.333 -69 46c-26 -30 -51 -45 -75 -45c-27.333 0 -51 13.333 -71 40c-16 24 -24 51.333 -24 82c0 51.333 13.833 94 41.5 128
s66.834 55.333 117.501 64v50zM177.996 258.001c-28 -12 -47 -27.002 -57 -45.002c-6.66699 -15.333 -10 -39.666 -10 -72.999c0 -48 10.667 -72 32 -72c10 0 18.333 5.83301 25 17.5s10 22.834 10 33.501v139z" />
    <glyph glyph-name="aacute" unicode="&#xe1;" horiz-adv-x="301" 
d="M176 680h52.001c15.333 0 23 -5.66699 23 -17c0 -4.66699 -4.66699 -12.667 -14 -24c-16 -20 -37 -42.667 -63 -68c-32.667 -28.667 -58.334 -43 -77.001 -43c-10 0 -15 4.33301 -15 13c0 10 18 47 54 111c10.667 18.667 24 28 40 28zM175.001 357
c0 42 -12.0039 63 -36.0039 63c-8 0 -17.667 -5 -29 -15c15.333 -12 23 -24 23 -36s-5.16699 -23.167 -15.5 -33.5s-22.166 -15.5 -35.499 -15.5s-24.666 6 -33.999 18c-2.66699 4 -5 8.33301 -7 13c-4 9.33301 -6 18.666 -6 27.999c0 30.667 12 54.167 36 70.5
s51.667 24.5 83 24.5c81.333 0 122 -44 122 -132v-258c0 -8 5.33301 -14.167 16 -18.5s16.334 -11.166 17.001 -20.499c0 -35.333 -18 -53 -54 -53c-24 0 -47 15.333 -69 46c-26 -30 -51 -45 -75 -45c-27.333 0 -51 13.333 -71 40c-16 24 -24 51.333 -24 82
c0 51.333 13.833 94 41.5 128s66.834 55.333 117.501 64v50zM177.997 258c-28 -12 -47 -27.002 -57 -45.002c-6.66699 -15.333 -10 -39.666 -10 -72.999c0 -48 10.667 -72 32 -72c10 0 18.333 5.83301 25 17.5s10 22.834 10 33.501v139z" />
    <glyph glyph-name="acircumflex" unicode="&#xe2;" horiz-adv-x="301" 
d="M125 685l21.002 -0.000976562c15.333 0 28 -7 38 -21l59 -100l1 -9l-2 -9c-12.667 -12.667 -29 -19 -49 -19c-9.33301 0 -21.333 14.667 -36 44l-28 59l-17 -46.5c-2.66699 -7 -9.66699 -23.167 -21 -48.5l-6 -4l-5 -3h-7c-4.66699 0 -10.334 2 -17.001 6
s-10.334 8.66699 -11.001 14c0 10.667 6.66699 30.334 20 59.001l30 59c6.66699 12.667 16.667 19 30 19zM175.002 356.999c0 42 -12.0039 63 -36.0039 63c-8 0 -17.667 -5 -29 -15c15.333 -12 23 -24 23 -36s-5.16699 -23.167 -15.5 -33.5s-22.166 -15.5 -35.499 -15.5
s-24.666 6 -33.999 18c-2.66699 4 -5 8.33301 -7 13c-4 9.33301 -6 18.666 -6 27.999c0 30.667 12 54.167 36 70.5s51.667 24.5 83 24.5c81.333 0 122 -44 122 -132v-258c0 -8 5.33301 -14.167 16 -18.5s16.334 -11.166 17.001 -20.499c0 -35.333 -18 -53 -54 -53
c-24 0 -47 15.333 -69 46c-26 -30 -51 -45 -75 -45c-27.333 0 -51 13.333 -71 40c-16 24 -24 51.333 -24 82c0 51.333 13.833 94 41.5 128s66.834 55.333 117.501 64v50zM177.998 257.999c-28 -12 -47 -27.002 -57 -45.002c-6.66699 -15.333 -10 -39.666 -10 -72.999
c0 -48 10.667 -72 32 -72c10 0 18.333 5.83301 25 17.5s10 22.834 10 33.501v139z" />
    <glyph glyph-name="atilde" unicode="&#xe3;" horiz-adv-x="301" 
d="M9 580c0 18 13.333 33.667 40 47s49.334 20 68.001 20c13.333 0 31.833 -4.66699 55.5 -14s41.167 -14 52.5 -14c12 0 25.667 7 41 21h6c4.66699 -2 7.66699 -3.66699 9 -5l3 -7c-25.333 -46.667 -58 -70 -98 -70c-14 0 -32.5 4.83301 -55.5 14.5
s-40.833 14.5 -53.5 14.5c-11.333 0 -25 -6 -41 -18l-13 -5c-4.66699 0 -9.33398 3.33301 -14.001 10v6zM175 357c0 42 -12.0039 63 -36.0039 63c-8 0 -17.667 -5 -29 -15c15.333 -12 23 -24 23 -36s-5.16699 -23.167 -15.5 -33.5s-22.166 -15.5 -35.499 -15.5
s-24.666 6 -33.999 18c-2.66699 4 -5 8.33301 -7 13c-4 9.33301 -6 18.666 -6 27.999c0 30.667 12 54.167 36 70.5s51.667 24.5 83 24.5c81.333 0 122 -44 122 -132v-258c0 -8 5.33301 -14.167 16 -18.5s16.334 -11.166 17.001 -20.499c0 -35.333 -18 -53 -54 -53
c-24 0 -47 15.333 -69 46c-26 -30 -51 -45 -75 -45c-27.333 0 -51 13.333 -71 40c-16 24 -24 51.333 -24 82c0 51.333 13.833 94 41.5 128s66.834 55.333 117.501 64v50zM177.996 258c-28 -12 -47 -27.002 -57 -45.002c-6.66699 -15.333 -10 -39.666 -10 -72.999
c0 -48 10.667 -72 32 -72c10 0 18.333 5.83301 25 17.5s10 22.834 10 33.501v139z" />
    <glyph glyph-name="adieresis" unicode="&#xe4;" horiz-adv-x="301" 
d="M175 372c0 10 -3.00195 20.333 -9.00195 31s-14.333 16.667 -25 18c-13.333 0 -23.666 -4.66699 -30.999 -14c16 -12 24 -24 24 -36c0 -13.333 -5.16699 -25.166 -15.5 -35.499s-22.5 -15.5 -36.5 -15.5c-13.333 0 -24.5 5.66699 -33.5 17s-13.5 25 -13.5 41
c0 30 11.5 53.5 34.5 70.5s50.167 25.5 81.5 25.5c83.333 0 125 -45.333 125 -136v-252c0 -7.33301 5 -14 15 -20c9.33301 -3.33301 15 -7.33301 17 -12v-9c0 -35.333 -17.667 -53 -53 -53c-23.333 0 -47 15.333 -71 46c-16 -30 -39.667 -45 -71 -45
c-28.667 0 -52.667 13 -72 39c-16 22 -24 48.667 -24 80c0 55.333 13 98.666 39 129.999c22.667 26.667 62.334 48 119.001 64v66zM176.998 260c-28 -14 -46.001 -29 -54.001 -45s-12 -40.667 -12 -74c0 -48.667 10 -73 30 -73c10.667 0 19.334 5.5 26.001 16.5
s10 21.833 10 32.5v143zM35.9971 589c0 18.667 7.5 35.832 22.5 51.499s31.833 23.5 50.5 23.5c12 0 22 -4.16699 30 -12.5s12 -19.166 12 -32.499c0 -18 -7 -35.667 -21 -53c-14 -15.333 -30.667 -23 -50 -23c-29.333 0 -44 15.333 -44 46zM177.997 587.998
c0 18.667 7 36 21 52s30.667 24 50 24c12 0 22.167 -4.16699 30.5 -12.5s12.5 -18.833 12.5 -31.5c0 -18.667 -7.33301 -36.5 -22 -53.5s-31 -25.5 -49 -25.5c-28.667 0 -43 15.667 -43 47z" />
    <glyph glyph-name="aring" unicode="&#xe5;" horiz-adv-x="302" 
d="M174 378c0 28 -13.333 42 -40 42c-5.33301 0 -13 -5 -23 -15c14.667 -11.333 22 -24 22 -38c0 -13.333 -5 -24.5 -15 -33.5s-22 -13.5 -36 -13.5s-25.333 6.16699 -34 18.5s-13 26.5 -13 42.5c0 28 12 50.833 36 68.5s51 26.5 81 26.5c37.333 0 67.333 -11 90 -33
s34 -52.667 34 -92l-2 -90l-1 -90c0 -51.333 1.5 -81 4.5 -89s9 -13.833 18 -17.5s13.5 -10.167 13.5 -19.5c0 -35.333 -21.333 -53 -64 -53c-22 0 -42 15 -60 45c-20 -30 -45 -45 -75 -45c-34 0 -59 16.667 -75 50c-12 25.333 -18 57 -18 95c0 78 46.333 133.333 139 166
l18 4v71zM176 256c-26.667 -8.66699 -45 -23.667 -55 -45c-7.33301 -16 -11 -40 -11 -72c0 -47.333 11 -71 33 -71s33 19.333 33 58v130zM88 607c0 18.667 7.16699 35.166 21.5 49.499s31.5 21.5 51.5 21.5c21.333 0 39.666 -7 54.999 -21s23 -32 23 -54
c0 -21.333 -7.66699 -38.666 -23 -51.999s-33.666 -20 -54.999 -20c-20 0 -37.167 7.5 -51.5 22.5s-21.5 32.833 -21.5 53.5zM164 564.999c10 0 18.999 4 26.999 12s12 17.333 12 28c0 10 -3.5 19 -10.5 27s-15.5 12.333 -25.5 13c-9.33301 0 -18.666 -3.16699 -27.999 -9.5
s-14.333 -14.5 -15 -24.5c0 -12 3.83301 -22.667 11.5 -32s17.167 -14 28.5 -14z" />
    <glyph glyph-name="ae" unicode="&#xe6;" horiz-adv-x="431" 
d="M178 383c0 26 -13.3369 38.998 -40.0039 38.998c-8 0 -15.667 -4.66699 -23 -14c16 -7.33301 24 -18.666 24 -33.999c0 -14.667 -4.66699 -26.667 -14 -36c-8 -9.33301 -19.667 -14 -35 -14c-32 0 -48 19.667 -48 59c0 29.333 12.333 53 37 71c22 14.667 48.333 22 79 22
s62 -12.667 94 -38c18.667 24.667 40.334 37 65.001 37c38.667 0 68.667 -20 90 -60c16 -32 24 -70 24 -114c0 -15.333 -5 -26.666 -15 -33.999l-47 -23c-14 -6.66699 -28.167 -14 -42.5 -22s-28.833 -16.667 -43.5 -26c4 -20.667 11.333 -40 22 -58
c14.667 -24.667 29.667 -37 45 -37s27 9 35 27c6.66699 18 15.334 27.333 26.001 28c15.333 0 23 -15 23 -45c0 -15.333 -2 -29.333 -6 -42s-10.667 -25 -20 -37c-18 -25.333 -41.667 -38 -71 -38c-32.667 0 -59.667 10.667 -81 32c-16 16 -31 41.333 -45 76
c-6 -25.333 -17 -49 -33 -71c-20 -24 -42.333 -36 -67 -36c-29.333 0 -52.666 13.667 -69.999 41c-14.667 24 -22 51.333 -22 82c0 49.333 13.833 90.833 41.5 124.5s66.834 55.5 117.501 65.5v75zM179.996 259.998c-27.333 -13.333 -46 -29.667 -56 -49
c-7.33301 -14.667 -11 -38.667 -11 -72c0 -46.667 11.333 -70 34 -70c22 0 33 28.667 33 86v105zM338.996 320.997c0 16.667 -3.33301 38.333 -10 65s-16 40 -28 40c-20 0 -30 -19.333 -30 -58c0 -56 2.66699 -99 8 -129c13.333 6 27 17.333 41 34
c12.667 16.667 19 32.667 19 48z" />
    <glyph glyph-name="ccedilla" unicode="&#xe7;" horiz-adv-x="258" 
d="M136 -117c-36.667 0 -55.001 17.333 -55.001 52c0 12.667 4.16699 24.5 12.5 35.5s18.833 16.5 31.5 16.5c18 0 31.5 -7 40.5 -21s13.5 -30 13.5 -48c0 -17.333 -6.5 -38.5 -19.5 -63.5s-27.167 -38.833 -42.5 -41.5c-3.33301 2 -5.66602 5 -6.99902 9l5 12
c4.66699 7.33301 8 13 10 17l18 33l-3 -1h-4zM180.999 301c-3.33301 3.33301 -6.99902 26.0029 -10.999 68.0029c0 32.667 -9 49 -27 49c-28.667 0 -43 -36 -43 -108c0 -39.333 5.33301 -79.333 16 -120c14 -57.333 34.333 -86 61 -86c17.333 0 28.166 11.333 32.499 34
s13.5 34 27.5 34c9.33301 0 17 -6.66699 23 -20c4 -10 6 -21 6 -33c0 -33.333 -9.83301 -62.833 -29.5 -88.5s-45.167 -38.5 -76.5 -38.5c-48 0 -84.333 25.667 -109 77c-18.667 41.333 -28 88.666 -28 141.999c0 56.667 10.667 110.667 32 162
c27.333 68 64.333 102 111 102c25.333 0 47 -10.833 65 -32.5s27 -45.834 27 -72.501c0 -10.667 -10.167 -24.834 -30.5 -42.501s-35.833 -26.5 -46.5 -26.5z" />
    <glyph glyph-name="egrave" unicode="&#xe8;" horiz-adv-x="258" 
d="M89 681c16.667 0 30.333 -9.33203 41 -27.999l56 -105l1 -7c0 -8 -5 -12 -15 -12c-20.667 0 -49.667 17.667 -87 53c-33.333 31.333 -56 58.666 -68 81.999v4c0 8.66699 8.33301 13 25 13h47zM175.999 100.001c15.333 0 27 9 35 27s16.333 27 25 27
c16 0 24 -12.333 24 -37c0 -33.333 -8.5 -62.166 -25.5 -86.499s-41.833 -36.5 -74.5 -36.5c-45.333 0 -81 23 -107 69c-20 37.333 -30 81.666 -30 132.999c0 57.333 9 113.666 27 168.999c24 74 59.333 111 106 111c36 0 64 -19 84 -57c16.667 -31.333 25 -66.333 25 -105
v-12c0 -5.33301 -0.666992 -10.666 -2 -15.999c0 -11.333 -11 -22.333 -33 -33l-46 -18l-68 -37c14 -65.333 34 -98 60 -98zM107.999 241.001c42 22 63 50.332 63 84.999c0 12.667 -0.333008 22.334 -1 29.001s-2.66699 16.667 -6 30c-6 26.667 -16 40 -30 40
c-21.333 0 -32 -27.333 -32 -82z" />
    <glyph glyph-name="eacute" unicode="&#xe9;" horiz-adv-x="258" 
d="M153 680l53.998 -0.000976562c14.667 0 22 -5 22 -15c0 -7.33301 -11.667 -23.666 -35 -48.999l-47 -47c-26 -27.333 -50 -41 -72 -41c-9.33301 0 -14.666 4 -15.999 12c0 10.667 18.667 48 56 112c10.667 18.667 23.334 28 38.001 28zM175.998 99.999
c15.333 0 27 9 35 27s16.333 27 25 27c16 0 24 -12.333 24 -37c0 -33.333 -8.5 -62.166 -25.5 -86.499s-41.833 -36.5 -74.5 -36.5c-45.333 0 -81 23 -107 69c-20 37.333 -30 81.666 -30 132.999c0 57.333 9 113.666 27 168.999c24 74 59.333 111 106 111
c36 0 64 -19 84 -57c16.667 -31.333 25 -66.333 25 -105v-12c0 -5.33301 -0.666992 -10.666 -2 -15.999c0 -11.333 -11 -22.333 -33 -33l-46 -18l-68 -37c14 -65.333 34 -98 60 -98zM107.998 240.999c42 22 63 50.332 63 84.999c0 12.667 -0.333008 22.334 -1 29.001
s-2.66699 16.667 -6 30c-6 26.667 -16 40 -30 40c-21.333 0 -32 -27.333 -32 -82z" />
    <glyph glyph-name="ecircumflex" unicode="&#xea;" horiz-adv-x="258" 
d="M104 685l32.999 -0.999023c10 -2 18.333 -8.33301 25 -19c40 -64 60 -101 60 -111l-3 -8l-11 -10c-13.333 -6 -25.333 -9 -36 -9c-9.33301 0 -21.666 14.667 -36.999 44l-28 58c-13.333 -36 -20.333 -55 -21 -57c-8 -17.333 -13.667 -30 -17 -38l-12 -6h-8
c-9.33301 0 -18 5 -26 15l-1 5c0 9.33301 17 48.666 51 117.999c6.66699 12.667 17 19 31 19zM175.999 100.001c15.333 0 27 9 35 27s16.333 27 25 27c16 0 24 -12.333 24 -37c0 -33.333 -8.5 -62.166 -25.5 -86.499s-41.833 -36.5 -74.5 -36.5c-45.333 0 -81 23 -107 69
c-20 37.333 -30 81.666 -30 132.999c0 57.333 9 113.666 27 168.999c24 74 59.333 111 106 111c36 0 64 -19 84 -57c16.667 -31.333 25 -66.333 25 -105v-12c0 -5.33301 -0.666992 -10.666 -2 -15.999c0 -11.333 -11 -22.333 -33 -33l-46 -18l-68 -37
c14 -65.333 34 -98 60 -98zM107.999 241.001c42 22 63 50.332 63 84.999c0 12.667 -0.333008 22.334 -1 29.001s-2.66699 16.667 -6 30c-6 26.667 -16 40 -30 40c-21.333 0 -32 -27.333 -32 -82z" />
    <glyph glyph-name="edieresis" unicode="&#xeb;" horiz-adv-x="258" 
d="M-4 595c0 16.667 7.66797 32.668 23.001 48.001s31.666 23 48.999 23c29.333 0 44 -15.667 44 -47c0 -16.667 -7.5 -33.5 -22.5 -50.5s-30.5 -25.5 -46.5 -25.5c-12.667 0 -23.667 3.66699 -33 11s-14 16.666 -14 27.999v13zM210.001 666.001
c28.667 0 43 -14.332 43 -42.999c0 -10 -1.66699 -19.167 -5 -27.5s-9.33301 -17.5 -18 -27.5c-14 -17.333 -30.667 -26 -50 -26c-12 0 -22.333 4.33301 -31 13c-7.33301 9.33301 -11 20.666 -11 33.999c0 20 7 37.833 21 53.5s31 23.5 51 23.5zM176.001 100.002
c15.333 0 27 9 35 27s16.333 27 25 27c16 0 24 -12.333 24 -37c0 -33.333 -8.5 -62.166 -25.5 -86.499s-41.833 -36.5 -74.5 -36.5c-45.333 0 -81 23 -107 69c-20 37.333 -30 81.666 -30 132.999c0 57.333 9 113.666 27 168.999c24 74 59.333 111 106 111
c36 0 64 -19 84 -57c16.667 -31.333 25 -66.333 25 -105v-12c0 -5.33301 -0.666992 -10.666 -2 -15.999c0 -11.333 -11 -22.333 -33 -33l-46 -18l-68 -37c14 -65.333 34 -98 60 -98zM108.001 241.002c42 22 63 50.332 63 84.999c0 12.667 -0.333008 22.334 -1 29.001
s-2.66699 16.667 -6 30c-6 26.667 -16 40 -30 40c-21.333 0 -32 -27.333 -32 -82z" />
    <glyph glyph-name="igrave" unicode="&#xec;" horiz-adv-x="173" 
d="M49 681c16 0 29 -9 39 -27l58 -106l1 -7c0 -8 -5.33301 -12 -16 -12c-20 0 -49.333 18 -88 54s-60.667 64.333 -66 85c2 8.66699 10 13 24 13h48zM129 474c12.667 0 19.001 -10.999 19.001 -32.999v-373l1 -5v-4c0 -6 3 -12.333 9 -19s10 -13.334 12 -20.001
c-2 -12.667 -9.66699 -19 -23 -19h-108c-4 0 -8 2 -12 6s-6 8 -6 12c0 5.33301 3.83301 11.833 11.5 19.5s11.5 15.834 11.5 24.501v297c0 9.33301 -4.33301 18.666 -13 27.999l-13 17c0 8.66699 15.667 22 47 40s52.666 27.667 63.999 29z" />
    <glyph glyph-name="iacute" unicode="&#xed;" horiz-adv-x="173" 
d="M113 680l52.998 0.000976562c14.667 0 22 -5 22 -15c0 -8 -26.667 -40 -80 -96c-26 -27.333 -50.667 -41 -74 -41c-9.33301 0 -14.666 4 -15.999 12c0 9.33301 19 46.666 57 111.999c10.667 18.667 23.334 28 38.001 28zM128.998 474.001
c12.667 0 19.001 -10.999 19.001 -32.999v-373l1 -5v-4c0 -6 3 -12.333 9 -19s10 -13.334 12 -20.001c-2 -12.667 -9.66699 -19 -23 -19h-108c-4 0 -8 2 -12 6s-6 8 -6 12c0 5.33301 3.83301 11.833 11.5 19.5s11.5 15.834 11.5 24.501v297
c0 9.33301 -4.33301 18.666 -13 27.999l-13 17c0 8.66699 15.667 22 47 40s52.666 27.667 63.999 29z" />
    <glyph glyph-name="icircumflex" unicode="&#xee;" horiz-adv-x="173" 
d="M63 685l32.999 -1c10 -2 18.333 -8.66699 25 -20c15.333 -22 35.333 -57 60 -105v-4l-2 -9c-12.667 -12.667 -28.334 -19 -47.001 -19c-5.33301 0 -10.666 3 -15.999 9c-2 8 -4.66699 15.5 -8 22.5s-8.33301 15.5 -15 25.5l-27 46c-10 -28 -23 -60 -39 -96l-10 -6h-7
c-4.66699 0 -10.667 2 -18 6c-5.33301 4 -8.66602 9 -9.99902 15c0 8 17 47 51 117c6.66699 12.667 16.667 19 30 19zM128.999 474c12.667 0 19.001 -10.999 19.001 -32.999v-373l1 -5v-4c0 -6 3 -12.333 9 -19s10 -13.334 12 -20.001c-2 -12.667 -9.66699 -19 -23 -19h-108
c-4 0 -8 2 -12 6s-6 8 -6 12c0 5.33301 3.83301 11.833 11.5 19.5s11.5 15.834 11.5 24.501v297c0 9.33301 -4.33301 18.666 -13 27.999l-13 17c0 8.66699 15.667 22 47 40s52.666 27.667 63.999 29z" />
    <glyph glyph-name="idieresis" unicode="&#xef;" horiz-adv-x="173" 
d="M-45 595c0 16.667 7.66797 32.668 23.001 48.001s31.666 23 48.999 23c29.333 0 44 -15.667 44 -47c0 -16.667 -7.5 -33.5 -22.5 -50.5s-30.5 -25.5 -46.5 -25.5c-12 0 -22.833 3.66699 -32.5 11s-14.5 16.666 -14.5 27.999v13zM172.001 666.001
c26.667 0 40.001 -14.667 40.001 -44c0 -18.667 -7.66699 -36.5 -23 -53.5s-32.333 -25.5 -51 -25.5c-12.667 0 -22.667 4.66699 -30 14s-11 20 -11 32c0 20.667 7.16699 38.667 21.5 54s32.166 23 53.499 23zM128.002 474.001c12.667 0 19.001 -10.999 19.001 -32.999v-373
l1 -5v-4c0 -6 3 -12.333 9 -19s10 -13.334 12 -20.001c-2 -12.667 -9.66699 -19 -23 -19h-108c-4 0 -8 2 -12 6s-6 8 -6 12c0 5.33301 3.83301 11.833 11.5 19.5s11.5 15.834 11.5 24.501v297c0 9.33301 -4.33301 18.666 -13 27.999l-13 17c0 8.66699 15.667 22 47 40
s52.666 27.667 63.999 29z" />
    <glyph glyph-name="ntilde" unicode="&#xf1;" 
d="M18 580c0 16.667 14.001 32.667 42.001 48c25.333 12.667 47 19 65 19c14 0 33 -4.66699 57 -14s42 -14 54 -14c13.333 0 26.666 7 39.999 21h6l10 -5l2 -7c-2 -17.333 -14.333 -33.333 -37 -48c-11.333 -7.33301 -22 -12.833 -32 -16.5s-19.667 -5.5 -29 -5.5
c-14 0 -32.667 4.66699 -56 14s-41 14 -53 14c-4.66699 0 -9.16699 -0.5 -13.5 -1.5s-10.5 -4.33301 -18.5 -10s-15.333 -9.16699 -22 -10.5c-10 0 -15 5.33301 -15 16zM126.001 472c9.33301 0 16 -8 20 -24l3 -37c14 42.667 33.333 64 58 64c27.333 0 50 -30.333 68 -91
c12.667 -42 23 -103 31 -183l11 -137c0 -6.66699 3.16699 -14.5 9.5 -23.5s9.83301 -16.833 10.5 -23.5c-6.66699 -10.667 -16.667 -16 -30 -16h-88c-15.333 0 -23 6.33301 -23 19c0 4 5 11.667 15 23c2 5.33301 3 13 3 23c0 29.333 -4.66699 85.833 -14 169.5
s-17.333 128.834 -24 135.501l-5 3l-5 3c-13.333 -2 -20 -15.333 -20 -40l-2 -180c0 -54.667 1 -90 3 -106l19 -29v-4c0 -11.333 -9.33301 -17 -28 -17h-89c-17.333 0 -26 6.33301 -26 19c0 4 3.83301 10.667 11.5 20s11.5 18 11.5 26v296
c0 7.33301 -3.5 15.166 -10.5 23.499s-11.167 14.5 -12.5 18.5c0 9.33301 14.5 23 43.5 41s48.833 27 59.5 27z" />
    <glyph glyph-name="ograve" unicode="&#xf2;" horiz-adv-x="302" 
d="M111 681c16 0 29.333 -9.33203 40 -27.999c37.333 -66.667 56.666 -104 57.999 -112c0 -8 -5.33301 -12 -16 -12c-19.333 0 -49.666 19.5 -90.999 58.5s-62 66.833 -62 83.5c5.33301 5.33301 13.333 8.66602 24 9.99902h47zM161 479.001
c43.333 0 77.332 -31.333 101.999 -94c18 -47.333 27 -97.333 27 -150c0 -58 -7.66699 -108 -23 -150c-22 -61.333 -56 -92 -102 -92c-45.333 0 -81.666 29 -108.999 87c-20 44 -30 93.333 -30 148c0 56 9 108 27 156c24 63.333 60 95 108 95zM198.999 97.001
c7.33301 0 13.1689 3.16797 17.502 9.50098s7.16602 14.166 8.49902 23.499c0 16.667 -2.66699 36.334 -8 59.001s-14.333 52.334 -27 89.001c-26 76 -50.667 114 -74 114c-8.66699 0 -15.334 -3.33301 -20.001 -10s-7.66699 -14.667 -9 -24
c0 -12.667 2.66699 -29.834 8 -51.501s14.333 -51.167 27 -88.5c24 -72.667 44.333 -112.334 61 -119.001z" />
    <glyph glyph-name="oacute" unicode="&#xf3;" horiz-adv-x="302" 
d="M176 680h52.001c15.333 0 23 -5.66699 23 -17c0 -4.66699 -4.66699 -12.667 -14 -24c-16 -20 -37 -42.667 -63 -68c-32.667 -28.667 -58.334 -43 -77.001 -43c-10 0 -15 4.33301 -15 13c0 10 18 47 54 111c10.667 18.667 24 28 40 28zM161.001 479
c43.333 0 77.332 -31.333 101.999 -94c18 -47.333 27 -97.333 27 -150c0 -58 -7.66699 -108 -23 -150c-22 -61.333 -56 -92 -102 -92c-45.333 0 -81.666 29 -108.999 87c-20 44 -30 93.333 -30 148c0 56 9 108 27 156c24 63.333 60 95 108 95zM199 97
c7.33301 0 13.1689 3.16797 17.502 9.50098s7.16602 14.166 8.49902 23.499c0 16.667 -2.66699 36.334 -8 59.001s-14.333 52.334 -27 89.001c-26 76 -50.667 114 -74 114c-8.66699 0 -15.334 -3.33301 -20.001 -10s-7.66699 -14.667 -9 -24
c0 -12.667 2.66699 -29.834 8 -51.501s14.333 -51.167 27 -88.5c24 -72.667 44.333 -112.334 61 -119.001z" />
    <glyph glyph-name="ocircumflex" unicode="&#xf4;" horiz-adv-x="302" 
d="M125 685l21.002 -0.000976562c15.333 0 28 -7 38 -21l59 -100l1 -9l-2 -9c-12.667 -12.667 -29 -19 -49 -19c-9.33301 0 -21.333 14.667 -36 44l-28 59l-17 -46.5c-2.66699 -7 -9.66699 -23.167 -21 -48.5l-6 -4l-5 -3h-7c-4.66699 0 -10.334 2 -17.001 6
s-10.334 8.66699 -11.001 14c0 10.667 6.66699 30.334 20 59.001l30 59c6.66699 12.667 16.667 19 30 19zM161.002 478.999c43.333 0 77.332 -31.333 101.999 -94c18 -47.333 27 -97.333 27 -150c0 -58 -7.66699 -108 -23 -150c-22 -61.333 -56 -92 -102 -92
c-45.333 0 -81.666 29 -108.999 87c-20 44 -30 93.333 -30 148c0 56 9 108 27 156c24 63.333 60 95 108 95zM199.001 96.999c7.33301 0 13.1689 3.16797 17.502 9.50098s7.16602 14.166 8.49902 23.499c0 16.667 -2.66699 36.334 -8 59.001s-14.333 52.334 -27 89.001
c-26 76 -50.667 114 -74 114c-8.66699 0 -15.334 -3.33301 -20.001 -10s-7.66699 -14.667 -9 -24c0 -12.667 2.66699 -29.834 8 -51.501s14.333 -51.167 27 -88.5c24 -72.667 44.333 -112.334 61 -119.001z" />
    <glyph glyph-name="otilde" unicode="&#xf5;" horiz-adv-x="302" 
d="M9 580c0 18 13.333 33.667 40 47s49.334 20 68.001 20c13.333 0 31.833 -4.66699 55.5 -14s41.167 -14 52.5 -14c12 0 25.667 7 41 21h6c4.66699 -2 7.66699 -3.66699 9 -5l3 -7c-25.333 -46.667 -58 -70 -98 -70c-14 0 -32.5 4.83301 -55.5 14.5
s-40.833 14.5 -53.5 14.5c-11.333 0 -25 -6 -41 -18l-13 -5c-4.66699 0 -9.33398 3.33301 -14.001 10v6zM161 479c43.333 0 77.332 -31.333 101.999 -94c18 -47.333 27 -97.333 27 -150c0 -58 -7.66699 -108 -23 -150c-22 -61.333 -56 -92 -102 -92
c-45.333 0 -81.666 29 -108.999 87c-20 44 -30 93.333 -30 148c0 56 9 108 27 156c24 63.333 60 95 108 95zM198.999 97c7.33301 0 13.1689 3.16797 17.502 9.50098s7.16602 14.166 8.49902 23.499c0 16.667 -2.66699 36.334 -8 59.001s-14.333 52.334 -27 89.001
c-26 76 -50.667 114 -74 114c-8.66699 0 -15.334 -3.33301 -20.001 -10s-7.66699 -14.667 -9 -24c0 -12.667 2.66699 -29.834 8 -51.501s14.333 -51.167 27 -88.5c24 -72.667 44.333 -112.334 61 -119.001z" />
    <glyph glyph-name="odieresis" unicode="&#xf6;" horiz-adv-x="302" 
d="M156 479c46.667 0 82.333 -31.666 107 -94.999c18 -47.333 27 -99.333 27 -156c0 -54 -8.33301 -102.667 -25 -146c-22 -59.333 -55.333 -89 -100 -89c-46.667 0 -83 28.667 -109 86c-20 44 -30 93.667 -30 149c0 53.333 9 104.666 27 153.999
c24 64.667 58.333 97 103 97zM199.999 97.001c16.667 0 24.999 11.332 24.999 33.999c0 32 -11.667 81 -35 147c-26 76 -50.333 114 -73 114c-7.33301 0 -14.666 -4 -21.999 -12c-4 -6 -6.66699 -14 -8 -24c0 -13.333 2.66699 -30.666 8 -51.999s14.333 -50.333 27 -87
c24.667 -72.667 45 -112 61 -118zM27.998 591c0 18.667 7.5 35.833 22.5 51.5s31.5 23.5 49.5 23.5c12 0 22.333 -4.33301 31 -13s13 -18.667 13 -30c0 -18.667 -7.33301 -36.5 -22 -53.5s-31 -25.5 -49 -25.5c-30 0 -45 15.667 -45 47zM242.998 665.999
c28 0 42.001 -15.667 42.001 -47c0 -17.333 -7.33301 -34.333 -22 -51s-30.334 -25 -47.001 -25c-30.667 0 -46 15.333 -46 46c0 18.667 7.16699 36.167 21.5 52.5s31.5 24.5 51.5 24.5z" />
    <glyph glyph-name="divide" unicode="&#xf7;" horiz-adv-x="548" 
d="M10 282h510v-53h-510v53zM260 442c14 0 26.5 -5.33301 37.5 -16s16.5 -23.334 16.5 -38.001c0 -14 -5.33301 -26.5 -16 -37.5s-23.334 -16.5 -38.001 -16.5c-14 0 -26.5 5.33301 -37.5 16s-16.5 23.334 -16.5 38.001c0 14 5.33301 26.5 16 37.5s23.334 16.5 38.001 16.5z
M260 178c14 0 26.502 -5.50098 37.502 -16.501s16.5 -23.833 16.5 -38.5c0 -14 -5.33301 -26.5 -16 -37.5s-23.334 -16.5 -38.001 -16.5c-14 0 -26.5 5.33301 -37.5 16s-16.5 23.334 -16.5 38.001c0 14 5.16699 26.667 15.5 38s23.166 17 38.499 17z" />
    <glyph glyph-name="oslash" unicode="&#xf8;" horiz-adv-x="301" 
d="M51 87c-15.333 49.333 -23 94.335 -23 135.002c0 56.667 9.66699 108.667 29 156c24 64.667 59.333 97 106 97c15.333 0 29.666 -5 42.999 -15c6.66699 -5.33301 17 -17 31 -35c5.33301 10.667 16.333 28 33 52l7 3c18 0 27 -8.33301 27 -25
c0 -6.66699 -13.333 -33.334 -40 -80.001c15.333 -56 23 -101 23 -135c0 -30.667 -1.66699 -57.834 -5 -81.501s-9.33301 -47.5 -18 -71.5c-22 -62.667 -56.667 -94 -104 -94c-29.333 0 -56.666 15 -81.999 45c-4 -8 -7.83301 -15 -11.5 -21s-9.5 -14.333 -17.5 -25l-1 -3
l-8 -3h-4c-16 0 -24 7.66699 -24 23c0 6.66699 5.33301 19.667 16 39zM175 307.002c-20 54 -39.333 81 -58 81c-16 0 -24 -11 -24 -33c0 -28.667 10.333 -73.667 31 -135c15.333 30 32.333 59 51 87zM199 94.002c14 0 21 12.6689 21 38.002c0 13.333 -2 29.166 -6 47.499
s-10.667 41.166 -20 68.499l-49 -88c4 -16 10.333 -30 19 -42c10 -16 21.667 -24 35 -24z" />
    <glyph glyph-name="ugrave" unicode="&#xf9;" 
d="M121 681c15.333 0 29 -8.99902 41 -26.999c38 -65.333 57 -103 57 -113c0 -8 -5 -12 -15 -12c-20 0 -50.667 19.167 -92 57.5s-62 66.5 -62 84.5c5.33301 5.33301 13.333 8.66602 24 9.99902h47zM125 473.001l5 -2c6.66699 -4.66699 10 -42 10 -112l-2 -102l-1 -101
c0 -47.333 6.66699 -71 20 -71c11.333 0 21.666 9 30.999 27c6.66699 16.667 10 31.334 10 44.001v200v6l-2 5l-14 22l-12 20c0 9.33301 16 22.666 48 39.999s53.667 26 65 26c9.33301 0 14 -6.33301 14 -19v-328c0 -12.667 0.333008 -21.834 1 -27.501s3 -13.167 7 -22.5
c0.666992 -6 6 -16.667 16 -32c0 -5.33301 -1.66699 -10.333 -5 -15s-18.166 -12 -44.499 -22s-43.5 -15.667 -51.5 -17c-16.667 0 -25 15.667 -25 47c0 9.33301 0.666992 15.333 2 18c-18 -42.667 -45.667 -64 -83 -64c-24.667 0 -44 13.667 -58 41
c-11.333 21.333 -17 46 -17 74v251c0 11.333 -3.33301 21.5 -10 30.5s-10.667 17.167 -12 24.5l2 6c2 4.66699 18.167 14.334 48.5 29.001s49.5 22.667 57.5 24z" />
    <glyph glyph-name="uacute" unicode="&#xfa;" 
d="M186 680h53c13.333 0 20.666 -5 21.999 -15c0 -8 -11.333 -24.333 -34 -49l-46 -47c-26 -27.333 -50.333 -41 -73 -41c-9.33301 0 -14.666 4 -15.999 12c0 8 18.333 45.333 55 112c10.667 18.667 23.667 28 39 28zM125 473l5 -2c6.66699 -4.66699 10 -42 10 -112l-2 -102
l-1 -101c0 -47.333 6.66699 -71 20 -71c11.333 0 21.666 9 30.999 27c6.66699 16.667 10 31.334 10 44.001v200v6l-2 5l-14 22l-12 20c0 9.33301 16 22.666 48 39.999s53.667 26 65 26c9.33301 0 14 -6.33301 14 -19v-328c0 -12.667 0.333008 -21.834 1 -27.501
s3 -13.167 7 -22.5c0.666992 -6 6 -16.667 16 -32c0 -5.33301 -1.66699 -10.333 -5 -15s-18.166 -12 -44.499 -22s-43.5 -15.667 -51.5 -17c-16.667 0 -25 15.667 -25 47c0 9.33301 0.666992 15.333 2 18c-18 -42.667 -45.667 -64 -83 -64c-24.667 0 -44 13.667 -58 41
c-11.333 21.333 -17 46 -17 74v251c0 11.333 -3.33301 21.5 -10 30.5s-10.667 17.167 -12 24.5l2 6c2 4.66699 18.167 14.334 48.5 29.001s49.5 22.667 57.5 24z" />
    <glyph glyph-name="ucircumflex" unicode="&#xfb;" 
d="M136 685l33 -0.999023c8.66699 -2 17 -9 25 -21l34 -52c13.333 -21.333 22.333 -40 27 -56l-3 -9l-10 -10c-18 -6 -30 -9 -36 -9c-3.33301 0 -9 3 -17 9l-50 94c-7.33301 -22 -13 -38 -17 -48s-11 -26 -21 -48l-17 -6c-8 0 -17.667 5 -29 15v5
c0 9.33301 17 48.666 51 117.999c6.66699 12.667 16.667 19 30 19zM124 473.001l5 -2c6.66699 -4.66699 10 -42 10 -112l-2 -102l-1 -101c0 -47.333 6.66699 -71 20 -71c11.333 0 21.666 9 30.999 27c6.66699 16.667 10 31.334 10 44.001v200v6l-2 5l-14 22l-12 20
c0 9.33301 16 22.666 48 39.999s53.667 26 65 26c9.33301 0 14 -6.33301 14 -19v-328c0 -12.667 0.333008 -21.834 1 -27.501s3 -13.167 7 -22.5c0.666992 -6 6 -16.667 16 -32c0 -5.33301 -1.66699 -10.333 -5 -15s-18.166 -12 -44.499 -22s-43.5 -15.667 -51.5 -17
c-16.667 0 -25 15.667 -25 47c0 9.33301 0.666992 15.333 2 18c-18 -42.667 -45.667 -64 -83 -64c-24.667 0 -44 13.667 -58 41c-11.333 21.333 -17 46 -17 74v251c0 11.333 -3.33301 21.5 -10 30.5s-10.667 17.167 -12 24.5l2 6c2 4.66699 18.167 14.334 48.5 29.001
s49.5 22.667 57.5 24z" />
    <glyph glyph-name="udieresis" unicode="&#xfc;" 
d="M124 472c8.66699 0 13.001 -6.33105 13.001 -18.998v-309c0 -38.667 7.33301 -58 22 -58c12 0 22 9.66699 30 29c6 15.333 9 30.666 9 45.999v200c0 10 -4.16699 19.167 -12.5 27.5s-13.5 15.5 -15.5 21.5c2 10 18.667 23.333 50 40s52.666 25 63.999 25
c7.33301 0 11.666 -5 12.999 -15l-2 -111l-1 -111c0 -86 2.66699 -137 8 -153c2.66699 -8.66699 6.33398 -17 11.001 -25l8 -16c0 -10.667 -13.333 -21 -40 -31c-32 -10 -49.667 -16.667 -53 -20l-3 -1h-4c-17.333 0 -26 14.667 -26 44l1 21
c-12.667 -23.333 -22 -38 -28 -44c-12 -13.333 -27.333 -20 -46 -20c-55.333 0 -83 40.333 -83 121v249c0 7.33301 -3.33301 15.666 -10 24.999s-10.667 18.333 -12 27c0 6 15.667 17 47 33s51.333 24 60 24zM44.001 590.002c0 18.667 7.5 35.833 22.5 51.5
s31.5 23.5 49.5 23.5c9.33301 0 18.5 -3.83301 27.5 -11.5s14.167 -17.167 15.5 -28.5c0 -20 -7 -38.833 -21 -56.5s-31 -26.5 -51 -26.5c-28.667 0 -43 16 -43 48zM185.001 594.001c0 16.667 8.16602 32.667 24.499 48s32.833 23 49.5 23
c10.667 0 20.334 -4.33301 29.001 -13s13 -18.334 13 -29.001c0 -17.333 -7.16699 -35.166 -21.5 -53.499s-30.5 -27.5 -48.5 -27.5c-30.667 0 -46 17.333 -46 52z" />
    <glyph glyph-name="ydieresis" unicode="&#xff;" horiz-adv-x="279" 
d="M80 666c28.667 0 43 -15.667 43 -47c0 -16.667 -7.5 -33.5 -22.5 -50.5s-30.167 -25.5 -45.5 -25.5c-31.333 0 -47 15.667 -47 47c0 18.667 7 36 21 52s31 24 51 24zM221 666c11.333 0 21.5 -4.16699 30.5 -12.5s13.5 -18.5 13.5 -30.5
c0 -18.667 -7.66699 -36.667 -23 -54s-32 -26 -50 -26c-12 0 -22.167 4.66699 -30.5 14s-12.5 20 -12.5 32c0 19.333 7 37 21 53s31 24 51 24zM123 467c11.333 0 16.999 -6.33496 16.999 -19.002c0 -0.666992 -0.333008 -2.16699 -1 -4.5s-3 -6.16602 -7 -11.499
s-6.66699 -11.666 -8 -18.999c0 -25.333 5 -60.666 15 -105.999l23 -106l23 104c9.33301 45.333 14 79.666 14 102.999c0 8 -6.33301 18.667 -19 32l-3 11c0 10.667 8 16 24 16h72c9.33301 0 16 -5.33301 20 -16c0 -6 -4 -13.167 -12 -21.5s-13 -16.833 -15 -25.5l-24 -135
l-30 -159c-9.33301 -50.667 -20.666 -107.667 -33.999 -171c-6.66699 -35.333 -20 -60 -40 -74c-16.667 -11.333 -44 -17 -82 -17c-18 0 -29 10.667 -33 32l-14 81c0 3.33301 3 10 9 20l7 3c8 0 17 -7.16699 27 -21.5s20 -21.5 30 -21.5c22 0 33 19.667 33 59
c0 12 -0.666992 20 -2 24l-88 385c-2 9.33301 -8.33301 19 -19 29l-4 10c0 12.667 9 19 27 19h94z" />
    <glyph glyph-name="c128" unicode="&#x112;" horiz-adv-x="548" 
d="M437 505l-73 -132h160v-53h-189l-76 -135h265v-53h-294l-87 -156l-48 27l72 129h-152v53h182l75 135h-257v53h287l88 160z" />
    <glyph glyph-name="c129" unicode="&#x113;" horiz-adv-x="713" 
d="M532 392c37.333 0 69.499 -13.167 96.499 -39.5s40.5 -57.833 40.5 -94.5c0 -36 -13 -67.833 -39 -95.5s-57 -41.5 -93 -41.5c-38 0 -73 10.667 -105 32l-85 70c-42 -37.333 -70.333 -61 -85 -71c-33.333 -21.333 -68.666 -32 -105.999 -32
c-36 0 -66.833 14.167 -92.5 42.5s-38.5 60.5 -38.5 96.5c0 36.667 13.667 67.667 41 93c14 14 28.5 24.167 43.5 30.5s32.167 9.5 51.5 9.5c32 0 65.667 -11.667 101 -35c18 -11.333 46.333 -34.333 85 -69c38 34 66 57 84 69c35.333 23.333 69 35 101 35zM162.999 342
c-23.333 0 -43.999 -9.33398 -61.999 -28.001c-16.667 -18.667 -25 -40 -25 -64c0 -21.333 9 -40.666 27 -57.999c18 -16 39 -24 63 -24c28 0 55.667 9.66699 83 29c12 8 34.667 27.667 68 59c-30.667 27.333 -54.334 46 -71.001 56c-30 20 -57.667 30 -83 30zM530 166.999
c24 0 45.168 8.16797 63.501 24.501s27.5 36.166 27.5 59.499c0 24.667 -8.66699 46 -26 64c-16 18 -36.333 27 -61 27c-23.333 0 -51 -10 -83 -30c-14.667 -9.33301 -38.334 -28 -71.001 -56c34 -32.667 56.333 -52.667 67 -60c27.333 -19.333 55 -29 83 -29z" />
    <glyph glyph-name="c141" unicode="&#x114;" horiz-adv-x="611" 
d="M590 0h-584l310 667zM70 48h399l-188 453z" />
    <glyph glyph-name="c142" unicode="&#x115;" horiz-adv-x="494" 
d="M207 0l-189 366l189 357h58l188 -357l-188 -366h-58zM236 670l-159 -304l159 -314l159 314z" />
    <glyph glyph-name="mu1" unicode="&#x116;" horiz-adv-x="575" 
d="M143 485l-0.000976562 -322.003c0 -74.667 30.333 -112 91 -112c20 0 41.167 7.5 63.5 22.5s37.5 32.167 45.5 51.5v360h84v-372c0 -17.333 4.33301 -35.333 13 -54s21.334 -28 38.001 -28c17.333 0 30 7.66699 38 23l15 45l19 -1c-18 -76 -57.333 -114 -118 -114
c-28 0 -49.333 9.33301 -64 28c-8.66699 12 -17 35 -25 69c-15.333 -26 -37 -48 -65 -66c-31.333 -20.667 -60 -31 -86 -31c-20 0 -37.667 5.33301 -53 16l-45 31v-22c0 -19.333 5.33301 -46.166 16 -80.499s16 -59.5 16 -75.5c0 -17.333 -3.66699 -32.333 -11 -45
c-8 -16 -20 -24 -36 -24c-15.333 0 -27 7.16699 -35 21.5s-12 29.833 -12 46.5c0 18.667 4.5 45.334 13.5 80.001s13.5 60.334 13.5 77.001v476h84z" />
    <glyph glyph-name="c279" unicode="&#x117;" horiz-adv-x="237" 
d="M23 262c0 16 8.66699 24 26 24h156l5 -2h8c8 -4 12 -10.333 12 -19v-56c0 -16.667 -9 -25 -27 -25h-156c-16 0 -24 8.33301 -24 25v53z" />
    <glyph glyph-name="c281" unicode="&#x119;" horiz-adv-x="424" 
d="M396 533c0 -8.66699 -2.33203 -16.832 -6.99902 -24.499s-11 -12.167 -19 -13.5c-16 0 -33.333 26.167 -52 78.5s-37.334 78.5 -56.001 78.5c-36 0 -54 -114 -54 -342c0 -79.333 5.83301 -138.333 17.5 -177s30.167 -58 55.5 -58c36.667 0 55 57 55 171
c0 34 8.66699 51 26 51c32.667 0 49 -39.667 49 -119c0 -53.333 -11 -97 -33 -131c-26 -39.333 -64.667 -59 -116 -59c-70 0 -121.667 37 -155 111c-23.333 54 -35 122 -35 204c0 44 3 86.167 9 126.5s15.667 81.166 29 122.499c34 110.667 84.333 166 151 166l24 -4l26 -3
l17 4l18 5c7.33301 0 14 -8 20 -24l9 -42c14 -62 21 -102.333 21 -121zM307.001 369.002h-282l9 37h281zM290.001 295.002h-265l9 37h264z" />
    <glyph glyph-name="dotlessi" unicode="&#x131;" horiz-adv-x="173" 
d="M129 474c12.667 0 19.001 -10.999 19.001 -32.999v-373l1 -5v-4c0 -6 3 -12.333 9 -19s10 -13.334 12 -20.001c-2 -12.667 -9.66699 -19 -23 -19h-108c-4 0 -8 2 -12 6s-6 8 -6 12c0 5.33301 3.83301 11.833 11.5 19.5s11.5 15.834 11.5 24.501v297
c0 9.33301 -4.33301 18.666 -13 27.999l-13 17c0 8.66699 15.667 22 47 40s52.666 27.667 63.999 29z" />
    <glyph glyph-name="OE" unicode="&#x152;" horiz-adv-x="581" 
d="M461 705l23.0068 7l24 7c11.333 -4 19.333 -14 24 -30l22 -74c8.66699 -32.667 13 -58 13 -76c0 -17.333 -7 -26 -21 -26c-11.333 0 -25 11.333 -41 34l-45 64c-19.333 22.667 -39 34 -59 34c-16.667 0 -25 -9.66699 -25 -29v-139c0 -22.667 10 -34 30 -34
c9.33301 0 17.166 7.5 23.499 22.5s14.166 22.833 23.499 23.5c11.333 0 20.333 -7.66699 27 -23c36 -82 54 -132.667 54 -152c0 -16 -7.66699 -24 -23 -24c-6 0 -20.833 14.167 -44.5 42.5s-43.834 42.5 -60.501 42.5c-19.333 0 -29 -11 -29 -33v-241
c0 -20 11.667 -30 35 -30s45.666 11 66.999 33l44 61c15.333 22 29 33 41 33c11.333 0 18 -8 20 -24c0 -22.667 -10.333 -65 -31 -127l-12 -32l-8 -20l-11 -7c-6 0 -15.333 2.16699 -28 6.5s-22.334 6.5 -29.001 6.5h-177c-6.66699 0 -17.334 -2 -32.001 -6
s-26.334 -6 -35.001 -6c-71.333 0 -124 35 -158 105c-24 51.333 -36 118.333 -36 201c0 96 12.667 182 38 258c35.333 110.667 89.333 166 162 166c20 0 38 -4.66699 54 -14h180zM254.007 616c0 25.333 -10.667 38 -32 38c-16.667 0 -29 -9.66699 -37 -29
c-15.333 -40.667 -23 -180.667 -23 -420c0 -94 19.333 -141 58 -141c22.667 0 34 11.667 34 35v517z" />
    <glyph glyph-name="oe" unicode="&#x153;" horiz-adv-x="451" 
d="M345 472c36 0 63.999 -20.6689 83.999 -62.002c7.33301 -15.333 13 -32.166 17 -50.499s6 -38.166 6 -59.499c0 -18 -5.33301 -30.333 -16 -37l-45 -22c-30.667 -14 -58.334 -29.333 -83.001 -46c15.333 -65.333 36 -98 62 -98c12 0 22 9 30 27s18 27 30 27
c14 0 21 -15 21 -45c0 -32 -9.16699 -59.167 -27.5 -81.5s-43.5 -33.5 -75.5 -33.5c-20.667 0 -39.667 6 -57 18l-44 42c-26 -40 -57.667 -60 -95 -60c-42 0 -75 24.667 -99 74c-19.333 40 -29 83.333 -29 130c0 62 10.333 119.667 31 173c28 70 68.333 105 121 105
c30.667 0 58.334 -19.667 83.001 -59c20.667 38.667 49.334 58 86.001 58zM93.999 350.998c0 -38 9.33301 -87.999 28 -149.999c22 -76 46 -114 72 -114c18 0 27 15 27 45c0 37.333 -9 86.666 -27 147.999c-21.333 74.667 -45.333 112 -72 112
c-18.667 0 -28 -13.667 -28 -41zM359.999 323.999c0 16 -3.33301 36.499 -10 61.499s-16 37.5 -28 37.5c-22 0 -33 -27.333 -33 -82c0 -33.333 3 -67.666 9 -102.999c41.333 28 62 56.667 62 86z" />
    <glyph glyph-name="Scaron" unicode="&#x160;" horiz-adv-x="767" 
d="M319 0l-286 -0.000976562v157h15c6 -39.333 27.333 -59 64 -59h153l-3 27c-64 18.667 -114.833 50.167 -152.5 94.5s-56.5 99.833 -56.5 166.5c0 86 32.667 155.333 98 208c60.667 48.667 134.667 73 222 73s162 -24 224 -72c65.333 -52 98 -121.667 98 -209
c0 -133.333 -70.333 -220.333 -211 -261l-2 -27h153c36 0 57.333 19.667 64 59h15v-157h-286l15 147c92.667 40 139 120.667 139 242c0 72.667 -16 131 -48 175c-36 48 -90 72 -162 72c-70 0 -123 -24 -159 -72c-32 -43.333 -48 -101.666 -48 -174.999
c0 -60 9.66699 -108.333 29 -145c22 -42 58.667 -74.333 110 -97z" />
    <glyph glyph-name="Ydieresis" unicode="&#x178;" horiz-adv-x="366" 
d="M49 809c0 19.333 7.5 36.832 22.5 52.499s32.167 23.5 51.5 23.5c12 0 22.167 -4.16699 30.5 -12.5s12.5 -19.166 12.5 -32.499c0 -18 -7.5 -35.5 -22.5 -52.5s-32.167 -25.5 -51.5 -25.5c-28.667 0 -43 15.667 -43 47zM261 884.999c12.667 0 23.668 -4 33.001 -12
s14 -18.333 14 -31c0 -20 -7.16699 -38.333 -21.5 -55s-31.833 -25 -52.5 -25c-28 0 -42 14.333 -42 43c0 20 6.66699 38.333 20 55s29.666 25 48.999 25zM143.001 705.999c5.33301 0 10.667 -1.66504 16 -4.99805c6 -2 9 -6 9 -12s-2.33301 -12.333 -7 -19l-12 -17
c0 -15.333 6 -42.333 18 -81s27 -93.334 45 -164.001c4 12 13.167 51 27.5 117s21.5 105.667 21.5 119c0 6.66699 -3.5 14 -10.5 22s-11.5 15.667 -13.5 23c2 12 15.667 18 41 18h64c6.66699 0 13.334 -2 20.001 -6s10.667 -9.33301 12 -16c0 -8 -4.5 -15.333 -13.5 -22
s-15.5 -16.667 -19.5 -30l-20 -85l-39 -161l-27 -115v-196c0 -10.667 5 -20.834 15 -30.501s15 -18.5 15 -26.5c0 -12.667 -8.66699 -19 -26 -19h-126c-6 0 -11.5 1.83301 -16.5 5.5s-8.16699 9.16699 -9.5 16.5c0 6 4.16699 13.167 12.5 21.5s13.166 17.833 14.499 28.5
v202l-50 177l-55 194c-0.666992 4 -5.66699 11 -15 21c-8 10 -12 17.333 -12 22c0 12 10 18 30 18h111z" />
    <glyph glyph-name="florin" unicode="&#x192;" horiz-adv-x="548" 
d="M510 0h-482v53h482v-53zM510 337l-482 -224v61l420 193l-420 193v60l482 -223v-60z" />
    <glyph glyph-name="circumflex" unicode="&#x2c6;" horiz-adv-x="0" 
d="M-22 685l32.999 -1c9.33301 -2 17.666 -8.66699 24.999 -20c40 -63.333 60.333 -100 61 -110l-3 -8c-11.333 -12 -28 -18 -50 -18c-8 2.66699 -19.333 18 -34 46l-28 56c-11.333 -30.667 -24.666 -62.667 -39.999 -96l-17 -6c-10 0 -19 5 -27 15l-1 6
c0 10.667 17.333 49.667 52 117c6.66699 12.667 16.334 19 29.001 19z" />
    <glyph glyph-name="caron" unicode="&#x2c7;" horiz-adv-x="0" 
d="M12 573l34.001 85.999c4 8.66699 10.667 13.334 20 14.001l11 -3c6 -1.33301 12 -5 18 -11l1 -4c-4.66699 -23.333 -20.334 -62.333 -47.001 -117c-6 -14.667 -17 -22 -33 -22h-28c-20 0 -47.333 35.667 -82 107l-9 24c0 6 6 12 18 18s22.333 9.66699 31 11
c8 0 20 -15 36 -45z" />
    <glyph glyph-name="tilde" unicode="&#x2dc;" horiz-adv-x="0" 
d="M-139 580c0 16.667 14.001 32.667 42.001 48c25.333 12.667 47.333 19 66 19c14 0 32.667 -4.66699 56 -14s41 -14 53 -14c15.333 0 28.666 7 39.999 21h6c8 0 12 -4 12 -12c0 -16 -12 -32 -36 -48c-24 -14.667 -44.333 -22 -61 -22c-6 0 -13.5 1 -22.5 3
s-19.833 5.66699 -32.5 11c-24.667 9.33301 -43 14 -55 14c-4.66699 0 -9.16699 -0.5 -13.5 -1.5s-10.5 -4.33301 -18.5 -10s-15 -9.16699 -21 -10.5c-10 0 -15 5.33301 -15 16z" />
    <glyph glyph-name="endash" unicode="&#x2013;" horiz-adv-x="301" 
d="M21 273c0 4.66699 3.33203 7.33301 9.99902 8h257l5 -2l2 -3v-84c-1.33301 -3.33301 -2.66602 -5 -3.99902 -5l-11 -3h-248l-8 9l-3 9v71z" />
    <glyph glyph-name="emdash" unicode="&#x2014;" horiz-adv-x="495" 
d="M1 336h504v-82h-504v82z" />
    <glyph glyph-name="quoteleft" unicode="&#x2018;" horiz-adv-x="173" 
d="M126 600c11.333 -11.333 17.002 -26 17.002 -44s-3.66699 -33.333 -11 -46c-9.33301 -16 -22 -24 -38 -24c-43.333 0 -65 32.333 -65 97c0 21.333 8.5 48.333 25.5 81s35.833 49 56.5 49c5.33301 0 9.66602 -2 12.999 -6l-3 -8l-28 -38
c-2.66699 -4 -8.33398 -19 -17.001 -45l4 1c20 0 35.333 -5.66699 46 -17z" />
    <glyph glyph-name="quoteright" unicode="&#x2019;" horiz-adv-x="172" 
d="M27 646c0 16.667 4.16992 32 12.5029 46s20.166 21 35.499 21c44 0 66 -30.333 66 -91c0 -25.333 -8 -53 -24 -83c-18 -34 -39.333 -51 -64 -51l-9 6c3.33301 6 13.666 19.333 30.999 40c9.33301 12.667 15.666 29.667 18.999 51c-44.667 0 -67 20.333 -67 61z" />
    <glyph glyph-name="quotesinglbase" unicode="&#x201a;" horiz-adv-x="150" 
d="M29 72c0 18.667 4.5 34.999 13.5 48.999s21.833 21 38.5 21c39.333 0 59 -30 59 -90c0 -27.333 -7.33301 -57.166 -22 -89.499s-34 -53.833 -58 -64.5l-14 -4l-4 3l-3 7l36 51c6 12 10.667 27.333 14 46c-40 4 -60 27.667 -60 71z" />
    <glyph glyph-name="quotedblleft" unicode="&#x201c;" horiz-adv-x="301" 
d="M88 616c32 0 48.001 -22.001 48.001 -66.001c0 -16 -5 -30.667 -15 -44s-21.667 -20 -35 -20c-21.333 0 -38 11 -50 33c-2 4 -4.66699 11.667 -8 23s-5 24.333 -5 39c0 26 8.16699 54.667 24.5 86s36.166 47 59.499 47l11 -3l3 -3l-24 -32
c-16 -19.333 -24 -39.666 -24 -60.999zM291.001 547.999c0 -14 -4.00098 -27.667 -12.001 -41c-10 -14 -22.333 -21 -37 -21c-42 0 -63 32.667 -63 98c0 28.667 7.33301 55.667 22 81c15.333 29.333 36.333 46 63 50l10 -4l2 -4l-2 -9
c-27.333 -22.667 -42.666 -50.667 -45.999 -84l12 3c34 0 51 -23 51 -69z" />
    <glyph glyph-name="quotedblright" unicode="&#x201d;" horiz-adv-x="302" 
d="M23 643c0 46.667 17.667 70.001 53 70.001c20 0 35.667 -9.66699 47 -29c8.66699 -17.333 13 -36.333 13 -57c0 -26.667 -7.66699 -55.334 -23 -86.001c-17.333 -35.333 -38 -53 -62 -53l-11 3l-2 2c1.33301 5.33301 5.33301 12.333 12 21l16 21c10 16 17 32 21 48
c-20 0.666992 -35.667 6 -47 16s-17 24.667 -17 44zM178 647.001c0 14.667 4.33301 29.333 13 44s20.334 22 35.001 22c21.333 0 37.666 -8.5 48.999 -25.5s17 -36.833 17 -59.5c0 -28 -7.66699 -57 -23 -87c-18 -36 -39.333 -54 -64 -54c-4 0 -8 2 -12 6l31 42
c12 16 18 31.667 18 47c-20.667 0 -36.5 6.16699 -47.5 18.5s-16.5 27.833 -16.5 46.5z" />
    <glyph glyph-name="quotedblbase" unicode="&#x201e;" horiz-adv-x="302" 
d="M25 61c0 47.333 16.667 71.001 50 71.001c41.333 0 62 -30 62 -90c0 -14.667 -1.66699 -28.834 -5 -42.501s-9.33301 -28.5 -18 -44.5c-17.333 -34 -39 -51 -65 -51l-6 1l-6 8c2 6 11 17 27 33c12 14 21 32.667 27 56l-13 -1c-35.333 0 -53 20 -53 60zM179 58.001
c0 20 4.16699 37.499 12.5 52.499s21.166 22.5 38.499 22.5c20.667 0 36.334 -9.16699 47.001 -27.5s16 -38.166 16 -59.499c0 -30.667 -8 -61.167 -24 -91.5s-37.667 -47.5 -65 -51.5c-4 0 -7 2.66699 -9 8c2 3.33301 3.66699 6 5 8c4 6 10 13.333 18 22
c13.333 15.333 22 35 26 59c-43.333 0 -65 19.333 -65 58z" />
    <glyph glyph-name="dagger" unicode="&#x2020;" horiz-adv-x="366" 
d="M41 565c6.66699 0 16.668 -7.66602 30.001 -22.999c12.667 -12.667 41.667 -19 87 -19l1 20c0 54 -9 91.667 -27 113l-20 32c2 12.667 10.333 19 25 19h110c2 -0.666992 3.83301 -1.16699 5.5 -1.5s4 -2.16602 7 -5.49902s5.16699 -7.33301 6.5 -12v-4l-1 -4l-22 -20
c-14.667 -12 -22 -58.333 -22 -139c18.667 0 32.167 0.666992 40.5 2s14.5 3 18.5 5c9.33301 2.66699 25 14 47 34l11 3c14.667 0 22 -24 22 -72c0 -52.667 -8.33301 -79 -25 -79c-3.33301 1.33301 -5.66602 2.66602 -6.99902 3.99902
c-4.66699 3.33301 -10.334 8.66602 -17.001 15.999c-9.33301 9.33301 -23.333 16 -42 20l-48 4c0 -30 11 -86.667 33 -170c-8 -39.333 -14.667 -81.833 -20 -127.5s-8 -93.167 -8 -142.5c0 -6 -1.33301 -31.5 -4 -76.5s-4 -76.5 -4 -94.5c-2 -20 -10.333 -30 -25 -30
c-16.667 0 -26.334 10.667 -29.001 32l-7 130c0 64.667 -3 120.667 -9 168s-14.667 93.666 -26 138.999c14 44.667 26 101.334 36 170.001l-47 -2c-18 -2 -32 -8 -42 -18c-14 -14 -23.667 -21.667 -29 -23l-8 2c-8 6 -12 13 -12 21l1 105c0 16 6.66699 24 20 24z" />
    <glyph glyph-name="daggerdbl" unicode="&#x2021;" horiz-adv-x="737" 
d="M724 581l-28.998 -61.002c-55.333 68 -132 102 -230 102c-60.667 0 -114.334 -17.667 -161.001 -53s-78.334 -81 -95.001 -137h445l-30 -63h-429l-2 -33l2 -30h400l-30 -63h-356c18 -59.333 50.667 -106.166 98 -140.499s103.333 -51.5 168 -51.5
c91.333 0 164.666 33 219.999 99v-85c-64.667 -51.333 -139.667 -77 -225 -77c-81.333 0 -152.5 22.833 -213.5 68.5s-100.5 107.834 -118.5 186.501h-113l30 63h71l-1 31l1 32h-101l30 63h83c18 78 57.833 139.667 119.5 185s134.167 68 217.5 68
c48 0 94.833 -9.16699 140.5 -27.5s81.834 -43.833 108.501 -76.5z" />
    <glyph glyph-name="bullet" unicode="&#x2022;" horiz-adv-x="333" 
d="M297 353c0 -36.667 -12.333 -67.5 -37 -92.5s-55 -37.5 -91 -37.5c-36.667 0 -68 12.667 -94 38s-39 56 -39 92c0 35.333 13.167 65.833 39.5 91.5s57.5 38.5 93.5 38.5c34.667 0 64.667 -12.833 90 -38.5s38 -56.167 38 -91.5z" />
    <glyph glyph-name="ellipsis" unicode="&#x2026;" horiz-adv-x="1000" 
d="M219 0h-104v106h104v-106zM552 0h-104v106h104v-106zM885 0h-104v106h104v-106z" />
    <glyph glyph-name="guilsinglleft" unicode="&#x2039;" horiz-adv-x="333" 
d="M245 108l-157 123v92l157 123v-88l-105 -81l105 -81v-88z" />
    <glyph glyph-name="guilsinglright" unicode="&#x203a;" horiz-adv-x="333" 
d="M88 196l105 81l-105 81v88l157 -123v-92l-157 -123v88z" />
    <glyph glyph-name="uni20AC" unicode="&#x20ac;" horiz-adv-x="424" 
d="M290 295h-81.999c0 -146.667 24.333 -220 73 -220c36.667 0 55 57 55 171c0 34 8.66699 51 26 51c32.667 0 49 -39.667 49 -119c0 -53.333 -11 -97 -33 -131c-26 -39.333 -64.667 -59 -116 -59c-70 0 -121.333 35.667 -154 107c-12 27.333 -21 56.833 -27 88.5
s-9 68.834 -9 111.501h-47l9 37h38l3 37h-50l9 37h45c10 82 28 150.667 54 206c33.333 70.667 76 106 128 106l24 -4l26 -3l17 4l18 5c7.33301 0 14 -8 20 -24l9 -42c14 -62 21 -102.333 21 -121c0 -8.66699 -2.33301 -16.834 -7 -24.501s-11 -12.167 -19 -13.5
c-16 0 -33.333 26.167 -52 78.5s-37.334 78.5 -56.001 78.5c-35.333 0 -53 -82 -53 -246h106l-8 -37h-99v-37h90z" />
    <glyph glyph-name="trademark" unicode="&#x2122;" horiz-adv-x="889" 
d="M328 653l2.99902 -94l-18 -1v9c0 27.333 -12.333 46 -37 56c-5.33301 2 -15.166 3.83301 -29.499 5.5s-28.833 2.5 -43.5 2.5v-302c0 -18 16 -27 48 -27v-18h-155v18c33.333 0 50 9 50 27l-1 301c-37.333 0 -63 -3 -77 -9c-22 -9.33301 -33 -30.333 -33 -63l-18 1l3 94
h308zM468.999 653l129 -279.999l122 280h108v-18h-9c-25.333 0 -38 -8 -38 -24v-282c0 -18 16 -27 48 -27v-18h-155v18c33.333 0 50 9 50 27v269l-130 -314h-18l-140 298v-253c0 -18 16.667 -27 50 -27v-18h-125v18c32.667 0 49 9 49 27v272c0 15.333 -5 25.666 -15 30.999
c-4 2 -16 3 -36 3v18h110z" />
    <glyph glyph-name="fraction" unicode="&#x2215;" horiz-adv-x="108" 
d="M181 706c4.66699 0 10 -2 16 -6l2 -4v-4c0 -5.33301 -10.667 -42 -32 -110l-118 -372l-38 -121l-21 -64c-4 -10 -7.5 -16.667 -10.5 -20s-9.5 -5 -19.5 -5l-6 2l-6 6l-1 9l39 131l135 426l26 80l10 35c4 11.333 12 17 24 17z" />
    <glyph glyph-name="NULL" horiz-adv-x="0" 
 />
    <glyph glyph-name="nonmarkingreturn" horiz-adv-x="317" 
 />
    </font>
</defs>
</svg>
